<svg width="45" height="45" viewBox="0 0 45 45" fill="none" xmlns="http://www.w3.org/2000/svg">
<path d="M21.4155 0.00196151H18.2067C18.0641 -0.00694855 17.9213 0.0145665 17.7877 0.0650761C17.6541 0.115586 17.5328 0.193935 17.4318 0.294922C17.3308 0.39591 17.2525 0.517224 17.202 0.650812C17.1515 0.7844 17.13 0.927205 17.1389 1.06974V6.42526H13.9245C13.7812 6.41635 13.6377 6.43802 13.5034 6.48881C13.3692 6.5396 13.2472 6.61835 13.1457 6.71985C13.0442 6.82135 12.9655 6.94327 12.9147 7.07753C12.8639 7.21179 12.8422 7.35531 12.8511 7.49858V23.543H1.07233C0.929511 23.5349 0.7866 23.5572 0.653014 23.6083C0.519427 23.6595 0.398197 23.7383 0.29731 23.8398C0.196423 23.9412 0.118169 24.0628 0.0677062 24.1967C0.0172435 24.3305 -0.00428211 24.4735 0.00454518 24.6163V43.8917C-0.00928131 44.0372 0.00852669 44.1839 0.0567484 44.3218C0.10497 44.4596 0.182463 44.5855 0.283906 44.6906C0.385349 44.7957 0.508337 44.8776 0.64443 44.9307C0.780524 44.9838 0.926498 45.0069 1.07233 44.9982H43.9054C44.0482 45.0063 44.1911 44.9841 44.3247 44.9329C44.4583 44.8818 44.5795 44.8029 44.6804 44.7015C44.7813 44.6 44.8595 44.4784 44.91 44.3446C44.9604 44.2107 44.982 44.0677 44.9731 43.9249V18.2041C44.982 18.0613 44.9604 17.9183 44.91 17.7844C44.8595 17.6506 44.7813 17.5289 44.6804 17.4275C44.5795 17.3261 44.4583 17.2472 44.3247 17.1961C44.1911 17.1449 44.0482 17.1227 43.9054 17.1308H32.1266V7.49858C32.1355 7.35531 32.1138 7.21179 32.063 7.07753C32.0122 6.94327 31.9335 6.82135 31.832 6.71985C31.7305 6.61835 31.6085 6.5396 31.4743 6.48881C31.34 6.43802 31.1965 6.41635 31.0532 6.42526H27.8388V1.06974C27.8477 0.927205 27.8262 0.7844 27.7757 0.650812C27.7252 0.517224 27.6469 0.39591 27.5459 0.294922C27.4449 0.193935 27.3236 0.115586 27.19 0.0650761C27.0564 0.0145665 26.9136 -0.00694855 26.771 0.00196151H23.5622H21.4155ZM42.832 42.8295H27.8388V19.2719H42.832V42.8295ZM14.9922 8.56636H18.2067C18.3494 8.57519 18.4924 8.55366 18.6263 8.5032C18.7601 8.45273 18.8818 8.37448 18.9832 8.27359C19.0846 8.17271 19.1635 8.05147 19.2146 7.91789C19.2658 7.7843 19.2881 7.64139 19.28 7.49858V2.14306H25.7033V7.49858C25.6943 7.64112 25.7159 7.78392 25.7664 7.91751C25.8169 8.0511 25.8952 8.17241 25.9962 8.2734C26.0972 8.37438 26.2185 8.45273 26.3521 8.50324C26.4857 8.55375 26.6285 8.57527 26.771 8.56636H29.9855V17.1308H26.771C26.6282 17.1227 26.4853 17.1449 26.3517 17.1961C26.2181 17.2472 26.0969 17.3261 25.996 17.4275C25.8951 17.5289 25.8169 17.6506 25.7664 17.7844C25.716 17.9183 25.6944 18.0613 25.7033 18.2041V42.8295H19.28V24.6274C19.288 24.4843 19.2657 24.3412 19.2146 24.2073C19.1635 24.0735 19.0847 23.9519 18.9834 23.8506C18.8821 23.7493 18.7605 23.6705 18.6267 23.6194C18.4928 23.5683 18.3497 23.546 18.2067 23.554H14.9922V8.56636ZM2.14564 25.7173H17.1389V42.8682H2.14564V25.7173Z" fill="#1F9055"/>
<path d="M33.1943 25.6951H37.4765C37.6236 25.7057 37.7712 25.6858 37.9103 25.6368C38.0493 25.5878 38.1768 25.5107 38.2847 25.4102C38.3927 25.3098 38.4787 25.1882 38.5376 25.053C38.5965 24.9178 38.6268 24.772 38.6268 24.6245C38.6268 24.4771 38.5965 24.3312 38.5376 24.196C38.4787 24.0609 38.3927 23.9393 38.2847 23.8388C38.1768 23.7384 38.0493 23.6612 37.9103 23.6122C37.7712 23.5632 37.6236 23.5434 37.4765 23.554H33.1943C32.9237 23.5734 32.6705 23.6947 32.4856 23.8933C32.3008 24.0919 32.198 24.3532 32.198 24.6245C32.198 24.8959 32.3008 25.1571 32.4856 25.3557C32.6705 25.5544 32.9237 25.6756 33.1943 25.6951Z" fill="#1F9055"/>
<path d="M33.1943 32.1185H37.4765C37.6236 32.1291 37.7712 32.1093 37.9103 32.0603C38.0493 32.0113 38.1768 31.9341 38.2847 31.8337C38.3927 31.7332 38.4787 31.6116 38.5376 31.4765C38.5965 31.3413 38.6268 31.1954 38.6268 31.048C38.6268 30.9006 38.5965 30.7547 38.5376 30.6195C38.4787 30.4843 38.3927 30.3627 38.2847 30.2623C38.1768 30.1618 38.0493 30.0847 37.9103 30.0357C37.7712 29.9867 37.6236 29.9669 37.4765 29.9774H33.1943C32.9237 29.9969 32.6705 30.1181 32.4856 30.3168C32.3008 30.5154 32.198 30.7767 32.198 31.048C32.198 31.3193 32.3008 31.5806 32.4856 31.7792C32.6705 31.9778 32.9237 32.0991 33.1943 32.1185Z" fill="#1F9055"/>
<path d="M33.1944 38.5472H37.4766C37.7613 38.5472 38.0343 38.4341 38.2356 38.2328C38.4368 38.0316 38.5499 37.7586 38.5499 37.4739C38.5499 37.1892 38.4368 36.9162 38.2356 36.7149C38.0343 36.5137 37.7613 36.4006 37.4766 36.4006H33.1944C32.9097 36.4006 32.6367 36.5137 32.4355 36.7149C32.2342 36.9162 32.1211 37.1892 32.1211 37.4739C32.1211 37.7586 32.2342 38.0316 32.4355 38.2328C32.6367 38.4341 32.9097 38.5472 33.1944 38.5472Z" fill="#1F9055"/>
<path d="M11.7834 29.9774H7.50116C7.3541 29.9669 7.20644 29.9867 7.06738 30.0357C6.92833 30.0847 6.80086 30.1618 6.69293 30.2623C6.585 30.3627 6.49892 30.4843 6.44006 30.6195C6.38121 30.7547 6.35083 30.9006 6.35083 31.048C6.35083 31.1954 6.38121 31.3413 6.44006 31.4765C6.49892 31.6116 6.585 31.7332 6.69293 31.8337C6.80086 31.9341 6.92833 32.0113 7.06738 32.0603C7.20644 32.1093 7.3541 32.1291 7.50116 32.1185H11.7834C12.054 32.0991 12.3072 31.9778 12.492 31.7792C12.6769 31.5806 12.7797 31.3193 12.7797 31.048C12.7797 30.7767 12.6769 30.5154 12.492 30.3168C12.3072 30.1181 12.054 29.9969 11.7834 29.9774Z" fill="#1F9055"/>
<path d="M11.7832 36.4006H7.50105C7.21639 36.4006 6.94339 36.5137 6.7421 36.7149C6.54081 36.9162 6.42773 37.1892 6.42773 37.4739C6.42773 37.7586 6.54081 38.0316 6.7421 38.2328C6.94339 38.4341 7.21639 38.5472 7.50105 38.5472H11.7832C12.0679 38.5472 12.3409 38.4341 12.5422 38.2328C12.7435 38.0316 12.8566 37.7586 12.8566 37.4739C12.8566 37.1892 12.7435 36.9162 12.5422 36.7149C12.3409 36.5137 12.0679 36.4006 11.7832 36.4006Z" fill="#1F9055"/>
</svg>
