<svg width="50" height="50" viewBox="0 0 50 50" fill="none" xmlns="http://www.w3.org/2000/svg">
<path d="M31.8064 24.3644H18.0665C17.7576 24.3644 17.4613 24.2417 17.2428 24.0232C17.0243 23.8047 16.9016 23.5084 16.9016 23.1995C16.9016 22.8905 17.0243 22.5942 17.2428 22.3757C17.4613 22.1573 17.7576 22.0345 18.0665 22.0345H31.8064C32.1154 22.0345 32.4117 22.1573 32.6301 22.3757C32.8486 22.5942 32.9713 22.8905 32.9713 23.1995C32.9713 23.5084 32.8486 23.8047 32.6301 24.0232C32.4117 24.2417 32.1154 24.3644 31.8064 24.3644Z" fill="#1F9055"/>
<path d="M31.8064 31.7506H18.0665C17.7576 31.7506 17.4613 31.6279 17.2428 31.4094C17.0243 31.191 16.9016 30.8947 16.9016 30.5857C16.9016 30.2768 17.0243 29.9804 17.2428 29.762C17.4613 29.5435 17.7576 29.4208 18.0665 29.4208H31.8064C32.1154 29.4208 32.4117 29.5435 32.6301 29.762C32.8486 29.9804 32.9713 30.2768 32.9713 30.5857C32.9713 30.8947 32.8486 31.191 32.6301 31.4094C32.4117 31.6279 32.1154 31.7506 31.8064 31.7506Z" fill="#1F9055"/>
<path d="M49.4943 21.7318C49.4163 21.5816 49.3166 21.4437 49.1984 21.3225L41.6106 15.7875V14.9437C41.6106 14.9437 41.6106 14.906 41.6106 14.8871V2.19879C41.6202 1.90813 41.5701 1.6186 41.4635 1.34805C41.3568 1.0775 41.1959 0.83167 40.9905 0.625741C40.7852 0.419811 40.5398 0.258148 40.2696 0.150727C39.9993 0.0433047 39.71 -0.0075965 39.4193 0.00116576H10.4535C10.1623 -0.00847592 9.8722 0.0417739 9.60121 0.148802C9.33022 0.255831 9.08409 0.41736 8.87807 0.623382C8.67205 0.829404 8.51052 1.07553 8.40349 1.34652C8.29646 1.61751 8.24621 1.90759 8.25585 2.19879V15.7875L0.894766 21.1021L0.756233 21.2155C0.592336 21.3696 0.456034 21.5506 0.353231 21.7507C0.121504 22.0399 -0.00307873 22.4003 0.000605325 22.7708V47.7821C-0.00629331 48.0726 0.0458352 48.3615 0.153834 48.6312C0.261833 48.901 0.423454 49.146 0.628913 49.3514C0.834372 49.5569 1.07939 49.7185 1.34914 49.8265C1.61888 49.9345 1.90775 49.9867 2.19823 49.9798H47.6745C47.9839 50.0197 48.298 50.0004 48.6002 49.9231C48.881 49.8917 49.1419 49.7624 49.3369 49.5579L49.6266 49.2934L49.8092 49.0037L49.8721 48.5755V22.7582C49.8764 22.3813 49.7419 22.016 49.4943 21.7318ZM41.5854 18.6526L46.4088 22.16L41.5854 24.8299V18.6526ZM39.2744 2.33102V16.9525V26.02C39.2718 26.0535 39.2718 26.0872 39.2744 26.1208L25.5661 33.7211L10.6046 25.4281V14.5281C10.6046 14.5281 10.6046 14.4904 10.6046 14.4715V2.33102H39.2744ZM8.27475 18.64V24.1372L3.97396 21.7507L8.27475 18.64ZM2.33046 47.6499V23.5012L45.8925 47.6499H2.33046ZM47.5423 45.8994L27.9778 35.0561L47.5423 24.2065V45.8994Z" fill="#1F9055"/>
</svg>
