<svg width="48" height="45" viewBox="0 0 48 45" fill="none" xmlns="http://www.w3.org/2000/svg">
<path d="M46.9677 5.61189H45.9355V7.65734H45.9871V33.4615H38.9677C38.4 33.4615 37.9355 33.9336 37.9355 34.5105V41.3811L30.9677 33.7762C30.7613 33.5664 30.5032 33.4615 30.2452 33.4615H21.5226L19.4581 35.507H29.7807L38.2452 44.6329C38.4516 44.8427 38.7097 44.9475 38.9677 44.9475C39.071 44.9475 39.2258 44.9475 39.329 44.8951C39.6903 44.7378 39.9484 44.3706 39.9484 43.951V35.507H46.9677C47.5355 35.507 48 35.035 48 34.458V6.66084C48 6.08391 47.5355 5.61189 46.9677 5.61189Z" fill="#1F9055"/>
<path d="M13.729 20.2972C12.4387 20.2972 11.4065 19.8776 10.529 18.986C9.65161 18.1469 9.23871 17.0455 9.23871 15.7867C9.23871 14.528 9.65161 13.4266 10.529 12.5874C11.4065 11.7483 12.4387 11.2762 13.729 11.2762C15.0194 11.2762 16.0516 11.6958 16.929 12.5874C17.8065 13.4266 18.2194 14.528 18.2194 15.7867C18.2194 16.7308 17.9613 17.6224 17.4452 18.3566C16.929 19.0909 16.2581 19.6678 15.3806 19.9825C15.6387 20.3496 16 20.5594 16.4129 20.5594C16.7226 20.5594 17.0323 20.4545 17.3419 20.2972C17.6516 20.1399 17.8581 19.9301 18.0129 19.6678L18.8387 20.8217C18.1161 21.6084 17.3419 21.9755 16.4129 21.9755C15.8968 21.9755 15.3806 21.8182 14.9161 21.5035C14.4516 21.1888 14.0903 20.8217 13.8839 20.2972C13.8839 20.2972 13.8323 20.2972 13.7806 20.2972C13.7806 20.2448 13.729 20.2972 13.729 20.2972ZM15.8452 13.5315C15.2774 12.9021 14.5548 12.5874 13.6774 12.5874C12.8516 12.5874 12.129 12.9021 11.5097 13.5315C10.9419 14.1608 10.6323 14.8951 10.6323 15.7867C10.6323 16.6783 10.9419 17.4126 11.5097 17.9895C12.0774 18.6189 12.8 18.9336 13.6774 18.9336C14.5032 18.9336 15.2258 18.6189 15.8452 17.9895C16.4129 17.3601 16.7226 16.6259 16.7226 15.7867C16.7226 14.8951 16.4645 14.1608 15.8452 13.5315Z" fill="#1F9055"/>
<path d="M23.4838 17.7273C22.9677 18.1993 22.4 18.4091 21.729 18.4091C20.5935 18.4091 19.7161 17.6748 19.7161 16.6259C19.7161 15.7867 20.2838 15.3147 20.9548 14.9476C20.5935 14.4231 20.4387 14.0035 20.4387 13.5839C20.4387 12.7448 21.1096 12.1678 22.0903 12.1678C23.0709 12.1678 23.7419 12.7448 23.7419 13.5315C23.7419 14.3706 23.0193 14.8427 22.2967 15.2098C22.5548 15.5245 22.9161 15.8916 23.329 16.3112C23.4838 15.9965 23.6387 15.6818 23.7935 15.3147L24.6193 15.9441C24.4645 16.3636 24.258 16.7308 24.0516 17.0455L24.9806 17.9371L24.3096 18.6189L23.4838 17.7273ZM22.8129 17.0455C22.2967 16.521 21.8838 16.0489 21.5225 15.6818C21.1613 15.9441 20.8516 16.2063 20.8516 16.5734C20.8516 17.0979 21.2645 17.465 21.8322 17.465C22.1419 17.465 22.5032 17.3077 22.8129 17.0455ZM21.8322 14.5804C22.3484 14.3182 22.7096 14.0035 22.7096 13.5839C22.7096 13.2692 22.4516 13.007 22.0903 13.007C21.6774 13.007 21.4709 13.2692 21.4709 13.6364C21.4709 13.8986 21.5742 14.2133 21.8322 14.5804Z" fill="#1F9055"/>
<path d="M30.5032 11.486L34.271 20.1399H32.671L31.7936 18.1469H27.7161L26.8903 20.1399H25.3419L29.1097 11.486H30.5032ZM31.2258 16.8357L29.7807 13.479L28.3355 16.8357H31.2258Z" fill="#1F9055"/>
<path d="M10.2194 41.1713C10.0645 41.1713 9.96129 41.1189 9.80645 41.0664C9.44516 40.9091 9.1871 40.542 9.1871 40.1224V31.2063H1.75484C0.774194 31.2063 0 30.4196 0 29.4231V1.78322C0 0.786713 0.774194 0 1.75484 0H42.0645C43.0452 0 43.8194 0.786713 43.8194 1.78322V29.528C43.8194 30.5245 43.0452 31.3112 42.0645 31.3112H20.6452L10.8903 40.9091C10.7355 41.1189 10.4774 41.1713 10.2194 41.1713ZM2.0129 29.2133H10.2194C10.7871 29.2133 11.2516 29.6853 11.2516 30.2622V37.7622L19.6129 29.528C19.8194 29.3182 20.0774 29.2133 20.3355 29.2133H41.8581V2.04545H2.11613V29.2133H2.0129Z" fill="#1F9055"/>
</svg>
