<svg width="45" height="45" viewBox="0 0 45 45" fill="none" xmlns="http://www.w3.org/2000/svg">
<path d="M22.5 27.5125C19.4972 27.5095 16.6181 26.2636 14.4948 24.0483C12.3715 21.833 11.1773 18.8293 11.1745 15.6964V11.8161C11.1745 8.68226 12.3677 5.67679 14.4916 3.46085C16.6156 1.2449 19.4963 0 22.5 0C25.5037 0 28.3844 1.2449 30.5084 3.46085C32.6323 5.67679 33.8256 8.68226 33.8256 11.8161V15.6964C33.8227 18.8293 32.6285 21.833 30.5052 24.0483C28.3819 26.2636 25.5029 27.5095 22.5 27.5125ZM22.5 2.25929C20.0715 2.26228 17.7433 3.27011 16.026 5.06171C14.3088 6.85331 13.3428 9.28238 13.34 11.8161V15.6964C13.34 18.231 14.305 20.6618 16.0229 22.4541C17.7407 24.2463 20.0706 25.2532 22.5 25.2532C24.9294 25.2532 27.2593 24.2463 28.9771 22.4541C30.695 20.6618 31.6601 18.231 31.6601 15.6964V11.8161C31.6572 9.28238 30.6912 6.85331 28.974 5.06171C27.2568 3.27011 24.9285 2.26228 22.5 2.25929Z" fill="#1F9055"/>
<path d="M42.9802 44.9994H2.0144C1.74831 45.0055 1.48378 44.9554 1.23676 44.852C0.989752 44.7486 0.765378 44.594 0.577178 44.3977C0.388977 44.2013 0.240849 43.9672 0.141735 43.7095C0.0426201 43.4518 -0.00542854 43.1758 0.000486789 42.8982V40.9552C0.00335347 37.8223 1.1975 34.8186 3.32083 32.6033C5.44416 30.388 8.32319 29.1422 11.326 29.1392H33.674C36.6768 29.1422 39.5558 30.388 41.6792 32.6033C43.8025 34.8186 44.9966 37.8223 44.9995 40.9552V42.8982C45.0055 43.1763 44.9572 43.4528 44.8578 43.7109C44.7584 43.969 44.6097 44.2033 44.421 44.3998C44.2322 44.5962 44.0071 44.7506 43.7595 44.8537C43.5118 44.9567 43.2467 45.0063 42.9802 44.9994ZM2.16598 42.7401H42.8286V40.9552C42.8257 38.4225 41.8605 35.9943 40.1444 34.2029C38.4284 32.4114 36.1015 31.4029 33.674 31.3984H11.326C8.89752 31.4014 6.56929 32.4093 4.85207 34.2009C3.13484 35.9925 2.16885 38.4215 2.16598 40.9552V42.7401Z" fill="#1F9055"/>
</svg>
