<svg width="61" height="60" viewBox="0 0 61 60" fill="none" xmlns="http://www.w3.org/2000/svg">
<path d="M59.5522 28.6633H54.2501C54.0683 28.6507 53.8859 28.6756 53.7141 28.7365C53.5423 28.7974 53.3849 28.8929 53.2517 29.0173C53.1184 29.1416 53.0121 29.292 52.9395 29.4591C52.8668 29.6263 52.8293 29.8066 52.8293 29.9888C52.8293 30.1711 52.8668 30.3514 52.9395 30.5185C53.0121 30.6856 53.1184 30.836 53.2517 30.9604C53.3849 31.0847 53.5423 31.1803 53.7141 31.2412C53.8859 31.3021 54.0683 31.327 54.2501 31.3143H59.5522C59.7341 31.327 59.9165 31.3021 60.0883 31.2412C60.2601 31.1803 60.4175 31.0847 60.5507 30.9604C60.684 30.836 60.7902 30.6856 60.8629 30.5185C60.9356 30.3514 60.973 30.1711 60.973 29.9888C60.973 29.8066 60.9356 29.6263 60.8629 29.4591C60.7902 29.292 60.684 29.1416 60.5507 29.0173C60.4175 28.8929 60.2601 28.7974 60.0883 28.7365C59.9165 28.6756 59.7341 28.6507 59.5522 28.6633Z" fill="#1F9055"/>
<path d="M35.8462 59.9968H25.127C24.9572 60.009 24.7867 59.9861 24.6262 59.9295C24.4656 59.8729 24.3184 59.7839 24.1938 59.6679C24.0692 59.5519 23.9698 59.4115 23.9019 59.2554C23.8339 59.0994 23.7988 58.9309 23.7988 58.7607C23.7988 58.5905 23.8339 58.4221 23.9019 58.266C23.9698 58.1099 24.0692 57.9695 24.1938 57.8535C24.3184 57.7375 24.4656 57.6485 24.6262 57.5919C24.7867 57.5353 24.9572 57.5124 25.127 57.5246H35.8462C36.016 57.5124 36.1865 57.5353 36.3471 57.5919C36.5076 57.6485 36.6548 57.7375 36.7794 57.8535C36.9041 57.9695 37.0034 58.1099 37.0714 58.266C37.1394 58.4221 37.1744 58.5905 37.1744 58.7607C37.1744 58.9309 37.1394 59.0994 37.0714 59.2554C37.0034 59.4115 36.9041 59.5519 36.7794 59.6679C36.6548 59.7839 36.5076 59.8729 36.3471 59.9295C36.1865 59.9861 36.016 60.009 35.8462 59.9968Z" fill="#1F9055"/>
<path d="M35.7886 53.7748H25.1844C24.846 53.7855 24.509 53.7267 24.1941 53.602C23.8793 53.4774 23.5934 53.2895 23.3539 53.0501C23.1145 52.8107 22.9267 52.5247 22.802 52.2099C22.6774 51.8951 22.6186 51.558 22.6292 51.2196V46.7479C19.4636 45.2334 16.7887 42.8577 14.911 39.8931C13.0332 36.9285 12.0286 33.4948 12.0122 29.9856C12.0128 26.6774 12.9018 23.4301 14.5862 20.5828C16.2706 17.7355 18.6886 15.3927 21.5877 13.7992C24.4869 12.2057 27.7607 11.4199 31.0673 11.5239C34.3739 11.6279 37.5919 12.6179 40.3851 14.3904C43.1784 16.163 45.4444 18.653 46.9466 21.6006C48.4487 24.5481 49.1318 27.8449 48.9246 31.1466C48.7173 34.4483 47.6273 37.6338 45.7683 40.3703C43.9093 43.1068 41.3497 45.2939 38.3567 46.7032V51.1749C38.3737 51.5181 38.3192 51.8611 38.1966 52.1822C38.074 52.5032 37.886 52.7952 37.6446 53.0397C37.4031 53.2842 37.1134 53.4758 36.7939 53.6024C36.4744 53.7289 36.1321 53.7877 35.7886 53.7748ZM30.4865 13.9835C26.7856 13.9817 23.1984 15.2628 20.3359 17.6087C17.4734 19.9545 15.5125 23.2201 14.7871 26.8492C14.0617 30.4784 14.6167 34.2468 16.3576 37.5128C18.0984 40.7787 20.9175 43.3403 24.3348 44.7613L25.095 45.0743V51.2196C25.095 51.2643 25.095 51.2899 25.095 51.309C25.095 51.3282 25.1333 51.309 25.178 51.309H35.7886C35.8182 51.3147 35.8485 51.3147 35.8781 51.309C35.8781 51.309 35.8781 51.309 35.8781 51.2324V45.0998L36.6383 44.7868C40.0718 43.376 42.908 40.8153 44.6612 37.5434C46.4145 34.2715 46.9756 30.4918 46.2487 26.8516C45.5217 23.2114 43.5518 19.9372 40.6763 17.5896C37.8008 15.2421 34.1986 13.9673 30.4865 13.9835Z" fill="#1F9055"/>
<path d="M6.74845 28.6633H1.4208C1.23899 28.6507 1.05652 28.6756 0.884751 28.7365C0.712978 28.7974 0.555569 28.8929 0.42231 29.0173C0.289052 29.1416 0.182794 29.292 0.110142 29.4591C0.0374909 29.6263 0 29.8066 0 29.9888C0 30.1711 0.0374909 30.3514 0.110142 30.5185C0.182794 30.6856 0.289052 30.836 0.42231 30.9604C0.555569 31.0847 0.712978 31.1803 0.884751 31.2412C1.05652 31.3021 1.23899 31.327 1.4208 31.3143H6.7229C6.90471 31.327 7.08717 31.3021 7.25895 31.2412C7.43072 31.1803 7.58813 31.0847 7.72139 30.9604C7.85465 30.836 7.9609 30.6856 8.03355 30.5185C8.10621 30.3514 8.1437 30.1711 8.1437 29.9888C8.1437 29.8066 8.10621 29.6263 8.03355 29.4591C7.9609 29.292 7.85465 29.1416 7.72139 29.0173C7.58813 28.8929 7.43072 28.7974 7.25895 28.7365C7.08717 28.6756 6.90471 28.6507 6.7229 28.6633" fill="#1F9055"/>
<path d="M29.1577 1.32872V6.63083C29.1577 6.98323 29.2977 7.32119 29.5469 7.57037C29.7961 7.81956 30.134 7.95955 30.4864 7.95955C30.8388 7.95955 31.1768 7.81956 31.426 7.57037C31.6752 7.32119 31.8152 6.98323 31.8152 6.63083V1.32872C31.8152 1.15423 31.7808 0.98145 31.714 0.820242C31.6472 0.659034 31.5494 0.512557 31.426 0.389174C31.3026 0.265791 31.1561 0.167918 30.9949 0.101143C30.8337 0.0343686 30.6609 0 30.4864 0C30.3119 0 30.1392 0.0343686 29.978 0.101143C29.8167 0.167918 29.6703 0.265791 29.5469 0.389174C29.4235 0.512557 29.3256 0.659034 29.2589 0.820242C29.1921 0.98145 29.1577 1.15423 29.1577 1.32872Z" fill="#1F9055"/>
<path d="M50.8452 8.29169L47.0954 12.0415C46.8731 12.2948 46.7554 12.6232 46.766 12.96C46.7767 13.2969 46.915 13.6172 47.153 13.8559C47.3909 14.0946 47.7106 14.234 48.0475 14.2458C48.3843 14.2577 48.7131 14.1411 48.9671 13.9196L52.7169 10.1698C52.8541 10.0502 52.9653 9.90378 53.0435 9.7395C53.1218 9.57522 53.1654 9.39662 53.1718 9.21477C53.1782 9.03292 53.1472 8.8517 53.0806 8.68233C53.0141 8.51297 52.9135 8.35908 52.7851 8.23019C52.6566 8.10131 52.5031 8.00018 52.3339 7.93307C52.1648 7.86597 51.9837 7.83432 51.8018 7.84008C51.6199 7.84585 51.4412 7.88891 51.2766 7.9666C51.1121 8.04428 50.9653 8.15493 50.8452 8.29169Z" fill="#1F9055"/>
<path d="M10.1277 8.29169L13.8775 12.0415C14.0998 12.2948 14.2176 12.6232 14.2069 12.96C14.1962 13.2969 14.0579 13.6172 13.82 13.8559C13.582 14.0946 13.2623 14.234 12.9254 14.2458C12.5886 14.2577 12.2599 14.1411 12.0058 13.9196L8.25598 10.1698C8.11881 10.0502 8.00766 9.90378 7.92941 9.7395C7.85117 9.57522 7.8075 9.39662 7.80111 9.21477C7.79473 9.03292 7.82576 8.8517 7.89229 8.68233C7.95882 8.51297 8.05942 8.35908 8.18787 8.23019C8.31631 8.10131 8.46987 8.00018 8.639 7.93307C8.80814 7.86597 8.98925 7.83432 9.17112 7.84008C9.35299 7.84585 9.53174 7.88891 9.69628 7.9666C9.86083 8.04428 10.0077 8.15493 10.1277 8.29169Z" fill="#1F9055"/>
</svg>
