<svg width="72" height="50" viewBox="0 0 72 50" fill="none" xmlns="http://www.w3.org/2000/svg">
<path d="M63.1783 50H8.73659C5.25734 50 0.00281032 50 0.00281032 44.0967C-0.0138533 43.736 0.0437215 43.3757 0.17197 43.0381C0.300218 42.7005 0.496408 42.3929 0.748387 42.1342C1.00037 41.8755 1.30277 41.6714 1.63687 41.5343C1.97096 41.3973 2.32964 41.3303 2.69068 41.3375H6.05586V9.11878C6.05586 4.00684 9.89159 0 14.7896 0H57.1324C62.0233 0 65.8591 4.00684 65.8591 9.11878V41.3375H69.2314C69.5921 41.3302 69.9505 41.3972 70.2842 41.5344C70.618 41.6715 70.9199 41.8758 71.1714 42.1345C71.4228 42.3933 71.6183 42.7011 71.7457 43.0386C71.8732 43.3762 71.9298 43.7363 71.9121 44.0967C71.9121 50 66.6576 50 63.1783 50ZM2.69068 43.6832C2.54808 43.6832 2.34845 43.6832 2.34845 44.0967C2.34845 47.1482 3.94549 47.6615 8.76511 47.6615H63.2069C68.0051 47.6615 69.6235 47.1482 69.6235 44.0967C69.6235 43.6832 69.431 43.6832 69.2884 43.6832H63.5847V9.11878C63.5847 5.31869 60.7757 2.34564 57.1681 2.34564H14.7896C11.2248 2.34564 8.37298 5.31869 8.37298 9.11878V43.6832H2.69068Z" fill="#1F9055"/>
<path d="M56.1272 36.2186H15.7878C15.3713 36.2382 14.9553 36.172 14.5654 36.0242C14.1755 35.8764 13.8202 35.6501 13.5214 35.3594C13.2226 35.0686 12.9867 34.7195 12.8284 34.3338C12.67 33.9482 12.5926 33.534 12.6008 33.1172V9.91029C12.5916 9.49285 12.6683 9.07796 12.8262 8.69142C12.9841 8.30489 13.2198 7.95497 13.5187 7.66342C13.8177 7.37187 14.1733 7.14493 14.5637 6.9967C14.954 6.84846 15.3707 6.78212 15.7878 6.80178H56.1272C56.5442 6.78212 56.9609 6.84846 57.3513 6.9967C57.7416 7.14493 58.0973 7.37187 58.3962 7.66342C58.6951 7.95497 58.9308 8.30489 59.0887 8.69142C59.2467 9.07796 59.3234 9.49285 59.3141 9.91029V33.1172C59.3224 33.534 59.2449 33.9482 59.0866 34.3338C58.9282 34.7195 58.6923 35.0686 58.3935 35.3594C58.0947 35.6501 57.7394 35.8764 57.3495 36.0242C56.9597 36.172 56.5436 36.2382 56.1272 36.2186ZM15.7878 9.12603C15.2317 9.12603 14.9465 9.3827 14.9465 9.8889V33.1172C14.9465 33.6234 15.2317 33.8729 15.7878 33.8729H56.1272C56.6904 33.8729 56.9756 33.6234 56.9756 33.1172V9.91029C56.9756 9.40409 56.6904 9.14742 56.1272 9.14742L15.7878 9.12603Z" fill="#1F9055"/>
<path d="M46.732 20.9462L45.3154 21.7723L49.7907 29.4462L51.2072 28.6201L46.732 20.9462Z" fill="#1F9055"/>
<path d="M41.6611 13.8813L43.8071 25.7023L50.9011 21.5671L41.6611 13.8813Z" fill="#1F9055"/>
<path d="M64.6327 41.3375H8.07349V43.6832H64.6327V41.3375Z" fill="#1F9055"/>
</svg>
