<svg width="28" height="28" viewBox="0 0 28 28" fill="none" xmlns="http://www.w3.org/2000/svg">
<path d="M18.3122 5.16027C18.1928 5.15986 18.0762 5.12389 17.977 5.05685C17.8777 4.98981 17.8003 4.8947 17.7545 4.78345C17.7086 4.6722 17.6964 4.54976 17.7192 4.4315C17.7421 4.31324 17.799 4.20442 17.8829 4.1187L21.763 0.203709C21.8776 0.0947042 22.0297 0.034976 22.1872 0.0371676C22.3447 0.0393592 22.4951 0.103299 22.6067 0.215451C22.7183 0.327603 22.7822 0.479164 22.785 0.638051C22.7878 0.796937 22.7292 0.950678 22.6216 1.06673L18.7415 4.98171C18.6272 5.09575 18.473 5.15988 18.3122 5.16027Z" fill="#1F9055"/>
<path d="M23.3529 4.74055C23.2248 4.74055 23.1 4.69959 22.9964 4.62355C22.8927 4.54751 22.8157 4.4403 22.7762 4.31731L21.6718 0.822256C21.6437 0.744863 21.6314 0.662534 21.6356 0.580215C21.6398 0.497895 21.6604 0.417283 21.6963 0.343219C21.7321 0.269154 21.7825 0.203166 21.8442 0.149217C21.906 0.0952681 21.9779 0.0544709 22.0557 0.0292758C22.1335 0.00408071 22.2155 -0.00499219 22.2969 0.00260122C22.3782 0.0101946 22.4572 0.0342978 22.5291 0.0734638C22.601 0.11263 22.6643 0.166051 22.7152 0.230517C22.7661 0.294984 22.8035 0.369167 22.8253 0.448612L23.933 3.94366C23.9825 4.09801 23.9693 4.26589 23.8961 4.41037C23.823 4.55486 23.696 4.66411 23.543 4.7141C23.4814 4.73293 23.4173 4.74186 23.3529 4.74055Z" fill="#1F9055"/>
<path d="M19.4194 8.73831C19.2909 8.73809 19.1658 8.69665 19.0621 8.61998C18.9584 8.5433 18.8816 8.43537 18.8427 8.31176L17.7383 4.81671C17.7088 4.73892 17.6953 4.65587 17.6988 4.57265C17.7022 4.48943 17.7224 4.40779 17.7582 4.33274C17.794 4.25769 17.8446 4.19081 17.907 4.13619C17.9693 4.08158 18.042 4.04038 18.1207 4.01512C18.1993 3.98987 18.2823 3.98109 18.3644 3.98932C18.4466 3.99756 18.5262 4.02263 18.5984 4.06301C18.6706 4.10339 18.7339 4.15822 18.7843 4.22414C18.8348 4.29006 18.8714 4.36568 18.8918 4.44637L19.9995 7.94142C20.0239 8.01784 20.0331 8.09837 20.0265 8.17838C20.0199 8.25839 19.9977 8.3363 19.9611 8.40761C19.9246 8.47892 19.8744 8.54222 19.8135 8.59387C19.7526 8.64552 19.6821 8.6845 19.6062 8.70855C19.546 8.72871 19.4829 8.73877 19.4194 8.73831Z" fill="#1F9055"/>
<path d="M12.0235 23.157C10.6222 23.157 9.2524 22.7378 8.08727 21.9522C6.92215 21.1667 6.01404 20.0502 5.47779 18.7439C4.94155 17.4377 4.80124 16.0003 5.07462 14.6135C5.34799 13.2268 6.02277 11.953 7.01363 10.9532C8.00449 9.95344 9.26692 9.27258 10.6413 8.99674C12.0156 8.7209 13.4402 8.86247 14.7348 9.40355C16.0294 9.94463 17.136 10.8609 17.9145 12.0365C18.693 13.2121 19.1085 14.5943 19.1085 16.0082C19.1059 17.9034 18.3586 19.7202 17.0305 21.0603C15.7023 22.4004 13.9018 23.1544 12.0235 23.157ZM12.0235 10.0828C10.862 10.0828 9.72663 10.4303 8.76091 11.0814C7.79518 11.7325 7.04249 12.6579 6.59801 13.7407C6.15354 14.8234 6.03724 16.0148 6.26383 17.1642C6.49042 18.3136 7.04972 19.3694 7.87101 20.1981C8.69229 21.0268 9.73867 21.5911 10.8778 21.8197C12.017 22.0484 13.1977 21.931 14.2708 21.4825C15.3439 21.0341 16.261 20.2746 16.9063 19.3002C17.5516 18.3257 17.896 17.1801 17.896 16.0082C17.8943 14.4372 17.275 12.9311 16.1741 11.8203C15.0731 10.7094 13.5804 10.0846 12.0235 10.0828Z" fill="#1F9055"/>
<path d="M12.0236 28C9.66759 28.0281 7.3565 27.349 5.38397 26.0488C3.41143 24.7486 1.86649 22.8861 0.945478 20.6979C0.0244638 18.5097 -0.23105 16.0947 0.211407 13.7596C0.653863 11.4246 1.77432 9.27493 3.43038 7.5839C5.08645 5.89286 7.20337 4.73676 9.51214 4.26249C11.8209 3.78823 14.2173 4.01721 16.3968 4.92035C18.5763 5.82349 20.4405 7.36001 21.7525 9.33467C23.0645 11.3093 23.7651 13.633 23.7653 16.0103C23.7801 19.1701 22.5523 22.2069 20.3511 24.4546C18.1499 26.7022 15.1551 27.9772 12.0236 28ZM12.0236 5.24408C9.90743 5.21588 7.83078 5.82326 6.05765 6.98899C4.28452 8.15472 2.895 9.82615 2.06575 11.7908C1.23651 13.7554 1.005 15.9244 1.40065 18.0222C1.79631 20.1199 2.80126 22.0515 4.28774 23.5715C5.77422 25.0914 7.67508 26.131 9.74863 26.5581C11.8222 26.9851 13.9748 26.7804 15.9327 25.9699C17.8906 25.1593 19.5655 23.7796 20.7443 22.0062C21.9231 20.2328 22.5526 18.1457 22.5528 16.0103C22.5659 13.1761 21.465 10.4522 19.4914 8.4354C17.5178 6.41862 14.8324 5.27341 12.0236 5.25069V5.24408Z" fill="#1F9055"/>
<path d="M12.4528 16.1846C12.333 16.1842 12.216 16.148 12.1166 16.0805C12.0172 16.0131 11.9398 15.9174 11.8942 15.8056C11.8486 15.6938 11.8369 15.5709 11.8605 15.4524C11.8841 15.3339 11.942 15.2251 12.0268 15.1397L25.2399 1.80758C25.3549 1.69901 25.5073 1.63987 25.6648 1.64267C25.8223 1.64547 25.9725 1.70999 26.0836 1.82257C26.1948 1.93516 26.2581 2.08696 26.2603 2.24586C26.2625 2.40475 26.2033 2.55827 26.0953 2.6739L12.8821 16.006C12.8258 16.0629 12.7589 16.108 12.6852 16.1387C12.6115 16.1693 12.5325 16.1849 12.4528 16.1846Z" fill="#1F9055"/>
<path d="M23.5065 10.3193C23.3867 10.3189 23.2697 10.2827 23.1703 10.2153C23.0709 10.1478 22.9935 10.0521 22.9479 9.94035C22.9024 9.82856 22.8906 9.70564 22.9142 9.58713C22.9378 9.46861 22.9957 9.35981 23.0805 9.27445L26.9606 5.35947C27.0766 5.24502 27.2329 5.18177 27.3952 5.18363C27.5574 5.18549 27.7123 5.25231 27.8257 5.36939C27.9391 5.48646 28.0018 5.6442 28 5.80791C27.9981 5.97162 27.9319 6.12788 27.8159 6.24232L23.9358 10.1408C23.8795 10.1977 23.8126 10.2428 23.7389 10.2734C23.6652 10.3041 23.5862 10.3197 23.5065 10.3193Z" fill="#1F9055"/>
<path d="M23.3527 10.3C23.2938 10.3007 23.2351 10.2918 23.179 10.2736L19.7054 9.21877C19.6214 9.20445 19.5414 9.17246 19.4706 9.12488C19.3997 9.0773 19.3396 9.0152 19.2941 8.94261C19.2486 8.87003 19.2187 8.7886 19.2065 8.70361C19.1943 8.61862 19.1999 8.53198 19.223 8.44933C19.2462 8.36668 19.2863 8.28987 19.3408 8.22391C19.3953 8.15794 19.463 8.1043 19.5394 8.06646C19.6158 8.02863 19.6992 8.00745 19.7843 8.00431C19.8694 8.00118 19.9541 8.01614 20.0331 8.04825L23.5133 9.10304C23.6521 9.14563 23.7712 9.23706 23.849 9.36072C23.9267 9.48437 23.9579 9.63205 23.9368 9.77693C23.9158 9.92181 23.844 10.0543 23.7344 10.1503C23.6248 10.2462 23.4847 10.2994 23.3396 10.3H23.3527Z" fill="#1F9055"/>
<path d="M27.3671 6.30077C27.3083 6.29985 27.2499 6.29096 27.1934 6.27432L23.7099 5.21621C23.6315 5.19498 23.558 5.15805 23.494 5.10764C23.43 5.05722 23.3767 4.99434 23.3372 4.92272C23.2977 4.8511 23.2729 4.77221 23.2642 4.69073C23.2555 4.60925 23.2632 4.52684 23.2867 4.4484C23.3102 4.36996 23.3491 4.29708 23.401 4.23409C23.453 4.1711 23.5169 4.11928 23.5891 4.08172C23.6613 4.04416 23.7402 4.02161 23.8212 4.01542C23.9022 4.00923 23.9836 4.01952 24.0605 4.04568L27.5441 5.10379C27.6832 5.14646 27.8024 5.23816 27.8801 5.36216C27.9578 5.48616 27.9888 5.6342 27.9673 5.7793C27.9459 5.9244 27.8735 6.05689 27.7633 6.15261C27.6531 6.24834 27.5125 6.30092 27.3671 6.30077Z" fill="#1F9055"/>
</svg>
