<svg width="49" height="45" viewBox="0 0 49 45" fill="none" xmlns="http://www.w3.org/2000/svg">
<path d="M15.4732 33.1406H1.03251C0.415872 33.1406 0 33.5278 0 34.1301C0 34.7324 0.415872 35.1196 1.03251 35.1196H15.4732C16.0899 35.1196 16.5057 34.7324 16.5057 34.1301C16.5057 33.5278 16.0899 33.1406 15.4732 33.1406Z" fill="#1F9055"/>
<path d="M17.523 21.3525H3.08231C2.46568 21.3525 2.0498 21.7397 2.0498 22.342C2.0498 22.93 2.46568 23.3172 3.08231 23.3172H17.523C18.1397 23.3172 18.5555 22.93 18.5555 22.342C18.5555 21.7397 18.1397 21.3525 17.523 21.3525Z" fill="#1F9055"/>
<path d="M16.4905 27.2471H10.3099C9.69322 27.2471 9.27734 27.6343 9.27734 28.2366C9.27734 28.8245 9.69322 29.226 10.3099 29.226H16.4905C17.1072 29.226 17.523 28.8388 17.523 28.2366C17.523 27.6343 17.1215 27.2471 16.4905 27.2471Z" fill="#1F9055"/>
<path d="M34.962 12.5048L35.8797 3.04015C37.8587 4.99044 42.0891 9.2065 45.3874 12.5048H34.962ZM47.9543 12.1176C47.9113 12.0315 47.8252 11.9025 47.6962 11.7591C47.6962 11.7591 44.8568 8.91969 42.0031 6.08031C38.3033 2.39484 36.8836 0.975142 36.2096 0.430209L36.2382 0.401529C35.8367 -3.84638e-07 35.2775 0 35.1054 0H13.3224C12.1752 0 11.3147 0.86042 11.3147 2.00765L9.93806 18.499H12.0891L13.4658 2.15105H33.8577L32.8252 14.6558H46.0184L45.8606 16.8642C45.3874 22.7008 44.2258 33.8862 43.2937 42.8633H10.0241L10.44 37.9732H8.30326L7.87305 42.9923C7.87305 44.1396 8.73346 45 9.88069 45H43.4227C44.9715 45 45.4304 44.1539 45.5882 43.3939L45.6025 43.3222C45.6455 43.1071 45.6599 42.9063 45.6599 42.7342L48.3558 14.6415C48.4419 13.3652 48.3128 12.5335 47.9543 12.1176Z" fill="#1F9055"/>
</svg>
