<svg id="ad105feb-b657-42ae-9aaa-e014b9f250b4" data-name="Layer 1" xmlns="http://www.w3.org/2000/svg" xmlns:xlink="http://www.w3.org/1999/xlink" viewBox="0 0 17.04 16"><defs><clipPath id="afdcf00c-d0e4-4191-bb79-b2efec0584f3"><rect width="17.04" height="16" style="fill:none"/></clipPath></defs><g style="clip-path:url(#afdcf00c-d0e4-4191-bb79-b2efec0584f3)"><path d="M12.56,16a.709.709,0,0,1-.389-.116.795.795,0,0,1-.346-.632v-3.5l.566.3a3.5,3.5,0,0,0,3.146,0l.565-.3v3.5a.75.75,0,0,1-.346.631l-.1.065h-.077a.755.755,0,0,1-.216.034.506.506,0,0,1-.358-.116l-1.01-.5-1.074.533A.689.689,0,0,1,12.56,16Zm.035-3.024v2.232l1.4-.7,1.33.661v-2.2a4.382,4.382,0,0,1-2.736,0Z" style="fill:#fff"/><path d="M11.291,14.707H.735a.721.721,0,0,1-.287-.049A.712.712,0,0,1,.206,14.5.7.7,0,0,1,0,13.972V.729A.688.688,0,0,1,.048.446a.711.711,0,0,1,.4-.4A.708.708,0,0,1,.735,0H12.66a.713.713,0,0,1,.527.207.714.714,0,0,1,.159.24A.722.722,0,0,1,13.4.729V4.878l-.351.031a3.533,3.533,0,0,0-1.875.777,3.481,3.481,0,0,0-.016,5.383l.138.115ZM.768,13.942h9.753v-2.4a4.244,4.244,0,0,1,0-6.307,4.305,4.305,0,0,1,2.108-1.037V.764H.768Z" style="fill:#fff"/><path d="M7.223,10.176H2.4a.387.387,0,0,1-.288-.1.381.381,0,0,1,0-.558.377.377,0,0,1,.288-.1H7.223a.377.377,0,0,1,.288.1.381.381,0,0,1,0,.558.387.387,0,0,1-.288.1Zm0-2.767H2.4a.389.389,0,0,1-.155-.022.4.4,0,0,1-.133-.081.378.378,0,0,1-.09-.127.385.385,0,0,1-.032-.153.383.383,0,0,1,.122-.279.387.387,0,0,1,.288-.1H7.223a.387.387,0,0,1,.288.1.383.383,0,0,1,.122.279.385.385,0,0,1-.032.153.378.378,0,0,1-.09.127.4.4,0,0,1-.133.081A.389.389,0,0,1,7.223,7.409Zm2.04-2.832H2.4a.408.408,0,0,1-.155-.022.39.39,0,0,1-.133-.082.368.368,0,0,1-.09-.127.381.381,0,0,1,.09-.431.372.372,0,0,1,.133-.081A.389.389,0,0,1,2.4,3.812H9.263a.384.384,0,0,1,.154.022.376.376,0,0,1,.134.081.392.392,0,0,1,.09.127.381.381,0,0,1-.09.431.394.394,0,0,1-.134.082A.4.4,0,0,1,9.263,4.577Z" style="fill:#fff"/><path d="M13.963,11.6a3.075,3.075,0,0,1-2.842-1.888,3.044,3.044,0,0,1,.667-3.332,3.087,3.087,0,0,1,4.733.464,3.04,3.04,0,0,1-.383,3.86A3.092,3.092,0,0,1,13.963,11.6Zm0-5.352A2.313,2.313,0,0,0,11.83,7.668a2.286,2.286,0,0,0,.5,2.5,2.317,2.317,0,0,0,3.552-.348,2.281,2.281,0,0,0-.288-2.9A2.322,2.322,0,0,0,13.963,6.252Z" style="fill:#fff"/></g></svg>