<svg id="f8c2857b-0857-44e8-ba93-94e1084e8559" data-name="Layer 1" xmlns="http://www.w3.org/2000/svg" xmlns:xlink="http://www.w3.org/1999/xlink" viewBox="0 0 55.001 55.003"><defs><clipPath id="a2eb0614-60ff-4dd3-a38e-1f37c1928317" transform="translate(0.005 -0.005)"><rect width="55" height="55" style="fill:none"/></clipPath></defs><g style="clip-path:url(#a2eb0614-60ff-4dd3-a38e-1f37c1928317)"><path d="M32.191,49H22.8a2.1,2.1,0,0,1-.89-.159,2.164,2.164,0,0,1-1.229-1.26,2.111,2.111,0,0,1-.159-.9v-4a16.854,16.854,0,0,1-7.184-23.663,16.407,16.407,0,0,1,14.667-8.214,16.135,16.135,0,0,1,8.3,2.6,16.635,16.635,0,0,1,5.845,6.516,16.992,16.992,0,0,1-1.089,16.987,16.484,16.484,0,0,1-6.584,5.716v4a2.38,2.38,0,0,1-.15.919,2.152,2.152,0,0,1-.489.77,2.011,2.011,0,0,1-.75.51,2.137,2.137,0,0,1-.9.179Z" transform="translate(0.005 -0.005)" style="fill:#d2e8dd"/><path d="M27.505,13.031a14.091,14.091,0,0,0-8.992,3.327,14.619,14.619,0,0,0-3.537,17.987A14.316,14.316,0,0,0,22.01,40.85l.669.29v5.636H32.27V41.16l.68-.28a14.321,14.321,0,0,0,7.093-6.545,14.569,14.569,0,0,0-3.537-17.987,14.129,14.129,0,0,0-8.991-3.268Z" transform="translate(0.005 -0.005)" style="fill:#d2e8dd"/><path d="M53.352,26.311H48.636a1.116,1.116,0,0,0-.479.07,1.153,1.153,0,0,0-.41.25,1.269,1.269,0,0,0-.28.4,1.214,1.214,0,0,0-.1.49,1.261,1.261,0,0,0,.1.5,1.212,1.212,0,0,0,.28.389,1.048,1.048,0,0,0,.41.26,1.116,1.116,0,0,0,.479.07h4.716a1.149,1.149,0,0,0,.479-.07.992.992,0,0,0,.41-.26,1.227,1.227,0,0,0,.28-.389,1.261,1.261,0,0,0,.1-.5,1.214,1.214,0,0,0-.1-.49,1.269,1.269,0,0,0-.28-.4,1.2,1.2,0,0,0-.412-.251A1.21,1.21,0,0,0,53.352,26.311Z" transform="translate(0.005 -0.005)" style="fill:#1f9055;stroke:#1f9055;stroke-miterlimit:10;stroke-width:0.75px"/><path d="M32.27,54.63H22.739a1.562,1.562,0,0,1-.44-.06,1.288,1.288,0,0,1-.389-.239,1.41,1.41,0,0,1-.26-.38,1.285,1.285,0,0,1,0-.89,1.076,1.076,0,0,1,.26-.369,1.271,1.271,0,0,1,.389-.24.932.932,0,0,1,.44-.06H32.27a1,1,0,0,1,.45.06,1.288,1.288,0,0,1,.39.24.94.94,0,0,1,.249.369,1.145,1.145,0,0,1,0,.89,1.2,1.2,0,0,1-.249.38,1.305,1.305,0,0,1-.39.239,1.126,1.126,0,0,1-.45.06Z" transform="translate(0.005 -0.005)" style="fill:#1f9055;stroke:#1f9055;stroke-miterlimit:10;stroke-width:0.75px"/><path d="M32.191,49H22.8a2.1,2.1,0,0,1-.89-.159,2.164,2.164,0,0,1-1.229-1.26,2.111,2.111,0,0,1-.159-.9v-4a16.854,16.854,0,0,1-7.184-23.663,16.407,16.407,0,0,1,14.667-8.214,16.135,16.135,0,0,1,8.3,2.6,16.635,16.635,0,0,1,5.845,6.516,16.992,16.992,0,0,1-1.089,16.987,16.484,16.484,0,0,1-6.584,5.716v4a2.38,2.38,0,0,1-.15.919,2.152,2.152,0,0,1-.489.77,2.011,2.011,0,0,1-.75.51,2.137,2.137,0,0,1-.9.179ZM27.505,13.031a14.089,14.089,0,0,0-8.991,3.327,14.619,14.619,0,0,0-3.537,17.987A14.318,14.318,0,0,0,22.01,40.85l.67.29v5.636h9.591V41.16l.679-.28a14.319,14.319,0,0,0,7.094-6.545,14.572,14.572,0,0,0-3.537-17.987,14.131,14.131,0,0,0-8.992-3.268Z" transform="translate(0.005 -0.005)" style="fill:#1f9055;stroke:#1f9055;stroke-miterlimit:10;stroke-width:0.75px"/><path d="M6.405,26.311H1.639a1.154,1.154,0,0,0-.48.07,1.158,1.158,0,0,0-.409.25,1.237,1.237,0,0,0-.28.4,1.277,1.277,0,0,0-.1.48,1.321,1.321,0,0,0,.1.48,1.2,1.2,0,0,0,.28.389,1,1,0,0,0,.409.26,1.154,1.154,0,0,0,.48.07H6.375a1.164,1.164,0,0,0,.489-.07,1,1,0,0,0,.4-.26,1.078,1.078,0,0,0,.28-.359,1.341,1.341,0,0,0,.1-.48,1.522,1.522,0,0,0-.1-.48,1.269,1.269,0,0,0-.28-.4,1.162,1.162,0,0,0-.41-.25,1.118,1.118,0,0,0-.479-.07" transform="translate(0.005 -0.005)" style="fill:#1f9055"/><path d="M6.405,26.311H1.639a1.154,1.154,0,0,0-.48.07,1.158,1.158,0,0,0-.409.25,1.237,1.237,0,0,0-.28.4,1.277,1.277,0,0,0-.1.48,1.321,1.321,0,0,0,.1.48,1.2,1.2,0,0,0,.28.389,1,1,0,0,0,.409.26,1.154,1.154,0,0,0,.48.07H6.375a1.164,1.164,0,0,0,.489-.07,1,1,0,0,0,.4-.26,1.078,1.078,0,0,0,.28-.359,1.341,1.341,0,0,0,.1-.48,1.522,1.522,0,0,0-.1-.48,1.269,1.269,0,0,0-.28-.4,1.162,1.162,0,0,0-.41-.25,1.118,1.118,0,0,0-.479-.07" transform="translate(0.005 -0.005)" style="fill:none;stroke:#1f9055;stroke-miterlimit:10;stroke-width:0.75px"/><path d="M26.326,1.579V6.4a1.232,1.232,0,0,0,.35.849,1.435,1.435,0,0,0,.38.27,1.295,1.295,0,0,0,.949,0,1.318,1.318,0,0,0,.379-.27,1.227,1.227,0,0,0,.35-.849V1.579a1.127,1.127,0,0,0-.09-.45,1.187,1.187,0,0,0-.26-.4,1.231,1.231,0,0,0-.379-.26,1.193,1.193,0,0,0-.909,0,1.224,1.224,0,0,0-.38.26,1.187,1.187,0,0,0-.26.4,1.144,1.144,0,0,0-.09.45" transform="translate(0.005 -0.005)" style="fill:#1f9055"/><path d="M26.326,1.579V6.4a1.232,1.232,0,0,0,.35.849,1.435,1.435,0,0,0,.38.27,1.295,1.295,0,0,0,.949,0,1.318,1.318,0,0,0,.379-.27,1.227,1.227,0,0,0,.35-.849V1.579a1.127,1.127,0,0,0-.09-.45,1.187,1.187,0,0,0-.26-.4,1.231,1.231,0,0,0-.379-.26,1.193,1.193,0,0,0-.909,0,1.224,1.224,0,0,0-.38.26,1.187,1.187,0,0,0-.26.4,1.144,1.144,0,0,0-.09.45" transform="translate(0.005 -0.005)" style="fill:none;stroke:#1f9055;stroke-miterlimit:10;stroke-width:0.75px"/><path d="M45.609,7.894l-3.337,3.4a1.2,1.2,0,0,0,.849,2,1.124,1.124,0,0,0,.869-.259l3.337-3.378a1.275,1.275,0,0,0,.29-.4,1,1,0,0,0,.11-.469,1.14,1.14,0,0,0-.08-.48,1.219,1.219,0,0,0-.27-.41,1.165,1.165,0,0,0-.39-.31.993.993,0,0,0-.469-.089,1.236,1.236,0,0,0-.859.4" transform="translate(0.005 -0.005)" style="fill:#1f9055"/><path d="M45.609,7.894l-3.337,3.4a1.2,1.2,0,0,0,.849,2,1.124,1.124,0,0,0,.869-.259l3.337-3.378a1.275,1.275,0,0,0,.29-.4,1,1,0,0,0,.11-.469,1.14,1.14,0,0,0-.08-.48,1.219,1.219,0,0,0-.27-.41,1.165,1.165,0,0,0-.39-.31.993.993,0,0,0-.469-.089,1.236,1.236,0,0,0-.859.4" transform="translate(0.005 -0.005)" style="fill:none;stroke:#1f9055;stroke-miterlimit:10;stroke-width:0.75px"/><path d="M9.4,7.894l3.347,3.4a1.173,1.173,0,0,1,.28.829A1.2,1.2,0,0,1,11.9,13.28a1.077,1.077,0,0,1-.439-.07,1.143,1.143,0,0,1-.38-.229L7.743,9.6a1.176,1.176,0,0,1-.29-.4,1,1,0,0,1-.11-.469,1.14,1.14,0,0,1,.08-.48,1.386,1.386,0,0,1,.26-.41,1.2,1.2,0,0,1,.4-.26A.892.892,0,0,1,8.532,7.5a1.3,1.3,0,0,1,.49.119,1,1,0,0,1,.379.28" transform="translate(0.005 -0.005)" style="fill:#1f9055"/><path d="M9.4,7.894l3.347,3.4a1.173,1.173,0,0,1,.28.829A1.2,1.2,0,0,1,11.9,13.28a1.077,1.077,0,0,1-.439-.07,1.143,1.143,0,0,1-.38-.229L7.743,9.6a1.176,1.176,0,0,1-.29-.4,1,1,0,0,1-.11-.469,1.14,1.14,0,0,1,.08-.48,1.386,1.386,0,0,1,.26-.41,1.2,1.2,0,0,1,.4-.26A.892.892,0,0,1,8.532,7.5a1.3,1.3,0,0,1,.49.119,1,1,0,0,1,.379.28" transform="translate(0.005 -0.005)" style="fill:none;stroke:#1f9055;stroke-miterlimit:10;stroke-width:0.75px"/></g></svg>