<svg width="59" height="45" viewBox="0 0 59 45" fill="none" xmlns="http://www.w3.org/2000/svg">
<path d="M47.0848 25.0026C42.5041 25.0026 39.0669 23.0207 38.3001 20.0016H55.8628C55.1027 23.0009 51.6655 25.0026 47.0848 25.0026ZM44.7911 3.75661L54.7193 17.5044H38.8113L44.7911 3.75661ZM19.7218 17.5044H3.69279L13.6142 3.75661L19.7218 17.5044ZM11.4349 25.0026C6.8542 25.0026 3.41701 23.0207 2.6502 20.0016H20.233C19.5066 23.0009 16.0357 25.0026 11.4349 25.0026ZM58.4121 18.1254C58.4121 18.0921 58.3986 18.0602 58.3746 18.0366C58.3507 18.0131 58.3182 17.9999 58.2843 17.9999L45.5579 0.506291C45.4301 0.380771 45.3023 0.12973 45.0669 0.00420942H13.9976C13.8175 -0.0145732 13.6364 0.0298942 13.4864 0.12973C13.2551 0.238634 13.0747 0.429975 12.982 0.664844L0.255603 18.1254C0.255603 18.1587 0.242139 18.1906 0.218171 18.2142C0.194204 18.2377 0.161697 18.2509 0.127802 18.2509C0.127802 18.2842 0.114337 18.3161 0.0903694 18.3397C0.066402 18.3632 0.0338951 18.3764 0 18.3764L0 18.753C0 23.8729 4.70848 27.4998 11.4349 27.4998C18.1613 27.4998 22.8698 23.8729 22.8698 18.753C22.8889 18.5761 22.8436 18.3982 22.742 18.2509L15.9079 2.50141H28.0155V42.4962H16.5806C16.2585 42.5192 15.9573 42.6611 15.7374 42.8933C15.5175 43.1256 15.3952 43.4309 15.3952 43.7481C15.3952 44.0652 15.5175 44.3706 15.7374 44.6029C15.9573 44.8351 16.2585 44.977 16.5806 45H41.9929C42.315 44.977 42.6163 44.8351 42.8362 44.6029C43.0561 44.3706 43.1783 44.0652 43.1783 43.7481C43.1783 43.4309 43.0561 43.1256 42.8362 42.8933C42.6163 42.6611 42.315 42.5192 41.9929 42.4962H30.558V2.50141H42.6656L35.7576 18.2509C35.6559 18.3982 35.6106 18.5761 35.6298 18.753C35.6298 23.8729 40.3382 27.4998 47.0646 27.4998C53.791 27.4998 58.4995 23.8729 58.4995 18.753C58.505 18.5781 58.4632 18.4048 58.3784 18.2509L58.4121 18.1254Z" fill="#1F9055"/>
</svg>
