<svg width="45" height="45" viewBox="0 0 45 45" fill="none" xmlns="http://www.w3.org/2000/svg">
<g clip-path="url(#clip0)">
<path d="M32.6737 44.5119C29.8367 44.5119 27.0976 43.4382 24.9454 41.6811C22.7932 39.8265 21.4237 37.2885 21.0324 34.4577L20.9345 34.3601L8.99976 41.0954C8.70628 41.2907 8.31498 41.3883 8.0215 41.2907C7.6302 41.2907 7.33672 41.1931 6.94541 40.9978C6.55411 40.8026 6.26063 40.5098 6.06498 40.1193C5.86933 39.7289 5.86933 39.3384 5.96715 38.9479L9.48889 25.3796L1.07585 16.5944C0.782371 16.3015 0.684545 16.0087 0.586718 15.6182C0.488892 15.2278 0.488892 14.9349 0.684544 14.5445C0.782371 14.154 1.07585 13.7636 1.36933 13.5683C1.76063 13.2755 2.15194 13.1779 2.54324 13.1779H13.8911L19.1737 1.75705C19.3693 1.3666 19.565 1.07376 19.9563 0.878527C20.2498 0.6833 20.6411 0.585686 21.0324 0.585686C21.4237 0.585686 21.815 0.6833 22.1085 0.878527C22.4019 1.07376 22.6954 1.3666 22.8911 1.75705L28.1737 13.1779H39.5215C39.9128 13.1779 40.3041 13.2755 40.5976 13.4707C40.8911 13.6659 41.1845 13.9588 41.3802 14.2516C41.5759 14.6421 41.6737 15.0325 41.5759 15.423C41.478 15.8135 41.2824 16.2039 40.9889 16.4967L36.1954 21.3774C38.9345 22.1584 41.2824 23.9154 42.7498 26.3558C44.315 28.6985 44.9019 31.6269 44.5106 34.3601C44.1193 37.1909 42.6519 39.7289 40.4998 41.5835C38.3476 43.4382 35.5106 44.5119 32.6737 44.5119ZM20.8367 32.0174L22.8911 33.1887L22.9889 33.7744C23.1845 35.6291 23.8693 37.2885 25.0432 38.7527C26.2172 40.2169 27.6845 41.2907 29.4454 41.8764C31.2063 42.462 33.065 42.6573 34.8259 42.2668C36.5867 41.8764 38.2498 40.9978 39.5215 39.7289C40.7932 38.4599 41.7715 36.8004 42.1628 35.0434C42.5541 33.2863 42.5541 31.4317 41.9672 29.6746C41.3802 27.9176 40.3041 26.4534 38.9345 25.282C37.565 24.1106 35.8041 23.4273 33.9454 23.1345L31.8911 22.8417L39.3259 15.2278H26.7063L20.9345 2.73319L15.1628 15.2278H2.64107L11.7389 24.6963L8.0215 39.2408L20.8367 32.0174Z" fill="#1F9055" stroke="#1F9055" stroke-width="0.75" stroke-miterlimit="10"/>
<path d="M32.6738 44.4143C30.326 44.4143 28.076 43.731 26.1195 42.462C24.1629 41.1931 22.6955 39.3384 21.7173 37.1909C20.8369 35.0434 20.5434 32.7007 21.0325 30.3579C21.5216 28.1128 22.5977 25.9653 24.2608 24.3059C25.9238 22.6464 27.9782 21.5727 30.326 21.0846C32.576 20.5965 35.0216 20.8894 37.1738 21.7679C39.326 22.6464 41.1847 24.2082 42.4564 26.0629C43.7282 28.0152 44.4129 30.2603 44.4129 32.603C44.4129 35.7267 43.1412 38.7527 40.989 40.9002C38.8369 43.243 35.8042 44.4143 32.6738 44.4143ZM32.6738 22.9393C30.7173 22.9393 28.8586 23.5249 27.2934 24.5987C25.7282 25.6725 24.4564 27.1367 23.6738 28.9913C22.8912 30.7484 22.6955 32.7007 23.0869 34.5553C23.4782 36.41 24.3586 38.167 25.7282 39.5336C27.0977 40.9002 28.8586 41.7787 30.7173 42.1692C32.576 42.5597 34.5325 42.3644 36.3912 41.5835C38.1521 40.8026 39.7173 39.6312 40.7934 37.9718C41.8695 36.41 42.4564 34.4577 42.4564 32.603C42.4564 30.0651 41.3803 27.5271 39.6195 25.7701C37.7608 24.013 35.2173 22.9393 32.6738 22.9393Z" fill="#1F9055" stroke="#1F9055" stroke-width="0.75" stroke-miterlimit="10"/>
<path d="M32.6736 37.8742C32.5757 37.8742 32.3801 37.8742 32.2823 37.7766C32.1844 37.679 32.0866 37.679 31.9888 37.4837C31.891 37.3861 31.7931 37.2885 31.7931 37.0933C31.6953 36.9957 31.6953 36.8004 31.6953 36.6052V28.5033C31.6953 28.2104 31.7931 27.9176 31.9888 27.7223C32.1844 27.5271 32.4779 27.4295 32.6736 27.4295C32.8692 27.4295 33.2605 27.5271 33.3584 27.7223C33.554 27.9176 33.6518 28.2104 33.6518 28.5033V36.6052C33.6518 36.898 33.554 37.1909 33.3584 37.3861C33.1627 37.7766 32.9671 37.8742 32.6736 37.8742Z" fill="#1F9055" stroke="#1F9055" stroke-width="0.75" stroke-miterlimit="10"/>
<path d="M36.6847 33.6768H28.663C28.3695 33.6768 28.076 33.5792 27.8804 33.384C27.6847 33.1887 27.5869 32.8959 27.5869 32.7007C27.5869 32.5054 27.6847 32.2126 27.8804 32.0174C28.076 31.8221 28.3695 31.7245 28.663 31.7245H36.6847C36.9782 31.7245 37.2717 31.8221 37.4673 32.0174C37.663 32.2126 37.7608 32.5054 37.7608 32.7007C37.7608 32.8959 37.663 33.1887 37.4673 33.384C37.2717 33.5792 36.9782 33.6768 36.6847 33.6768Z" fill="#1F9055" stroke="#1F9055" stroke-width="0.75" stroke-miterlimit="10"/>
</g>
<defs>
<clipPath id="clip0">
<rect width="45" height="45" fill="white"/>
</clipPath>
</defs>
</svg>
