<svg width="45" height="45" viewBox="0 0 45 45" fill="none" xmlns="http://www.w3.org/2000/svg">
<path d="M32.6702 44.51C29.8657 44.4688 27.1594 43.4703 25.0002 41.68C22.8194 39.8512 21.3942 37.2787 21.0002 34.46L20.9002 34.36L9.00024 41.1C8.85706 41.2018 8.69359 41.2715 8.521 41.3043C8.34841 41.3371 8.17077 41.3322 8.00024 41.29C7.64894 41.2721 7.3066 41.1728 7.00024 41C6.61706 40.8094 6.30512 40.501 6.11024 40.12C5.94262 39.7713 5.90365 39.3746 6.00024 39L9.49024 25.38L1.08024 16.59C0.811768 16.3193 0.639614 15.968 0.590237 15.59C0.533264 15.4129 0.511885 15.2264 0.527332 15.041C0.542778 14.8557 0.594744 14.6752 0.680237 14.51C0.786621 14.1064 1.03069 13.7527 1.37024 13.51C1.70566 13.2528 2.1176 13.1155 2.54024 13.12H13.8902L19.1702 1.76C19.3335 1.37733 19.6278 1.06535 20.0002 0.88C20.3003 0.69259 20.6465 0.592193 21.0002 0.59C21.3809 0.578566 21.7565 0.679424 22.0802 0.88C22.4136 1.099 22.6828 1.40271 22.8602 1.76L28.1402 13.18H39.5202C39.9002 13.1747 40.2741 13.2751 40.6002 13.47C40.9033 13.683 41.1672 13.9469 41.3802 14.25C41.5853 14.6033 41.6563 15.0186 41.5802 15.42C41.482 15.8235 41.2823 16.1952 41.0002 16.5L36.2002 21.38C38.9387 22.1556 41.2801 23.9429 42.7502 26.38C44.2897 28.7533 44.9105 31.6066 44.4962 34.405C44.082 37.2033 42.6612 39.7545 40.5002 41.58C38.3204 43.4544 35.5451 44.4929 32.6702 44.51V44.51Z" fill="#D2E8DD" stroke="#1F9055" stroke-width="0.75" stroke-miterlimit="10"/>
<path d="M20.8396 32L22.8896 33.17L22.9896 33.75C23.19 35.5741 23.9032 37.3041 25.0466 38.7394C26.1899 40.1748 27.7166 41.2568 29.4496 41.86C31.1755 42.4704 33.0338 42.6051 34.8297 42.25C36.6015 41.8633 38.2276 40.9827 39.5196 39.71C40.8246 38.4192 41.7396 36.7868 42.1596 35C42.5843 33.241 42.529 31.4003 41.9996 29.67C41.4141 27.9628 40.3775 26.4458 38.9996 25.28C37.5611 24.1193 35.8317 23.3756 33.9996 23.13L31.9396 22.84L39.3797 15.23H26.7096L20.9296 2.73L15.1596 15.23H2.63965L11.7396 24.7L7.99965 39.24L20.8396 32Z" fill="#D2E8DD" stroke="#1F9055" stroke-width="0.75" stroke-miterlimit="10"/>
<path d="M32.6702 44.51C29.8657 44.4688 27.1594 43.4703 25.0002 41.68C22.8194 39.8512 21.3942 37.2787 21.0002 34.46L20.9002 34.36L9.00024 41.1C8.85706 41.2018 8.69359 41.2715 8.521 41.3043C8.34841 41.3371 8.17077 41.3322 8.00024 41.29C7.64894 41.2721 7.3066 41.1728 7.00024 41C6.61706 40.8094 6.30512 40.501 6.11024 40.12C5.94262 39.7713 5.90365 39.3746 6.00024 39L9.49024 25.38L1.08024 16.59C0.811768 16.3193 0.639614 15.968 0.590237 15.59C0.533264 15.4129 0.511885 15.2264 0.527332 15.041C0.542778 14.8557 0.594744 14.6752 0.680237 14.51C0.786621 14.1064 1.03069 13.7527 1.37024 13.51C1.70566 13.2528 2.1176 13.1155 2.54024 13.12H13.8902L19.1702 1.76C19.3335 1.37733 19.6278 1.06535 20.0002 0.88C20.3003 0.69259 20.6465 0.592193 21.0002 0.59C21.3809 0.578566 21.7565 0.679424 22.0802 0.88C22.4136 1.099 22.6828 1.40271 22.8602 1.76L28.1402 13.18H39.5202C39.9002 13.1747 40.2741 13.2751 40.6002 13.47C40.9033 13.683 41.1672 13.9469 41.3802 14.25C41.5853 14.6033 41.6563 15.0186 41.5802 15.42C41.482 15.8235 41.2823 16.1952 41.0002 16.5L36.2002 21.38C38.9387 22.1556 41.2801 23.9429 42.7502 26.38C44.2897 28.7533 44.9105 31.6066 44.4962 34.405C44.082 37.2033 42.6612 39.7545 40.5002 41.58C38.3204 43.4544 35.5451 44.4929 32.6702 44.51V44.51ZM20.8402 32L22.8902 33.17L22.9902 33.75C23.1906 35.5741 23.9038 37.3041 25.0472 38.7394C26.1905 40.1748 27.7172 41.2568 29.4502 41.86C31.1761 42.4704 33.0344 42.6051 34.8302 42.25C36.6021 41.8633 38.2282 40.9827 39.5202 39.71C40.8252 38.4192 41.7402 36.7868 42.1602 35C42.5848 33.241 42.5296 31.4003 42.0002 29.67C41.4147 27.9628 40.3781 26.4458 39.0002 25.28C37.5617 24.1193 35.8322 23.3756 34.0002 23.13L31.9402 22.84L39.3802 15.23H26.7102L20.9302 2.73L15.1602 15.23H2.64024L11.7402 24.7L8.00024 39.24L20.8402 32Z" fill="#1F9055" stroke="#1F9055" stroke-width="0.75" stroke-miterlimit="10"/>
<path d="M32.6704 44.41C30.3442 44.4086 28.0686 43.7311 26.1204 42.46C24.1788 41.1616 22.6514 39.3322 21.7204 37.19C20.7978 35.0379 20.5468 32.6572 21.0004 30.36C21.477 28.0762 22.5979 25.9767 24.2304 24.31C25.8891 22.6561 28.0014 21.5318 30.2997 21.0796C32.598 20.6274 34.9788 20.8677 37.1404 21.77C39.3032 22.6313 41.1549 24.1265 42.4523 26.0593C43.7498 27.9921 44.4324 30.2722 44.4104 32.6C44.4089 35.7073 43.1839 38.6891 41.0004 40.9C39.9324 42.0322 38.64 42.9292 37.2056 43.5336C35.7713 44.1379 34.2267 44.4364 32.6704 44.41V44.41ZM32.6704 22.94C30.7501 22.9338 28.8734 23.5129 27.2904 24.6C25.6865 25.6889 24.4298 27.2163 23.6704 29C22.8977 30.7499 22.6948 32.6985 23.0904 34.57C23.4548 36.4563 24.3767 38.1899 25.7369 39.5466C27.0972 40.9033 28.8332 41.8206 30.7204 42.18C32.6263 42.5671 34.6051 42.3612 36.3904 41.59C38.1771 40.8502 39.7071 39.6019 40.7904 38C41.8696 36.4163 42.4511 34.5464 42.4604 32.63C42.436 30.0711 41.4176 27.6219 39.6204 25.8C37.7478 24.0037 35.265 22.982 32.6704 22.94Z" fill="#1F9055" stroke="#1F9055" stroke-width="0.75" stroke-miterlimit="10"/>
<path d="M32.6698 37.87C32.5335 37.8825 32.3968 37.8509 32.2798 37.78C32.1798 37.68 32.0898 37.68 31.9898 37.48C31.9279 37.4355 31.8774 37.377 31.8427 37.3092C31.8079 37.2413 31.7898 37.1662 31.7898 37.09C31.6998 37 31.6998 36.8 31.6998 36.61V28.5C31.6906 28.2121 31.7947 27.932 31.9898 27.72C32.1748 27.5456 32.4159 27.4428 32.6698 27.43C32.8698 27.43 33.2598 27.53 33.3598 27.72C33.5513 27.9342 33.6549 28.2127 33.6498 28.5V36.61C33.6549 36.8973 33.5513 37.1758 33.3598 37.39C33.1598 37.78 32.9998 37.87 32.6698 37.87Z" fill="#1F9055" stroke="#1F9055" stroke-width="0.75" stroke-miterlimit="10"/>
<path d="M36.6804 33.68H28.6804C28.391 33.6865 28.1108 33.5787 27.9004 33.38C27.7204 33.1987 27.6166 32.9554 27.6104 32.7C27.6166 32.4446 27.7204 32.2013 27.9004 32.02C28.1108 31.8213 28.391 31.7135 28.6804 31.72H36.6804C36.9729 31.7119 37.2569 31.8198 37.4704 32.02C37.6447 32.205 37.7475 32.4461 37.7603 32.7C37.7541 32.9554 37.6503 33.1987 37.4704 33.38C37.2569 33.5802 36.9729 33.6881 36.6804 33.68Z" fill="#1F9055" stroke="#1F9055" stroke-width="0.75" stroke-miterlimit="10"/>
</svg>
