<svg width="45" height="45" id="b2675d70-965c-4625-b1c0-be604a9fd173" data-name="Layer 1" xmlns="http://www.w3.org/2000/svg" viewBox="0 0 45 45"><path d="M42.5,2l-7-.5h-1l-1,1L23,13l-6.5,6.5h-4l-4,.5-3,2L3,24.5l-1.5,3-.5,3,.5,5,1.5,3L6,42l4.5,2,6.5-.5L22.5,40l3-6V28.5l3.5-4v-6h6l.5-5.5,5.5-.5,2.5-3Z" style="fill:#d2e8dd"/><path d="M43.025.829,35.229,0a1.182,1.182,0,0,0-.823.308L16.147,18.576a13.337,13.337,0,0,0-12.209,22.5A13.064,13.064,0,0,0,13.37,45a13.3,13.3,0,0,0,10.407-5.006A13.465,13.465,0,0,0,26.4,28.7l3.72-3.716a.941.941,0,0,0,.306-.724V19.405h4.828a1.094,1.094,0,0,0,1.025-1.032V13.522h4.823a.923.923,0,0,0,.391-.077.909.909,0,0,0,.323-.236l2.875-2.886A1.2,1.2,0,0,0,45,9.494L43.974,1.756a1.1,1.1,0,0,0-.308-.617,1.087,1.087,0,0,0-.614-.31ZM40.483,11.662H35.126a.925.925,0,0,0-.395.076.938.938,0,0,0-.325.236.923.923,0,0,0-.306.719v4.868H29.278a.965.965,0,0,0-.745.283.972.972,0,0,0-.281.749V23.96l-3.818,3.715a1,1,0,0,0-.311,1.021,11.493,11.493,0,0,1-2.87,10.937,11.356,11.356,0,1,1-7.981-19.4,9.3,9.3,0,0,1,2.875.412,1.025,1.025,0,0,0,1.02-.308L35.431,2.064l6.547.724.714,6.585Z" style="fill:#1f9055"/><circle cx="11" cy="32" r="3.25" style="fill:#fff;stroke:#1f9055;stroke-width:1.5px"/></svg>