<svg width="45" height="45" viewBox="0 0 45 45" fill="none" xmlns="http://www.w3.org/2000/svg">
<path d="M43.0249 0.829016L35.2294 0.000373612C34.9258 -0.00727456 34.6309 0.102748 34.4056 0.307686L16.1471 18.5763C13.9566 18.1128 11.6863 18.2003 9.53754 18.8312C7.38879 19.462 5.42804 20.6167 3.82927 22.1926C1.35692 24.7125 -0.0202316 28.1165 0.000224678 31.657C0.020681 35.1974 1.43707 38.585 3.93837 41.0758C5.16927 42.3319 6.63842 43.3264 8.25865 44.0004C9.87887 44.6744 11.6172 45.0142 13.3704 44.9995C15.3669 45.0026 17.3385 44.5544 19.1397 43.6881C20.9409 42.8217 22.5256 41.5593 23.7766 39.9942C25.0277 38.429 25.9133 36.6011 26.3678 34.6455C26.8224 32.6899 26.8344 30.6565 26.4029 28.6956L30.1233 24.9804C30.2233 24.8891 30.3024 24.777 30.3552 24.652C30.4079 24.5269 30.433 24.3918 30.4288 24.256V19.4049H35.2567C35.5236 19.3892 35.7755 19.2755 35.9645 19.0853C36.1536 18.8951 36.2666 18.6417 36.2822 18.3732V13.5221H41.1046C41.2392 13.5252 41.3728 13.4989 41.4962 13.4449C41.6196 13.3908 41.7298 13.3105 41.8193 13.2093L44.6941 10.3227C44.8979 10.0962 45.0072 9.79951 44.9996 9.4941L43.9741 1.75644C43.9401 1.52261 43.8321 1.30605 43.6659 1.13896C43.4998 0.971866 43.2846 0.863163 43.0521 0.829016H43.0249ZM40.4827 11.6617H35.1257C34.9903 11.6578 34.8556 11.6838 34.7312 11.7378C34.6068 11.7918 34.4957 11.8726 34.4056 11.9745C34.3052 12.0643 34.2257 12.1753 34.1729 12.2996C34.1201 12.4239 34.0952 12.5584 34.1002 12.6934V17.561H29.2778C29.1408 17.5522 29.0035 17.5728 28.8751 17.6215C28.7467 17.6702 28.63 17.7459 28.533 17.8435C28.4359 17.9411 28.3607 18.0585 28.3123 18.1877C28.2639 18.3168 28.2434 18.4549 28.2522 18.5927V23.9597L24.4335 27.6749C24.2916 27.7984 24.1871 27.9597 24.1321 28.1402C24.0771 28.3208 24.0738 28.5132 24.1226 28.6956C24.6269 30.6125 24.6276 32.6283 24.1246 34.5455C23.6216 36.4627 22.6321 38.2157 21.2532 39.6326C19.1214 41.7499 16.2462 42.9372 13.2504 42.9372C10.2546 42.9372 7.37942 41.7499 5.24762 39.6326C3.65894 38.0432 2.57643 36.0142 2.13797 33.8038C1.69951 31.5935 1.92493 29.3019 2.78552 27.2209C3.64611 25.1398 5.10293 23.3636 6.97045 22.1183C8.83798 20.8729 11.0317 20.2149 13.2722 20.2281C14.2459 20.2142 15.2159 20.353 16.1471 20.6396C16.3288 20.6866 16.5199 20.6829 16.6997 20.6287C16.8794 20.5746 17.0411 20.4721 17.1672 20.3323L35.4312 2.06375L41.9775 2.78813L42.6921 9.37337L40.4827 11.6617Z" fill="#1F9055"/>
<circle cx="11" cy="32" r="3.25" stroke="#1F9055" stroke-width="1.5"/>
</svg>
