<svg width="46" height="45" viewBox="0 0 46 45" fill="none" xmlns="http://www.w3.org/2000/svg">
<path d="M6.36968 11.084H9.94171V14.5929C9.94171 14.7791 10.017 14.9576 10.151 15.0892C10.2849 15.2208 10.4666 15.2947 10.6561 15.2947C10.8456 15.2947 11.0273 15.2208 11.1613 15.0892C11.2953 14.9576 11.3705 14.7791 11.3705 14.5929V11.084H14.9426C15.132 11.084 15.3137 11.0101 15.4477 10.8785C15.5817 10.7469 15.657 10.5684 15.657 10.3822C15.657 10.1961 15.5817 10.0176 15.4477 9.88599C15.3137 9.75438 15.132 9.68044 14.9426 9.68044H11.376V6.17151C11.376 5.98539 11.3007 5.80689 11.1667 5.67527C11.0328 5.54366 10.851 5.46973 10.6616 5.46973C10.4721 5.46973 10.2904 5.54366 10.1564 5.67527C10.0224 5.80689 9.94717 5.98539 9.94717 6.17151V9.68044H6.36968C6.18021 9.68044 5.9985 9.75438 5.86452 9.88599C5.73054 10.0176 5.65527 10.1961 5.65527 10.3822C5.65527 10.5684 5.73054 10.7469 5.86452 10.8785C5.9985 11.0101 6.18021 11.084 6.36968 11.084Z" fill="#1F9055"/>
<path d="M5.87871 39.3161C5.9425 39.3835 6.01974 39.4372 6.10559 39.4739C6.19144 39.5106 6.28407 39.5296 6.3777 39.5296C6.47134 39.5296 6.56397 39.5106 6.64982 39.4739C6.73567 39.4372 6.8129 39.3835 6.8767 39.3161L10.6614 35.5983L14.4461 39.3161C14.5804 39.4464 14.7593 39.5228 14.9479 39.5304C15.1362 39.5218 15.3147 39.4456 15.4496 39.3161C15.5167 39.2527 15.5701 39.1765 15.6066 39.0923C15.6431 39.0081 15.6619 38.9175 15.6619 38.826C15.6619 38.7344 15.6431 38.6438 15.6066 38.5596C15.5701 38.4754 15.5167 38.3993 15.4496 38.3358L11.6594 34.6179L15.4496 30.9001C15.5155 30.8353 15.5677 30.7585 15.6034 30.6739C15.639 30.5894 15.6574 30.4987 15.6574 30.4072C15.6574 30.3157 15.639 30.225 15.6034 30.1405C15.5677 30.0559 15.5155 29.9791 15.4496 29.9144C15.3837 29.8496 15.3055 29.7983 15.2194 29.7633C15.1333 29.7282 15.041 29.7102 14.9479 29.7102C14.8547 29.7102 14.7624 29.7282 14.6763 29.7633C14.5902 29.7983 14.512 29.8496 14.4461 29.9144L10.6614 33.6644L6.8767 29.9144C6.74115 29.7973 6.56525 29.7354 6.38486 29.7413C6.20448 29.7473 6.03318 29.8206 5.90591 29.9463C5.77863 30.072 5.70496 30.2406 5.6999 30.4179C5.69485 30.5951 5.7588 30.7676 5.87871 30.9001L9.64161 34.6179L5.8569 38.3358C5.79116 38.4007 5.73943 38.478 5.70481 38.563C5.6702 38.648 5.6534 38.739 5.65544 38.8305C5.65748 38.9221 5.6783 39.0122 5.71667 39.0957C5.75503 39.1791 5.81014 39.2541 5.87871 39.3161Z" fill="#1F9055"/>
<path d="M31.0464 11.084H39.6357C39.8251 11.084 40.0069 11.0101 40.1408 10.8784C40.2748 10.7468 40.3501 10.5683 40.3501 10.3822C40.3501 10.1961 40.2748 10.0176 40.1408 9.88597C40.0069 9.75436 39.8251 9.68042 39.6357 9.68042H31.0464C30.857 9.68042 30.6753 9.75436 30.5413 9.88597C30.4073 10.0176 30.332 10.1961 30.332 10.3822C30.332 10.5683 30.4073 10.7468 30.5413 10.8784C30.6753 11.0101 30.857 11.084 31.0464 11.084Z" fill="#1F9055"/>
<path d="M31.0464 32.5125H39.6357C39.8251 32.5125 40.0069 32.4385 40.1408 32.3069C40.2748 32.1753 40.3501 31.9968 40.3501 31.8107C40.3501 31.6245 40.2748 31.446 40.1408 31.3144C40.0069 31.1828 39.8251 31.1089 39.6357 31.1089H31.0464C30.857 31.1089 30.6753 31.1828 30.5413 31.3144C30.4073 31.446 30.332 31.6245 30.332 31.8107C30.332 31.9968 30.4073 32.1753 30.5413 32.3069C30.6753 32.4385 30.857 32.5125 31.0464 32.5125Z" fill="#1F9055"/>
<path d="M31.0464 38.1267H39.6357C39.8251 38.1267 40.0069 38.0528 40.1408 37.9212C40.2748 37.7896 40.3501 37.6111 40.3501 37.4249C40.3501 37.2388 40.2748 37.0603 40.1408 36.9287C40.0069 36.7971 39.8251 36.7231 39.6357 36.7231H31.0464C30.857 36.7231 30.6753 36.7971 30.5413 36.9287C30.4073 37.0603 30.332 37.2388 30.332 37.4249C30.332 37.6111 30.4073 37.7896 30.5413 37.9212C30.6753 38.0528 30.857 38.1267 31.0464 38.1267Z" fill="#1F9055"/>
<path d="M19.3108 20.7643H2.00688C1.47557 20.7643 0.965933 20.5573 0.589726 20.1888C0.213519 19.8202 0.00144379 19.3201 0 18.7982V1.97143C0 1.44857 0.211438 0.947132 0.587802 0.577418C0.964165 0.207703 1.47462 0 2.00688 0H19.3108C19.8421 0.00141828 20.3512 0.209747 20.7263 0.579308C21.1015 0.948869 21.3122 1.4495 21.3122 1.97143V18.7982C21.3108 19.3192 21.0994 19.8185 20.7244 20.1869C20.3494 20.5553 19.8412 20.7629 19.3108 20.7643ZM2.00688 1.8375C1.97115 1.83883 1.93725 1.85336 1.91197 1.8782C1.88669 1.90303 1.87189 1.93633 1.87054 1.97143V18.7982C1.87195 18.8328 1.88694 18.8655 1.91236 18.8895C1.93777 18.9134 1.97165 18.9268 2.00688 18.9268H19.3108C19.3455 18.9268 19.3788 18.9132 19.4033 18.8891C19.4279 18.865 19.4417 18.8323 19.4417 18.7982V1.97143C19.4417 1.93682 19.4281 1.90354 19.4037 1.87857C19.3793 1.8536 19.346 1.83888 19.3108 1.8375H2.00688Z" fill="#1F9055"/>
<path d="M19.3108 44.9999H2.00688C1.47462 44.9999 0.964165 44.7922 0.587802 44.4225C0.211438 44.0527 0 43.5513 0 43.0285V26.2017C0.00144379 25.6797 0.213519 25.1797 0.589726 24.8111C0.965933 24.4426 1.47557 24.2356 2.00688 24.2356H19.3108C19.8412 24.237 20.3494 24.4446 20.7244 24.813C21.0994 25.1814 21.3108 25.6807 21.3122 26.2017V43.0285C21.3122 43.5504 21.1015 44.051 20.7263 44.4206C20.3512 44.7901 19.8421 44.9985 19.3108 44.9999ZM2.00688 26.0731C1.97165 26.0731 1.93777 26.0864 1.91236 26.1104C1.88694 26.1344 1.87195 26.1671 1.87054 26.2017V43.0285C1.87189 43.0636 1.88669 43.0969 1.91197 43.1217C1.93725 43.1465 1.97115 43.1611 2.00688 43.1624H19.3108C19.346 43.161 19.3793 43.1463 19.4037 43.1213C19.4281 43.0963 19.4417 43.0631 19.4417 43.0285V26.2017C19.4417 26.1676 19.4279 26.1349 19.4033 26.1108C19.3788 26.0866 19.3455 26.0731 19.3108 26.0731H2.00688Z" fill="#1F9055"/>
<path d="M43.9989 20.7643H26.6895C26.1582 20.7643 25.6486 20.5573 25.2723 20.1888C24.8961 19.8202 24.6841 19.3201 24.6826 18.7982V1.97143C24.6826 1.44857 24.8941 0.947132 25.2704 0.577418C25.6468 0.207703 26.1572 0 26.6895 0H43.9989C44.5302 0.00141828 45.0392 0.209747 45.4144 0.579308C45.7896 0.948869 46.0003 1.4495 46.0003 1.97143V18.7982C45.9988 19.3192 45.7875 19.8185 45.4125 20.1869C45.0375 20.5553 44.5292 20.7629 43.9989 20.7643ZM26.6895 1.8375C26.6538 1.83883 26.6199 1.85336 26.5946 1.8782C26.5693 1.90303 26.5545 1.93633 26.5532 1.97143V18.7982C26.5546 18.8328 26.5696 18.8655 26.595 18.8895C26.6204 18.9134 26.6543 18.9268 26.6895 18.9268H43.9989C44.0336 18.9268 44.0669 18.9132 44.0914 18.8891C44.1159 18.865 44.1297 18.8323 44.1297 18.7982V1.97143C44.1298 1.93682 44.1162 1.90354 44.0918 1.87857C44.0674 1.8536 44.0341 1.83888 43.9989 1.8375H26.6895Z" fill="#1F9055"/>
<path d="M43.9989 45.0001H26.6895C26.1572 45.0001 25.6468 44.7924 25.2704 44.4227C24.8941 44.053 24.6826 43.5516 24.6826 43.0287V26.2019C24.6841 25.68 24.8961 25.1799 25.2723 24.8114C25.6486 24.4428 26.1582 24.2358 26.6895 24.2358H43.9989C44.5292 24.2373 45.0375 24.4448 45.4125 24.8133C45.7875 25.1817 45.9988 25.6809 46.0003 26.2019V43.0287C46.0003 43.5506 45.7896 44.0513 45.4144 44.4208C45.0392 44.7904 44.5302 44.9987 43.9989 45.0001ZM26.6895 26.0733C26.6543 26.0733 26.6204 26.0867 26.595 26.1107C26.5696 26.1346 26.5546 26.1673 26.5532 26.2019V43.0287C26.5545 43.0638 26.5693 43.0971 26.5946 43.1219C26.6199 43.1468 26.6538 43.1613 26.6895 43.1626H43.9989C44.0341 43.1612 44.0674 43.1465 44.0918 43.1216C44.1162 43.0966 44.1298 43.0633 44.1297 43.0287V26.2019C44.1297 26.1678 44.1159 26.1351 44.0914 26.111C44.0669 26.0869 44.0336 26.0733 43.9989 26.0733H26.6895Z" fill="#1F9055"/>
</svg>
