<svg width="46" height="45" id="a0ff8cdf-9695-4bf6-ae1a-57198b44783e" data-name="Layer 1" xmlns="http://www.w3.org/2000/svg" viewBox="0 0 46 45"><path d="M45,1H26V20H45Z" style="fill:#d2e8dd"/><path d="M20,25H1V44H20Z" style="fill:#d2e8dd"/><path d="M45,25H26V44H45Z" style="fill:#d2e8dd"/><path d="M20,1.5H1.5V19H20Z" style="fill:#d2e8dd"/><path d="M6.37,11.084H9.942v3.509a.694.694,0,0,0,.209.5.722.722,0,0,0,1.01,0,.694.694,0,0,0,.209-.5V11.084h3.573a.72.72,0,0,0,.505-.206.693.693,0,0,0,0-.992.72.72,0,0,0-.505-.206H11.376V6.172a.7.7,0,0,0-.209-.5.726.726,0,0,0-1.011,0,.7.7,0,0,0-.209.5V9.68H6.37a.717.717,0,0,0-.5.206.691.691,0,0,0,0,.992A.717.717,0,0,0,6.37,11.084Z" style="fill:#1f9055"/><path d="M5.879,39.316a.693.693,0,0,0,.227.158.683.683,0,0,0,.272.056.689.689,0,0,0,.5-.214L10.661,35.6l3.785,3.718a.762.762,0,0,0,.5.214.771.771,0,0,0,.5-.214.688.688,0,0,0,.157-.224.673.673,0,0,0-.157-.756l-3.791-3.718L15.45,30.9a.69.69,0,0,0,.153-.226.687.687,0,0,0,0-.534.69.69,0,0,0-.153-.226.72.72,0,0,0-.5-.2.715.715,0,0,0-.5.2l-3.785,3.75-3.784-3.75a.718.718,0,0,0-.971.032.688.688,0,0,0-.027.954l3.763,3.718L5.857,38.336a.672.672,0,0,0,.022.98Z" style="fill:#1f9055"/><path d="M31.046,11.084h8.59a.72.72,0,0,0,.5-.206.693.693,0,0,0,0-.992.72.72,0,0,0-.5-.206h-8.59a.72.72,0,0,0-.5.206.693.693,0,0,0,0,.992A.72.72,0,0,0,31.046,11.084Z" style="fill:#1f9055"/><path d="M31.046,32.513h8.59a.725.725,0,0,0,.5-.206.694.694,0,0,0,0-.993.724.724,0,0,0-.5-.2h-8.59a.724.724,0,0,0-.5.2.694.694,0,0,0,0,.993A.725.725,0,0,0,31.046,32.513Z" style="fill:#1f9055"/><path d="M31.046,38.127h8.59a.72.72,0,0,0,.5-.206.693.693,0,0,0,0-.992.72.72,0,0,0-.5-.206h-8.59a.72.72,0,0,0-.5.206.693.693,0,0,0,0,.992A.72.72,0,0,0,31.046,38.127Z" style="fill:#1f9055"/><path d="M19.311,20.764H2.007A2.027,2.027,0,0,1,.59,20.189,1.955,1.955,0,0,1,0,18.8V1.971A1.953,1.953,0,0,1,.588.577,2.028,2.028,0,0,1,2.007,0h17.3a2.024,2.024,0,0,1,1.415.579,1.955,1.955,0,0,1,.586,1.392V18.8a1.953,1.953,0,0,1-.588,1.389A2.024,2.024,0,0,1,19.311,20.764ZM2.007,1.837a.145.145,0,0,0-.1.041.137.137,0,0,0-.041.093V18.8a.131.131,0,0,0,.041.091.141.141,0,0,0,.1.038h17.3a.13.13,0,0,0,.092-.038.126.126,0,0,0,.039-.091V1.971a.134.134,0,0,0-.038-.092.143.143,0,0,0-.093-.042Z" style="fill:#1f9055"/><path d="M19.311,45H2.007a2.028,2.028,0,0,1-1.419-.577A1.954,1.954,0,0,1,0,43.028V26.2a1.955,1.955,0,0,1,.59-1.391,2.027,2.027,0,0,1,1.417-.575h17.3a2.024,2.024,0,0,1,1.413.577,1.953,1.953,0,0,1,.588,1.389V43.028a1.957,1.957,0,0,1-.586,1.393A2.024,2.024,0,0,1,19.311,45ZM2.007,26.073a.14.14,0,0,0-.1.037.133.133,0,0,0-.041.092V43.028a.138.138,0,0,0,.041.094.144.144,0,0,0,.1.04h17.3a.137.137,0,0,0,.093-.041.134.134,0,0,0,.038-.093V26.2a.126.126,0,0,0-.039-.091.13.13,0,0,0-.092-.038Z" style="fill:#1f9055"/><path d="M44,20.764H26.69a2.03,2.03,0,0,1-1.418-.575,1.954,1.954,0,0,1-.589-1.391V1.971A1.957,1.957,0,0,1,25.27.577,2.03,2.03,0,0,1,26.69,0H44a2.024,2.024,0,0,1,1.415.579A1.951,1.951,0,0,1,46,1.971V18.8a1.953,1.953,0,0,1-.588,1.389A2.024,2.024,0,0,1,44,20.764ZM26.69,1.837a.145.145,0,0,0-.1.041.138.138,0,0,0-.042.093V18.8a.137.137,0,0,0,.137.129H44a.13.13,0,0,0,.092-.038.126.126,0,0,0,.039-.091V1.971a.134.134,0,0,0-.038-.092A.143.143,0,0,0,44,1.837Z" style="fill:#1f9055"/><path d="M44,45H26.69a2.03,2.03,0,0,1-1.42-.577,1.955,1.955,0,0,1-.587-1.394V26.2a1.954,1.954,0,0,1,.589-1.391,2.03,2.03,0,0,1,1.418-.575H44a2.024,2.024,0,0,1,1.413.577A1.954,1.954,0,0,1,46,26.2V43.029a1.951,1.951,0,0,1-.586,1.392A2.024,2.024,0,0,1,44,45ZM26.69,26.073a.137.137,0,0,0-.137.129V43.029a.138.138,0,0,0,.042.093.145.145,0,0,0,.1.041H44a.147.147,0,0,0,.093-.041.136.136,0,0,0,.038-.093V26.2a.126.126,0,0,0-.039-.091A.13.13,0,0,0,44,26.073Z" style="fill:#1f9055"/></svg>