<svg id="b4a43223-e554-4f10-9cd8-1f89061f40fa" data-name="Capa 1" xmlns="http://www.w3.org/2000/svg" width="45" height="45" viewBox="0 0 305 305"><path d="M305,173.726a151.994,151.994,0,0,0-43.972-107.02,7.587,7.587,0,0,0-.695-.815,7.455,7.455,0,0,0-.814-.694,152.221,152.221,0,0,0-214.039,0,7.683,7.683,0,0,0-.814.694,7.491,7.491,0,0,0-.7.815,152.36,152.36,0,0,0,.684,214.841l.012.013.008.007.012.012a7.5,7.5,0,0,0,10.606,0c.125-.125.238-.258.352-.39l23.112-23.113a7.5,7.5,0,0,0-10.606-10.607L50.115,265.5a136.341,136.341,0,0,1-34.91-84.277H40.712a7.5,7.5,0,0,0,0-15H15.207A136.953,136.953,0,0,1,50.164,82L68.151,99.984A7.5,7.5,0,1,0,78.757,89.377L60.771,71.389A136.948,136.948,0,0,1,145,36.433V61.939a7.5,7.5,0,0,0,15,0V36.433A136.949,136.949,0,0,1,244.229,71.39L226.242,89.377a7.5,7.5,0,0,0,10.606,10.607L254.835,82a136.949,136.949,0,0,1,34.957,84.229H264.286a7.5,7.5,0,0,0,0,15h25.507A136.343,136.343,0,0,1,254.884,265.5l-18.036-18.037a7.5,7.5,0,0,0-10.606,10.607l23.485,23.485a7.5,7.5,0,0,0,10.607,0A151.5,151.5,0,0,0,305,173.726Z" style="fill:#1f9055"/><path d="M186.956,87.718a7.5,7.5,0,0,0-9.751,4.173l-21.673,54.1a28.513,28.513,0,0,0-3.031-.182,27.81,27.81,0,0,0-24.886,15.259c-5.012,9.839-3.728,21.6,3.432,31.445a12.208,12.208,0,0,0,2.666,2.665,32,32,0,0,0,18.788,6.464,27.808,27.808,0,0,0,24.886-15.259c5.012-9.839,3.728-21.594-3.427-31.437a12.206,12.206,0,0,0-2.671-2.674c-.547-.4-1.106-.761-1.665-1.123l21.5-53.681A7.5,7.5,0,0,0,186.956,87.718ZM164.02,179.574a12.876,12.876,0,0,1-11.52,7.067,16.7,16.7,0,0,1-9.589-3.327c-3.6-5.169-4.307-10.773-1.93-15.438a12.874,12.874,0,0,1,11.52-7.067,14.6,14.6,0,0,1,4.678.8c.051.021.1.048.15.069.164.065.329.118.494.171a19.918,19.918,0,0,1,4.266,2.291C165.688,169.3,166.4,174.909,164.02,179.574Z" style="fill:#1f9055"/></svg>