<svg width="43" height="45" id="b691bdae-a0e2-4632-a63e-39ac1b58efcd" data-name="Layer 1" xmlns="http://www.w3.org/2000/svg" viewBox="0 0 43 45"><path d="M7,10.165l2-3.22,3.5-2.229,5.25-.991h8L29,2.734,32,1,42,18.587l-3,2.477-5,1.487L22,23.789,17,28Z" style="fill:#d2e8dd"/><path d="M17.334,28.909a1.662,1.662,0,0,1-1-.272,1.7,1.7,0,0,1-.651-.814L6.809,11.613a1.969,1.969,0,0,1,.033-2.094c3.831-6.554,9.172-6.463,13.462-6.39h.447c3.523.063,6.851.119,9.877-2.513a1.847,1.847,0,0,1,.713-.493A1.823,1.823,0,0,1,32.2.011h.162l.157.056a2.162,2.162,0,0,1,1.219.94l.034.057,8.992,16.413a1.973,1.973,0,0,1-.5,2.473c-4.133,3.594-8.73,3.515-12.086,3.453h-.632c-4.323-.074-7.734-.131-10.4,4.527l-.034.04a2.048,2.048,0,0,1-.766.707A2.017,2.017,0,0,1,17.334,28.909Zm-8.8-18.315,8.9,16.255c3.26-5.62,7.773-5.541,12.141-5.467h.632c3.21.057,7.209.125,10.766-2.983l-8.948-16.3C28.4,5.308,24.5,5.24,20.723,5.173H20.27C16.109,5.1,11.8,5.025,8.559,10.589Z" style="fill:#1f9055"/><path d="M20.092,45a1.015,1.015,0,0,1-.5-.148,1.026,1.026,0,0,1-.362-.378L.126,9.632a1.016,1.016,0,0,1-.119-.376,1.014,1.014,0,0,1,.21-.746,1.017,1.017,0,0,1,.3-.256.981.981,0,0,1,.372-.121.991.991,0,0,1,.737.213,1.018,1.018,0,0,1,.253.3l19.1,34.847a1.025,1.025,0,0,1,.087.769,1.008,1.008,0,0,1-.473.607A1.022,1.022,0,0,1,20.092,45Z" style="fill:#1f9055"/></svg>