<svg width="39" height="45" viewBox="0 0 39 45" id="f036deb0-d557-468e-be12-12aa0fc2cbc0" data-name="Layer 1" xmlns="http://www.w3.org/2000/svg" xmlns:xlink="http://www.w3.org/1999/xlink"><defs><clipPath id="b553acb0-bdce-49a0-a191-617239657ffc" transform="translate(0 0)"><rect width="38.744" height="45" style="fill:none"/></clipPath></defs><g style="clip-path:url(#b553acb0-bdce-49a0-a191-617239657ffc)"><path d="M37.654,40.921a1.087,1.087,0,0,1-1.087-1.087V2.177H6.556A1.091,1.091,0,0,1,6.552,0H37.113a1.632,1.632,0,0,1,1.631,1.631v38.2a1.087,1.087,0,0,1-1.09,1.087Z" transform="translate(0 0)" style="fill:#1f9055"/><path d="M31.947,45H2.177A2.182,2.182,0,0,1,0,42.823V6.8A2.177,2.177,0,0,1,2.177,4.624h29.77A2.177,2.177,0,0,1,34.124,6.8V42.823A2.182,2.182,0,0,1,31.947,45ZM2.177,6.8V42.823h29.77V6.8Z" transform="translate(0 0)" style="fill:#1f9055"/><path d="M27.818,20.665H16.667a1.091,1.091,0,0,1,0-2.177H27.818a1.091,1.091,0,0,1,0,2.177Z" transform="translate(0 0)" style="fill:#1f9055"/><path d="M27.818,32.086H16.667a1.09,1.09,0,0,1,0-2.176H27.818a1.09,1.09,0,0,1,0,2.176Z" transform="translate(0 0)" style="fill:#1f9055"/><path d="M7.993,22.686a1.481,1.481,0,0,1-1.057-.423L4.822,20.15A.956.956,0,0,1,6.171,18.8L8,20.632l5.529-5.542a.951.951,0,0,1,1.344,1.344L9.049,22.25a1.468,1.468,0,0,1-.484.325A1.5,1.5,0,0,1,7.993,22.686Z" transform="translate(0 0)" style="fill:#1f9055"/><path d="M7.993,33.972a1.481,1.481,0,0,1-1.057-.423L4.823,31.436a.952.952,0,0,1,1.348-1.345L8,31.917l5.529-5.541a.939.939,0,0,1,.309-.22.946.946,0,0,1,.743-.014.96.96,0,0,1,.526.526.972.972,0,0,1,.069.373.96.96,0,0,1-.083.37.939.939,0,0,1-.22.309L9.05,33.536a1.472,1.472,0,0,1-.485.325A1.494,1.494,0,0,1,7.993,33.972Z" transform="translate(0 0)" style="fill:#1f9055"/></g></svg>