<svg width="34" height="24" id="Layer_1" data-name="Layer 1" xmlns="http://www.w3.org/2000/svg" viewBox="0 0 34 24"><defs><style>.cls-1{fill:#d2e8dd;}.cls-2{fill:#1f9055;}</style></defs><path class="cls-1" d="M17,16.8a4.9,4.9,0,0,1-2.69-.8,4.84,4.84,0,0,1-1.79-2.16,4.73,4.73,0,0,1-.28-2.78A4.84,4.84,0,0,1,13.57,8.6a4.79,4.79,0,0,1,2.48-1.31,4.87,4.87,0,0,1,5,2,4.74,4.74,0,0,1-.61,6.06A4.87,4.87,0,0,1,17,16.8Z"/><path class="cls-1" d="M17,5.6a6.52,6.52,0,0,0-3.59,1.08A6.41,6.41,0,0,0,11,9.55a6.4,6.4,0,0,0,4.71,8.73,6.47,6.47,0,0,0,6.63-2.72,6.34,6.34,0,0,0-.81-8.08A6.52,6.52,0,0,0,17,5.6Z"/><path class="cls-2" d="M17,22.4C8.92,22.4,3,13.92,1.82,12,3,10.09,8.84,1.6,17,1.6S31,10.09,32.18,12C31,13.92,25.07,22.4,17,22.4ZM17,0C6.9,0,.44,11.14.12,11.6a.73.73,0,0,0,0,.8C.44,12.88,7,24,17,24S33.55,12.88,33.88,12.4a.73.73,0,0,0,0-.8C33.55,11.12,27,0,17,0Z"/><path class="cls-2" d="M17,16.8a4.9,4.9,0,0,1-2.69-.8,4.84,4.84,0,0,1-1.79-2.16,4.73,4.73,0,0,1-.28-2.78A4.84,4.84,0,0,1,13.57,8.6a4.79,4.79,0,0,1,2.48-1.31,4.87,4.87,0,0,1,5,2,4.74,4.74,0,0,1-.61,6.06A4.87,4.87,0,0,1,17,16.8ZM17,5.6a6.52,6.52,0,0,0-3.59,1.08A6.41,6.41,0,0,0,11,9.55a6.4,6.4,0,0,0,4.71,8.73,6.47,6.47,0,0,0,6.63-2.72,6.34,6.34,0,0,0-.81-8.08A6.52,6.52,0,0,0,17,5.6Z"/></svg>