<svg width="32" height="42" viewBox="0 0 32 42" fill="none" xmlns="http://www.w3.org/2000/svg">
<path d="M22.029 11L29.9555 30.405C32.0976 35.43 28.3912 41 22.9055 41H9.66619C4.18047 41 0.474046 35.43 2.61619 30.405L10.5426 11" stroke="#1F9055" stroke-width="2" stroke-linecap="round" stroke-linejoin="round"/>
<path fill-rule="evenodd" clip-rule="evenodd" d="M26.2858 1H6.28579L10.5715 11H22.0001L26.2858 1Z" stroke="#1F9055" stroke-width="2" stroke-linecap="round" stroke-linejoin="round"/>
<path d="M16.2856 11V6.71429" stroke="#1F9055" stroke-width="2" stroke-linecap="round" stroke-linejoin="round"/>
<path d="M11.9998 30.2858V30.2858C11.9998 32.258 13.5991 33.8572 15.5712 33.8572H16.9998C18.9719 33.8572 20.5712 32.258 20.5712 30.2858C20.5712 25.2858 11.9998 28.143 11.9998 23.143C11.9998 21.1708 13.5991 19.5715 15.5712 19.5715H16.9998C18.9719 19.5715 20.5712 21.1708 20.5712 23.143" stroke="#1F9055" stroke-width="2" stroke-linecap="round" stroke-linejoin="round"/>
<path d="M16.2856 33.7972V38.1429" stroke="#1F9055" stroke-width="2" stroke-linecap="round" stroke-linejoin="round"/>
<path d="M16.2856 15.2857V19.5107" stroke="#1F9055" stroke-width="2" stroke-linecap="round" stroke-linejoin="round"/>
</svg>
