<svg width="49" height="40" viewBox="0 0 49 40" fill="none" xmlns="http://www.w3.org/2000/svg">
<path d="M46.3762 32.692H2.62348C2.38049 32.6977 2.13891 32.6536 1.91354 32.5626C1.68817 32.4716 1.48376 32.3355 1.31284 32.1627C1.14192 31.9899 1.00809 31.784 0.919552 31.5576C0.83101 31.3313 0.789624 31.0892 0.797929 30.8463V2.93857C0.789524 2.69369 0.831478 2.44968 0.921194 2.22167C1.01091 1.99366 1.14648 1.78649 1.3195 1.61299C1.49253 1.4395 1.69932 1.30336 1.92709 1.21303C2.15486 1.12269 2.39875 1.08007 2.64365 1.08781H46.3964C46.6379 1.08563 46.8774 1.13235 47.1004 1.22517C47.3234 1.31799 47.5253 1.45498 47.694 1.6279C47.8627 1.80081 47.9946 2.00607 48.0819 2.23132C48.1691 2.45657 48.2099 2.69715 48.2017 2.93857V30.8463C48.21 31.0892 48.1687 31.3313 48.0801 31.5576C47.9916 31.784 47.8577 31.9899 47.6868 32.1627C47.5159 32.3355 47.3115 32.4716 47.0861 32.5626C46.8608 32.6536 46.6192 32.6977 46.3762 32.692ZM2.62348 2.79233C2.50749 2.79233 2.48732 2.79233 2.48732 2.93353V30.8463C2.48732 30.9825 2.48732 30.9925 2.62348 30.9925H46.3762C46.4972 30.9925 46.5174 30.9925 46.5174 30.8463V2.93857C46.5174 2.8125 46.5174 2.79737 46.3762 2.79737L2.62348 2.79233Z" fill="#013763" stroke="#013763" stroke-width="0.25"/>
<path d="M36.5054 39.0865H12.4908C12.2755 39.07 12.0743 38.9727 11.9275 38.8142C11.7808 38.6558 11.6992 38.4477 11.6992 38.2317C11.6992 38.0157 11.7808 37.8077 11.9275 37.6492C12.0743 37.4907 12.2755 37.3935 12.4908 37.377H36.5054C36.7207 37.3935 36.9219 37.4907 37.0687 37.6492C37.2154 37.8077 37.297 38.0157 37.297 38.2317C37.297 38.4477 37.2154 38.6558 37.0687 38.8142C36.9219 38.9727 36.7207 39.07 36.5054 39.0865Z" fill="#013763" stroke="#013763" stroke-width="0.25"/>
<path d="M37.0823 7.98477L37.0823 25.8974C37.0875 26.0466 37.0606 26.1953 37.0031 26.3341C36.9457 26.473 36.8589 26.599 36.7483 26.7043C36.6377 26.8096 36.5056 26.892 36.3603 26.9462C36.2149 27.0005 36.0595 27.0255 35.9036 27.0197L13.6849 27.0197C13.5295 27.0247 13.3747 26.999 13.2301 26.9444C13.0855 26.8898 12.9541 26.8073 12.8442 26.702C12.7343 26.5968 12.6481 26.4711 12.591 26.3327C12.5339 26.1943 12.5072 26.0461 12.5124 25.8974L12.5124 7.98477C12.5072 7.83604 12.5339 7.68787 12.591 7.54945C12.6481 7.41104 12.7343 7.28532 12.8442 7.18009C12.9541 7.07486 13.0855 6.99237 13.2301 6.93773C13.3747 6.88309 13.5295 6.85747 13.6849 6.86244C22.4489 6.86244 27.146 6.86244 35.9036 6.86244C36.0594 6.85663 36.2149 6.88163 36.3603 6.9359C36.5056 6.99017 36.6377 7.07253 36.7483 7.17785C36.8589 7.28316 36.9457 7.40917 37.0031 7.548C37.0606 7.68684 37.0875 7.83552 37.0823 7.98477ZM35.9036 25.8974L35.9036 7.98774C27.0056 7.98774 22.4595 7.98774 13.688 7.98775L13.688 25.8944L35.9036 25.8974Z" fill="#013763" stroke="#013763" stroke-width="0.5"/>
<path d="M30.9403 12.6705H19.0585C18.9145 12.6705 18.7765 12.6063 18.6746 12.4921C18.5728 12.3779 18.5156 12.2229 18.5156 12.0613C18.5156 11.8998 18.5728 11.7448 18.6746 11.6306C18.7765 11.5163 18.9145 11.4521 19.0585 11.4521H30.9403C31.0843 11.4521 31.2224 11.5163 31.3242 11.6306C31.4261 11.7448 31.4833 11.8998 31.4833 12.0613C31.4833 12.2229 31.4261 12.3779 31.3242 12.4921C31.2224 12.6063 31.0843 12.6705 30.9403 12.6705Z" fill="#013763" stroke="#013763" stroke-width="0.5"/>
<path d="M30.9304 17.5869H19.098C19.0236 17.593 18.9488 17.5818 18.8784 17.554C18.808 17.5262 18.7435 17.4825 18.6889 17.4254C18.6342 17.3684 18.5906 17.2994 18.5608 17.2226C18.531 17.1459 18.5156 17.063 18.5156 16.9793C18.5156 16.8956 18.531 16.8127 18.5608 16.736C18.5906 16.6592 18.6342 16.5902 18.6889 16.5332C18.7435 16.4761 18.808 16.4324 18.8784 16.4046C18.9488 16.3768 19.0236 16.3656 19.098 16.3717H30.9304C31.0672 16.3829 31.1951 16.4518 31.2885 16.5645C31.3819 16.6772 31.4338 16.8254 31.4338 16.9793C31.4338 17.1332 31.3819 17.2814 31.2885 17.3941C31.1951 17.5068 31.0672 17.5757 30.9304 17.5869Z" fill="#013763" stroke="#013763" stroke-width="0.5"/>
<path d="M30.8093 22.4209H19.098C19.0236 22.427 18.9488 22.4158 18.8784 22.388C18.808 22.3602 18.7435 22.3164 18.6889 22.2594C18.6342 22.2024 18.5906 22.1334 18.5608 22.0566C18.531 21.9799 18.5156 21.897 18.5156 21.8133C18.5156 21.7296 18.531 21.6467 18.5608 21.57C18.5906 21.4932 18.6342 21.4242 18.6889 21.3671C18.7435 21.3101 18.808 21.2664 18.8784 21.2386C18.9488 21.2108 19.0236 21.1996 19.098 21.2057H30.8093C30.8838 21.1996 30.9585 21.2108 31.0289 21.2386C31.0993 21.2664 31.1638 21.3101 31.2185 21.3671C31.2731 21.4242 31.3167 21.4932 31.3465 21.57C31.3763 21.6467 31.3917 21.7296 31.3917 21.8133C31.3917 21.897 31.3763 21.9799 31.3465 22.0566C31.3167 22.1334 31.2731 22.2024 31.2185 22.2594C31.1638 22.3164 31.0993 22.3602 31.0289 22.388C30.9585 22.4158 30.8838 22.427 30.8093 22.4209Z" fill="#013763" stroke="#013763" stroke-width="0.5"/>
</svg>
