<svg width="81" height="82" viewBox="0 0 81 82" fill="none" xmlns="http://www.w3.org/2000/svg">
<path d="M63.5743 22.9825H30.8938C30.4626 22.8894 30.0763 22.6513 29.7993 22.3079C29.5222 21.9645 29.3711 21.5365 29.3711 21.0952C29.3711 20.6539 29.5222 20.2259 29.7993 19.8825C30.0763 19.5392 30.4626 19.3011 30.8938 19.208H63.5743C64.0055 19.3011 64.3918 19.5392 64.6688 19.8825C64.9459 20.2259 65.097 20.6539 65.097 21.0952C65.097 21.5365 64.9459 21.9645 64.6688 22.3079C64.3918 22.6513 64.0055 22.8894 63.5743 22.9825Z" fill="#1F9055" stroke="#1F9055" stroke-width="0.25"/>
<path d="M70.4253 80.9989H10.7957C9.45671 81.0145 8.1281 80.7622 6.88787 80.257C5.64764 79.7517 4.52078 79.0037 3.57345 78.0569C2.62612 77.11 1.87739 75.9833 1.37123 74.743C0.865061 73.5027 0.611654 72.1737 0.62588 70.834V44.3164C0.615331 43.8482 0.699716 43.3828 0.873939 42.9482C1.04816 42.5136 1.30861 42.1189 1.63956 41.7878C1.97051 41.4567 2.36509 41.1961 2.79949 41.0218C3.23388 40.8475 3.69908 40.7631 4.16699 40.7736H13.8833V4.54475C13.8712 4.07374 13.9555 3.60523 14.131 3.16801C14.3065 2.73078 14.5695 2.33408 14.9039 2.00228C15.2382 1.67048 15.6369 1.41058 16.0753 1.23856C16.5138 1.06654 16.9827 0.986032 17.4534 1.00198H77.083C77.5509 0.991427 78.0161 1.07585 78.4505 1.25016C78.8849 1.42446 79.2795 1.68503 79.6104 2.01613C79.9414 2.34724 80.2018 2.742 80.3761 3.1766C80.5503 3.6112 80.6347 4.07662 80.6241 4.54475V70.834C80.6384 72.1761 80.3841 73.5075 79.8761 74.7498C79.3682 75.9921 78.6169 77.1201 77.6664 78.0673C76.716 79.0146 75.5857 79.762 74.3421 80.2655C73.0985 80.769 71.7668 81.0183 70.4253 80.9989ZM17.6464 77.2342H70.4253C71.2684 77.2432 72.1048 77.0839 72.8855 76.7655C73.6663 76.4472 74.3757 75.9763 74.9723 75.3803C75.5689 74.7843 76.0407 74.0753 76.36 73.2946C76.6794 72.514 76.8399 71.6775 76.8321 70.834V4.76677H17.6464V77.2342ZM4.39856 44.5384V70.834C4.38952 71.677 4.54881 72.5133 4.8671 73.2939C5.18539 74.0745 5.65626 74.7836 6.2521 75.3798C6.84794 75.9759 7.55676 76.447 8.33698 76.7654C9.1172 77.0838 9.95312 77.2432 10.7957 77.2342H13.8833V44.5384H4.39856Z" fill="#1F9055" stroke="#1F9055" stroke-width="0.25"/>
<path d="M63.5737 36.3909H30.8932C30.3942 36.3909 29.9157 36.1926 29.5628 35.8396C29.2099 35.4866 29.0117 35.0078 29.0117 34.5085C29.0117 34.0093 29.2099 33.5305 29.5628 33.1775C29.9157 32.8245 30.3942 32.6261 30.8932 32.6261H63.5737C63.8564 32.5617 64.1498 32.5618 64.4324 32.6264C64.715 32.691 64.9794 32.8184 65.206 32.9993C65.4326 33.1801 65.6155 33.4097 65.7413 33.671C65.867 33.9323 65.9323 34.2186 65.9323 34.5085C65.9323 34.7985 65.867 35.0848 65.7413 35.3461C65.6155 35.6074 65.4326 35.837 65.206 36.0178C64.9794 36.1986 64.715 36.3261 64.4324 36.3907C64.1498 36.4553 63.8564 36.4554 63.5737 36.3909Z" fill="#1F9055" stroke="#1F9055" stroke-width="0.25"/>
<path d="M38.7286 49.8477H30.8938C30.4626 49.7546 30.0763 49.5165 29.7993 49.1731C29.5222 48.8298 29.3711 48.4018 29.3711 47.9605C29.3711 47.5192 29.5222 47.0912 29.7993 46.7478C30.0763 46.4044 30.4626 46.1663 30.8938 46.0732H38.7286C39.1598 46.1663 39.5461 46.4044 39.8232 46.7478C40.1002 47.0912 40.2513 47.5192 40.2513 47.9605C40.2513 48.4018 40.1002 48.8298 39.8232 49.1731C39.5461 49.5165 39.1598 49.7546 38.7286 49.8477Z" fill="#1F9055" stroke="#1F9055" stroke-width="0.25"/>
<path d="M38.7281 63.2369H30.8932C30.3942 63.2369 29.9157 63.0386 29.5628 62.6855C29.2099 62.3325 29.0117 61.8537 29.0117 61.3545C29.0117 60.8552 29.2099 60.3764 29.5628 60.0234C29.9157 59.6704 30.3942 59.4721 30.8932 59.4721H38.7281C39.0107 59.4077 39.3042 59.4077 39.5867 59.4723C39.8693 59.5369 40.1337 59.6644 40.3603 59.8452C40.5869 60.0261 40.7698 60.2557 40.8956 60.5169C41.0213 60.7782 41.0866 61.0645 41.0866 61.3545C41.0866 61.6445 41.0213 61.9307 40.8956 62.192C40.7698 62.4533 40.5869 62.6829 40.3603 62.8637C40.1337 63.0446 39.8693 63.172 39.5867 63.2366C39.3042 63.3012 39.0107 63.3013 38.7281 63.2369Z" fill="#1F9055" stroke="#1F9055" stroke-width="0.25"/>
<path d="M56.0492 66.0074L54.7177 62.8218L51.4757 63.7872L51.6301 60.3409L48.3302 59.6652L49.9319 56.6437L47.2109 54.6262L49.9319 52.6183L48.3302 49.6258L51.659 49.0466L51.5047 45.6003L54.7467 46.5174L56.0492 43.3125L58.5869 45.581L61.1342 43.3125L62.4561 46.4884L65.6981 45.5714L65.5726 49.0466L68.8822 49.6547L67.2805 52.6762L70.0014 54.6841L67.2805 56.7016L68.8822 59.6652L65.5726 60.2734L65.7366 63.7196L62.485 62.7543L61.1631 65.9399L58.6158 63.6617L56.0492 66.0074ZM58.5869 60.3602L60.1693 61.7793L60.9991 59.8486L63.035 60.4278L62.9385 58.2751L65.0323 57.889L64.0674 55.9583L65.7849 54.6744L64.0674 53.4002L65.0323 51.4696L62.9385 51.0834L63.035 48.9307L60.9991 49.5003L60.1693 47.5696L58.6158 48.95L57.0141 47.5407L56.194 49.4713L54.1484 48.9018L54.2546 51.0545L52.1608 51.4406L53.1257 53.3713L51.3985 54.6455L53.1546 55.939L52.1897 57.8697L54.2835 58.2558L54.1774 60.4085L56.2229 59.8293L57.0431 61.76L58.5869 60.3602Z" fill="#1F9055" stroke="#1F9055" stroke-width="0.25"/>
</svg>
