<svg width="80" height="80" viewBox="0 0 80 80" fill="none" xmlns="http://www.w3.org/2000/svg">
<rect width="80" height="80" rx="40" fill="#1F9055"/>
<path d="M39.1204 42.8624C38.9909 42.862 38.8628 42.8351 38.744 42.7835C38.6252 42.7319 38.5182 42.6566 38.4295 42.5623L35.7279 39.7034C35.5518 39.5251 35.4531 39.2846 35.4531 39.034C35.4531 38.7834 35.5518 38.5429 35.7279 38.3645C35.9123 38.1835 36.1604 38.0821 36.4188 38.0821C36.6772 38.0821 36.9252 38.1835 37.1096 38.3645L39.1108 40.4801L44.0233 35.3198C44.1124 35.2246 44.2202 35.1487 44.3398 35.0969C44.4595 35.045 44.5885 35.0182 44.7189 35.0182C44.8494 35.0182 44.9784 35.045 45.0981 35.0969C45.2177 35.1487 45.3255 35.2246 45.4146 35.3198C45.5878 35.4978 45.6847 35.7362 45.6847 35.9845C45.6847 36.2328 45.5878 36.4713 45.4146 36.6492L39.8113 42.5623C39.7225 42.6566 39.6155 42.7319 39.4967 42.7835C39.3779 42.8351 39.2499 42.862 39.1204 42.8624Z" fill="white" stroke="white" stroke-width="0.25"/>
<path d="M33.8967 23.0982H24.1528C23.9279 23.0982 23.7122 23.0089 23.5531 22.8498C23.394 22.6908 23.3047 22.475 23.3047 22.2501C23.3047 22.0252 23.394 21.8094 23.5531 21.6504C23.7122 21.4913 23.9279 21.402 24.1528 21.402H33.8967C34.1216 21.402 34.3374 21.4913 34.4964 21.6504C34.6555 21.8094 34.7448 22.0252 34.7448 22.2501C34.7448 22.475 34.6555 22.6908 34.4964 22.8498C34.3374 23.0089 34.1216 23.0982 33.8967 23.0982Z" fill="white" stroke="white" stroke-width="0.25"/>
<path d="M23.8481 57.9999C23.6232 57.9999 23.4075 57.9106 23.2484 57.7515C23.0894 57.5925 23 57.3768 23 57.1518V22.2644C23 22.0394 23.0894 21.8237 23.2484 21.6647C23.4075 21.5056 23.6232 21.4163 23.8481 21.4163C24.0731 21.4163 24.2888 21.5056 24.4478 21.6647C24.6069 21.8237 24.6962 22.0394 24.6962 22.2644V57.1566C24.695 57.3807 24.6051 57.5952 24.4462 57.7532C24.2872 57.9112 24.0722 57.9999 23.8481 57.9999Z" fill="white" stroke="white" stroke-width="0.25"/>
<path d="M55.9289 58H24.1528C24.0414 58 23.9311 57.978 23.8282 57.9354C23.7253 57.8928 23.6319 57.8303 23.5531 57.7515C23.4743 57.6728 23.4119 57.5793 23.3692 57.4764C23.3266 57.3735 23.3047 57.2632 23.3047 57.1518C23.3047 57.0405 23.3266 56.9302 23.3692 56.8273C23.4119 56.7244 23.4743 56.6309 23.5531 56.5521C23.6319 56.4734 23.7253 56.4109 23.8282 56.3683C23.9311 56.3256 24.0414 56.3037 24.1528 56.3037H55.9289C56.1538 56.3037 56.3695 56.3931 56.5286 56.5521C56.6876 56.7112 56.777 56.9269 56.777 57.1518C56.777 57.3768 56.6876 57.5925 56.5286 57.7515C56.3695 57.9106 56.1538 58 55.9289 58Z" fill="white" stroke="white" stroke-width="0.25"/>
<path d="M56.2466 57.9999C56.0216 57.9999 55.8059 57.9106 55.6468 57.7515C55.4878 57.5925 55.3984 57.3768 55.3984 57.1518V22.2644C55.3984 22.0394 55.4878 21.8237 55.6468 21.6647C55.8059 21.5056 56.0216 21.4163 56.2466 21.4163C56.4715 21.4163 56.6872 21.5056 56.8463 21.6647C57.0053 21.8237 57.0947 22.0394 57.0947 22.2644V57.1566C57.0934 57.3807 57.0035 57.5952 56.8446 57.7532C56.6857 57.9112 56.4707 57.9999 56.2466 57.9999Z" fill="white" stroke="white" stroke-width="0.25"/>
<path d="M55.9358 23.0982H46.1919C45.9669 23.0982 45.7512 23.0089 45.5922 22.8498C45.4331 22.6908 45.3438 22.475 45.3438 22.2501C45.3438 22.0252 45.4331 21.8094 45.5922 21.6504C45.7512 21.4913 45.9669 21.402 46.1919 21.402H55.9358C56.1607 21.402 56.3764 21.4913 56.5355 21.6504C56.6945 21.8094 56.7839 22.0252 56.7839 22.2501C56.7839 22.475 56.6945 22.6908 56.5355 22.8498C56.3764 23.0089 56.1607 23.0982 55.9358 23.0982Z" fill="white" stroke="white" stroke-width="0.25"/>
<path d="M34.2112 28.0965H28.727C28.5021 28.0965 28.2864 28.0072 28.1273 27.8481C27.9683 27.6891 27.8789 27.4733 27.8789 27.2484C27.8789 27.0235 27.9683 26.8077 28.1273 26.6487C28.2864 26.4896 28.5021 26.4003 28.727 26.4003H34.2112C34.4362 26.4003 34.6519 26.4896 34.811 26.6487C34.97 26.8077 35.0594 27.0235 35.0594 27.2484C35.0594 27.4733 34.97 27.6891 34.811 27.8481C34.6519 28.0072 34.4362 28.0965 34.2112 28.0965Z" fill="white" stroke="white" stroke-width="0.25"/>
<path d="M28.5083 52.9875C28.2833 52.9875 28.0676 52.8982 27.9086 52.7391C27.7495 52.5801 27.6602 52.3644 27.6602 52.1394V27.2437C27.6762 27.0291 27.7728 26.8285 27.9305 26.6822C28.0883 26.5358 28.2955 26.4545 28.5107 26.4545C28.7258 26.4545 28.9331 26.5358 29.0908 26.6822C29.2485 26.8285 29.3451 27.0291 29.3612 27.2437V52.1394C29.3599 52.3648 29.2695 52.5805 29.1097 52.7394C28.9499 52.8983 28.7337 52.9876 28.5083 52.9875Z" fill="white" stroke="white" stroke-width="0.25"/>
<path d="M51.3596 52.9875H28.727C28.5021 52.9875 28.2864 52.8982 28.1273 52.7391C27.9683 52.58 27.8789 52.3643 27.8789 52.1394C27.8789 51.9144 27.9683 51.6987 28.1273 51.5397C28.2864 51.3806 28.5021 51.2913 28.727 51.2913H51.3596C51.5845 51.2913 51.8002 51.3806 51.9593 51.5397C52.1183 51.6987 52.2077 51.9144 52.2077 52.1394C52.2077 52.3643 52.1183 52.58 51.9593 52.7391C51.8002 52.8982 51.5845 52.9875 51.3596 52.9875Z" fill="white" stroke="white" stroke-width="0.25"/>
<path d="M51.5873 52.9875C51.3619 52.9876 51.1457 52.8983 50.9859 52.7394C50.826 52.5805 50.7356 52.3648 50.7344 52.1394V27.2437C50.7504 27.0291 50.847 26.8285 51.0048 26.6822C51.1625 26.5358 51.3697 26.4545 51.5849 26.4545C51.8001 26.4545 52.0073 26.5358 52.165 26.6822C52.3227 26.8285 52.4193 27.0291 52.4354 27.2437V52.1394C52.4354 52.3644 52.346 52.5801 52.187 52.7391C52.0279 52.8982 51.8122 52.9875 51.5873 52.9875Z" fill="white" stroke="white" stroke-width="0.25"/>
<path d="M51.3636 28.0965H45.8794C45.6544 28.0965 45.4387 28.0072 45.2797 27.8481C45.1206 27.6891 45.0312 27.4733 45.0312 27.2484C45.0312 27.0235 45.1206 26.8077 45.2797 26.6487C45.4387 26.4896 45.6544 26.4003 45.8794 26.4003H51.3636C51.5885 26.4003 51.8043 26.4896 51.9633 26.6487C52.1224 26.8077 52.2117 27.0235 52.2117 27.2484C52.2117 27.4733 52.1224 27.6891 51.9633 27.8481C51.8043 28.0072 51.5885 28.0965 51.3636 28.0965Z" fill="white" stroke="white" stroke-width="0.25"/>
<path d="M45.588 30.4502H43.2057C43.0886 30.459 42.971 30.4435 42.8602 30.4047C42.7495 30.366 42.6479 30.3047 42.5618 30.2249C42.4758 30.1451 42.4072 30.0483 42.3602 29.9408C42.3133 29.8332 42.2891 29.7171 42.2891 29.5997C42.2891 29.4823 42.3133 29.3662 42.3602 29.2587C42.4072 29.1511 42.4758 29.0543 42.5618 28.9745C42.6479 28.8947 42.7495 28.8335 42.8602 28.7947C42.971 28.7559 43.0886 28.7404 43.2057 28.7492H45.588C45.8026 28.7653 46.0032 28.8619 46.1495 29.0196C46.2959 29.1773 46.3772 29.3845 46.3772 29.5997C46.3772 29.8149 46.2959 30.0221 46.1495 30.1798C46.0032 30.3376 45.8026 30.4341 45.588 30.4502Z" fill="white" stroke="white" stroke-width="0.25"/>
<path d="M45.6702 30.4503C45.5582 30.4509 45.4471 30.4295 45.3434 30.3872C45.2397 30.3449 45.1453 30.2826 45.0657 30.2039C44.986 30.1251 44.9227 30.0314 44.8792 29.9282C44.8358 29.825 44.8131 29.7142 44.8125 29.6022V18.8481C44.8286 18.6336 44.9252 18.433 45.0829 18.2866C45.2406 18.1403 45.4478 18.059 45.663 18.059C45.8782 18.059 46.0854 18.1403 46.2431 18.2866C46.4009 18.433 46.4974 18.6336 46.5135 18.8481V29.6022C46.5135 29.8263 46.4248 30.0413 46.2668 30.2002C46.1088 30.3591 45.8943 30.449 45.6702 30.4503Z" fill="white" stroke="white" stroke-width="0.25"/>
<path d="M45.5578 19.6962H34.5512C34.3263 19.6962 34.1106 19.6069 33.9515 19.4478C33.7925 19.2888 33.7031 19.0731 33.7031 18.8481C33.7031 18.6232 33.7925 18.4075 33.9515 18.2484C34.1106 18.0894 34.3263 18 34.5512 18H45.5578C45.7827 18 45.9985 18.0894 46.1575 18.2484C46.3166 18.4075 46.4059 18.6232 46.4059 18.8481C46.4059 19.0731 46.3166 19.2888 46.1575 19.4478C45.9985 19.6069 45.7827 19.6962 45.5578 19.6962Z" fill="white" stroke="white" stroke-width="0.25"/>
<path d="M34.431 30.4503C34.2056 30.4503 33.9894 30.3611 33.8296 30.2022C33.6698 30.0433 33.5794 29.8275 33.5781 29.6022V18.8481C33.5942 18.6336 33.6908 18.433 33.8485 18.2866C34.0062 18.1403 34.2135 18.059 34.4286 18.059C34.6438 18.059 34.851 18.1403 35.0088 18.2866C35.1665 18.433 35.2631 18.6336 35.2791 18.8481V29.6022C35.2791 29.8271 35.1898 30.0428 35.0307 30.2019C34.8717 30.3609 34.656 30.4503 34.431 30.4503Z" fill="white" stroke="white" stroke-width="0.25"/>
<path d="M36.9216 30.4503H34.5392C34.3246 30.4342 34.124 30.3376 33.9777 30.1799C33.8313 30.0222 33.75 29.8149 33.75 29.5998C33.75 29.3846 33.8313 29.1774 33.9777 29.0196C34.124 28.8619 34.3246 28.7653 34.5392 28.7493H36.9216C37.1361 28.7653 37.3367 28.8619 37.4831 29.0196C37.6294 29.1774 37.7107 29.3846 37.7107 29.5998C37.7107 29.8149 37.6294 30.0222 37.4831 30.1799C37.3367 30.3376 37.1361 30.4342 36.9216 30.4503Z" fill="white" stroke="white" stroke-width="0.25"/>
<path d="M36.9896 30.4598C36.776 30.4594 36.5704 30.3788 36.4134 30.2342C36.2564 30.0895 36.1593 29.8911 36.1414 29.6784C36.1414 29.5926 36.0033 27.6057 37.223 26.2906C37.5813 25.9172 38.0155 25.6248 38.4963 25.4333C38.9771 25.2418 39.4934 25.1556 40.0104 25.1805C41.0187 25.1718 41.9915 25.5524 42.7263 26.243C43.5411 27.0339 43.9461 28.1489 43.9318 29.6212C43.9281 29.8441 43.8372 30.0567 43.6787 30.2134C43.5202 30.3701 43.3066 30.4586 43.0837 30.4598C42.9723 30.4585 42.8622 30.4354 42.7598 30.3916C42.6574 30.3478 42.5646 30.2843 42.4867 30.2047C42.4088 30.125 42.3474 30.0308 42.306 29.9274C42.2645 29.8241 42.2438 29.7135 42.2451 29.6021C42.283 29.2198 42.2426 28.8337 42.1263 28.4675C42.0099 28.1013 41.8201 27.7627 41.5685 27.4723C41.1516 27.0947 40.6109 26.8828 40.0485 26.8767C39.7611 26.8532 39.472 26.8917 39.2008 26.9895C38.9295 27.0873 38.6824 27.2422 38.4762 27.4437C38.0242 28.0493 37.8014 28.7955 37.8472 29.5497C37.8556 29.6612 37.842 29.7732 37.807 29.8793C37.772 29.9855 37.7164 30.0836 37.6433 30.1682C37.5703 30.2528 37.4812 30.3221 37.3813 30.3721C37.2813 30.4222 37.1725 30.452 37.061 30.4598H36.9896Z" fill="white" stroke="white" stroke-width="0.25"/>
</svg>
