<svg width="400" height="53" fill="none" xmlns="http://www.w3.org/2000/svg"><g clip-path="url(#a)"><path d="m193.316 18.91-2.808-6.32h-1.668v8.652h1.728v-4.74l2.172 4.74h1.104l2.208-4.8v4.8h1.732V12.59h-1.668l-2.8 6.32ZM203.828 15.97a1.833 1.833 0 0 0-.676-.704 2.511 2.511 0 0 0-1.344-.368c-.54 0-1.016.128-1.424.388-.408.256-.728.628-.956 1.108-.228.484-.344 1.06-.344 1.728 0 .668.112 1.252.336 1.744.224.492.544.864.956 1.116.412.252.888.38 1.428.38.492 0 .932-.116 1.324-.348.284-.168.496-.38.64-.628l.008.856h1.84v-4.6a13.622 13.622 0 0 1 .096-1.604h-1.78l-.116.936.012-.004Zm-.424 3.56c-.264.3-.604.448-1.032.448-.428 0-.78-.148-1.036-.448-.256-.3-.388-.768-.388-1.404 0-.636.132-1.092.392-1.392.26-.3.604-.448 1.032-.448.428 0 .768.148 1.032.448.26.3.392.764.392 1.392 0 .628-.132 1.108-.392 1.404ZM210.936 14.898c-.492 0-.928.112-1.308.336a2.23 2.23 0 0 0-.752.768l-.112-.968h-1.792c.04.26.068.528.08.796.012.268.02.54.02.808v4.6h1.852v-3.484c0-.432.124-.78.376-1.036.248-.256.58-.388.988-.388.32 0 .564.096.732.284.168.188.252.508.252.956v3.668h1.852v-3.756c0-.884-.18-1.536-.544-1.956-.364-.42-.908-.632-1.636-.632l-.008.004ZM218.976 15.97a1.833 1.833 0 0 0-.676-.704 2.511 2.511 0 0 0-1.344-.368c-.54 0-1.016.128-1.424.388-.408.256-.728.628-.956 1.108-.228.484-.344 1.06-.344 1.728 0 .668.112 1.252.336 1.744.224.492.544.864.956 1.116.412.252.888.38 1.428.38.492 0 .932-.116 1.324-.348.284-.168.496-.38.64-.628l.008.856h1.84v-4.6a13.622 13.622 0 0 1 .096-1.604h-1.78l-.116.936.012-.004Zm-.424 3.56c-.264.3-.604.448-1.032.448-.428 0-.78-.148-1.036-.448-.256-.3-.388-.768-.388-1.404 0-.636.132-1.092.392-1.392.26-.3.604-.448 1.032-.448.428 0 .768.148 1.032.448.26.3.392.764.392 1.392 0 .628-.132 1.108-.392 1.404ZM232.428 12.59h-7.412v1.56h2.736v7.092h1.928V14.15h2.748v-1.56ZM236.984 15.298c-.488-.264-1.06-.4-1.724-.4-.664 0-1.248.132-1.736.4a2.771 2.771 0 0 0-1.128 1.112c-.264.472-.4 1.048-.4 1.716 0 .668.132 1.248.4 1.732.264.484.644.856 1.128 1.116.488.26 1.06.392 1.724.392.664 0 1.248-.132 1.736-.392a2.756 2.756 0 0 0 1.128-1.116c.264-.484.4-1.06.4-1.732 0-.672-.132-1.22-.4-1.704a2.8 2.8 0 0 0-1.128-1.124Zm-.716 4.232c-.252.3-.588.448-1.004.448-.416 0-.776-.148-1.024-.448-.248-.3-.376-.764-.376-1.392 0-.628.128-1.104.38-1.404.252-.3.592-.448 1.02-.448.428 0 .752.148 1.004.448.252.3.38.768.38 1.404 0 .636-.128 1.092-.38 1.392ZM243.504 14.898c-.492 0-.928.112-1.312.336-.292.172-.516.42-.7.704V12.21h-1.852v9.028h1.852V17.73c0-.424.124-.764.376-1.02.248-.252.58-.38.988-.38.336 0 .584.096.744.284.16.188.24.5.24.932v3.692h1.852v-3.78c0-.868-.18-1.512-.532-1.932-.356-.42-.908-.632-1.648-.632l-.008.004ZM251.185 18.518c0 .424-.12.768-.36 1.024s-.544.388-.916.388c-.328 0-.576-.096-.744-.284-.168-.188-.252-.484-.252-.884v-3.728h-1.852v3.74c0 .876.192 1.524.572 1.952.38.428.96.636 1.736.636.476 0 .884-.112 1.232-.336.252-.16.448-.396.62-.66v.876h1.816v-6.208h-1.852v3.484ZM262.52 18.91l-2.808-6.32h-1.668v8.652h1.728v-4.74l2.172 4.74h1.104l2.208-4.8v4.8h1.732V12.59h-1.668l-2.8 6.32ZM273.032 15.97a1.833 1.833 0 0 0-.676-.704 2.511 2.511 0 0 0-1.344-.368c-.54 0-1.012.128-1.424.388-.408.256-.728.628-.956 1.108-.228.484-.344 1.06-.344 1.728 0 .668.112 1.252.336 1.744.224.492.544.864.956 1.116.412.252.888.38 1.428.38.492 0 .932-.116 1.324-.348.28-.168.496-.376.64-.628l.008.856h1.84v-4.6a13.622 13.622 0 0 1 .096-1.604h-1.78l-.116.936.012-.004Zm-.424 3.56c-.26.3-.604.448-1.032.448-.428 0-.78-.148-1.036-.448-.256-.3-.388-.768-.388-1.404 0-.636.132-1.092.392-1.392.26-.3.604-.448 1.032-.448.428 0 .768.148 1.032.448.264.3.392.764.392 1.392 0 .628-.132 1.108-.392 1.404ZM273.648 12.702h-4v1.056h4v-1.056ZM278.604 13.046l-1.852.456v1.532h-1.176v1.36h1.176v2.54c0 .816.204 1.428.612 1.828.408.4 1.016.6 1.828.6.164 0 .332-.012.504-.036a1.87 1.87 0 0 0 .492-.136v-1.448c-.108.04-.212.072-.32.1a1.751 1.751 0 0 1-.38.036c-.264 0-.476-.072-.636-.22-.164-.148-.244-.416-.244-.808v-2.452h1.596v-1.36h-1.596V13.05l-.004-.004ZM285.52 15.97a1.833 1.833 0 0 0-.676-.704 2.511 2.511 0 0 0-1.344-.368c-.54 0-1.012.128-1.424.388-.408.256-.728.628-.956 1.108-.228.484-.344 1.06-.344 1.728 0 .668.112 1.252.336 1.744.224.492.544.864.956 1.116.412.252.888.38 1.428.38.492 0 .932-.116 1.324-.348.284-.168.496-.376.64-.628l.008.856h1.84v-4.6a13.622 13.622 0 0 1 .096-1.604h-1.78l-.116.936.012-.004Zm-.424 3.56c-.26.3-.604.448-1.032.448-.428 0-.78-.148-1.036-.448-.256-.3-.388-.768-.388-1.404 0-.636.132-1.092.392-1.392.26-.3.604-.448 1.032-.448.428 0 .768.148 1.032.448.264.3.392.764.392 1.392 0 .628-.132 1.108-.392 1.404ZM292.848 18.518c0 .424-.12.768-.36 1.024s-.544.388-.916.388c-.328 0-.576-.096-.744-.284-.168-.188-.252-.484-.252-.884v-3.728h-1.852v3.74c0 .876.192 1.524.572 1.952.38.424.96.636 1.736.636.476 0 .884-.112 1.232-.336.252-.16.448-.392.62-.66v.876h1.816v-6.208h-1.852v3.484ZM299.78 14.898c-.344 0-.652.068-.928.208a1.77 1.77 0 0 0-.688.636 2.683 2.683 0 0 0-.188.388l-.136-1.1h-1.792c.04.26.068.532.08.808.012.276.016.556.016.836v4.564h1.876v-3.104c0-.352.052-.656.152-.916.1-.256.268-.452.504-.584.232-.132.52-.196.864-.196.172 0 .316.012.436.032s.264.068.436.14l.024-1.62c-.1-.04-.192-.068-.276-.08a2.964 2.964 0 0 0-.388-.02l.008.008ZM305.516 15.97a1.833 1.833 0 0 0-.676-.704 2.511 2.511 0 0 0-1.344-.368c-.54 0-1.012.128-1.424.388-.408.256-.728.628-.956 1.108-.228.484-.344 1.06-.344 1.728 0 .668.112 1.252.336 1.744.224.492.544.864.956 1.116.412.252.888.38 1.428.38.492 0 .932-.116 1.324-.348.28-.168.496-.376.64-.628l.008.856h1.84v-4.6a13.622 13.622 0 0 1 .096-1.604h-1.78l-.116.936.012-.004Zm-.424 3.56c-.26.3-.604.448-1.032.448-.428 0-.78-.148-1.036-.448-.256-.3-.388-.768-.388-1.404 0-.636.132-1.092.392-1.392.26-.3.604-.448 1.032-.448.428 0 .768.148 1.032.448.264.3.392.764.392 1.392 0 .628-.132 1.108-.392 1.404ZM312.624 14.898c-.492 0-.928.112-1.308.336a2.23 2.23 0 0 0-.752.768l-.112-.968h-1.792c.04.26.068.528.08.796.012.268.016.54.016.808v4.6h1.852v-3.484c0-.432.124-.78.376-1.036.248-.256.58-.388.988-.388.32 0 .564.096.732.284.168.188.252.508.252.956v3.668h1.852v-3.756c0-.884-.18-1.536-.544-1.956-.364-.42-.912-.632-1.64-.632v.004ZM320.688 15.986a1.719 1.719 0 0 0-.684-.744 2.517 2.517 0 0 0-1.32-.344c-.556 0-1.04.124-1.456.376a2.539 2.539 0 0 0-.964 1.072c-.228.464-.344 1.012-.344 1.644 0 .632.116 1.176.344 1.644.228.464.548.824.964 1.072.412.252.896.376 1.456.376.5 0 .94-.116 1.324-.344.296-.176.516-.408.664-.688v1.032c0 .492-.136.868-.404 1.128-.268.264-.68.392-1.228.392a4.27 4.27 0 0 1-.804-.076 4.583 4.583 0 0 1-.804-.216 3.41 3.41 0 0 1-.724-.364l-.368 1.324c.36.236.776.416 1.252.532.476.12 1.008.18 1.596.18 1.072 0 1.888-.268 2.452-.804.564-.536.848-1.312.848-2.324v-4.22c0-.268.008-.54.024-.808.016-.272.04-.536.076-.796h-1.792l-.108.952v.004Zm-.428 3.268c-.256.296-.604.44-1.036.44-.432 0-.792-.148-1.048-.44-.256-.296-.388-.716-.388-1.264s.128-.968.388-1.264c.256-.296.608-.44 1.048-.44.44 0 .78.148 1.036.44.256.296.388.716.388 1.264s-.128.968-.388 1.264ZM328.372 15.97a1.833 1.833 0 0 0-.676-.704 2.511 2.511 0 0 0-1.344-.368c-.54 0-1.012.128-1.424.388-.408.256-.728.628-.956 1.108-.228.484-.344 1.06-.344 1.728 0 .668.112 1.252.336 1.744.224.492.544.864.956 1.116.412.252.888.38 1.428.38.492 0 .932-.116 1.324-.348.284-.168.496-.376.64-.628l.008.856h1.84v-4.6a13.622 13.622 0 0 1 .096-1.604h-1.78l-.116.936.012-.004Zm-.424 3.56c-.26.3-.604.448-1.032.448-.428 0-.78-.148-1.036-.448-.256-.3-.388-.768-.388-1.404 0-.636.132-1.092.392-1.392.26-.3.604-.448 1.032-.448.428 0 .768.148 1.032.448.264.3.392.764.392 1.392 0 .628-.132 1.108-.392 1.404ZM339.704 15.298c-.488-.264-1.06-.4-1.724-.4-.664 0-1.248.132-1.736.4a2.771 2.771 0 0 0-1.128 1.112c-.264.472-.4 1.048-.4 1.716 0 .668.132 1.248.4 1.732.264.484.64.856 1.128 1.116.488.26 1.06.392 1.724.392.664 0 1.248-.132 1.736-.392a2.756 2.756 0 0 0 1.128-1.116c.264-.484.4-1.06.4-1.732 0-.672-.132-1.22-.4-1.704a2.8 2.8 0 0 0-1.128-1.124Zm-.716 4.232c-.252.3-.588.448-1.008.448-.42 0-.776-.148-1.024-.448-.248-.3-.372-.764-.372-1.392 0-.628.128-1.104.38-1.404.252-.3.592-.448 1.02-.448.428 0 .752.148 1.008.448.252.3.38.768.38 1.404 0 .636-.128 1.092-.38 1.392h-.004ZM348.864 12.59l-3.976 8.648h1.912l.816-1.876h4.088l.816 1.876h1.924l-4-8.648h-1.584.004Zm.772 2h.048l1.408 3.288h-2.836l1.376-3.288h.004ZM359.64 15.298c-.488-.264-1.06-.4-1.724-.4-.664 0-1.248.132-1.736.4a2.771 2.771 0 0 0-1.128 1.112c-.264.472-.4 1.048-.4 1.716 0 .668.132 1.248.4 1.732.264.484.64.856 1.128 1.116.488.26 1.06.392 1.724.392.664 0 1.248-.132 1.736-.392a2.756 2.756 0 0 0 1.128-1.116c.264-.484.4-1.06.4-1.732 0-.672-.132-1.22-.4-1.704a2.8 2.8 0 0 0-1.128-1.124Zm-.716 4.232c-.252.3-.588.448-1.008.448-.42 0-.776-.148-1.024-.448-.248-.3-.372-.764-.372-1.392 0-.628.128-1.104.38-1.404.252-.3.592-.448 1.02-.448.428 0 .752.148 1.008.448.252.3.38.768.38 1.404 0 .636-.128 1.092-.38 1.392h-.004ZM364.564 13.046l-1.852.456v1.532h-1.176v1.36h1.176v2.54c0 .816.204 1.428.612 1.828.408.4 1.016.6 1.828.6.164 0 .332-.012.504-.036a1.87 1.87 0 0 0 .492-.136v-1.448c-.108.04-.212.072-.32.1a1.751 1.751 0 0 1-.38.036c-.264 0-.476-.072-.636-.22-.164-.148-.244-.416-.244-.808v-2.452h1.596v-1.36h-1.596V13.05l-.004-.004ZM371.308 15.29c-.404-.264-.92-.392-1.54-.392s-1.164.136-1.624.412c-.46.276-.824.652-1.08 1.136-.256.484-.388 1.044-.388 1.68 0 1.008.304 1.796.908 2.376.604.576 1.448.864 2.528.864.464 0 .904-.06 1.312-.184a3.42 3.42 0 0 0 1.056-.516l-.504-1.228a2.94 2.94 0 0 1-.852.412c-.3.088-.62.128-.964.128-.556 0-.984-.148-1.288-.44-.252-.248-.392-.612-.436-1.08h4.116v-.428c0-.62-.108-1.168-.32-1.636a2.452 2.452 0 0 0-.928-1.096l.004-.008Zm-1.528.848c.392 0 .696.132.908.4.188.236.288.576.308 1.012h-2.552c.044-.384.152-.696.324-.932.232-.32.572-.48 1.012-.48ZM378.104 15.97a1.833 1.833 0 0 0-.676-.704 2.511 2.511 0 0 0-1.344-.368c-.54 0-1.012.128-1.424.388-.408.256-.728.628-.956 1.108-.228.484-.344 1.06-.344 1.728 0 .668.112 1.252.336 1.744.224.492.544.864.956 1.116.412.252.888.38 1.428.38.492 0 .932-.116 1.324-.348.28-.168.496-.376.64-.628l.008.856h1.84v-4.6a13.622 13.622 0 0 1 .096-1.604h-1.78l-.116.936.012-.004Zm-.424 3.56c-.26.3-.604.448-1.032.448-.428 0-.78-.148-1.036-.448-.256-.3-.388-.768-.388-1.404 0-.636.132-1.092.392-1.392.26-.3.604-.448 1.032-.448.428 0 .768.148 1.032.448.264.3.392.764.392 1.392 0 .628-.132 1.108-.392 1.404ZM384.98 14.898c-.344 0-.652.068-.928.208a1.77 1.77 0 0 0-.688.636 2.683 2.683 0 0 0-.188.388l-.136-1.1h-1.792c.04.26.068.532.08.808.012.276.016.556.016.836v4.564h1.876v-3.104c0-.352.052-.656.152-.916.1-.256.268-.452.504-.584.232-.132.52-.196.864-.196.172 0 .316.012.436.032s.264.068.436.14l.024-1.62c-.1-.04-.192-.068-.276-.08a2.964 2.964 0 0 0-.388-.02l.008.008ZM390.912 15.298c-.488-.264-1.06-.4-1.724-.4-.664 0-1.248.132-1.736.4a2.771 2.771 0 0 0-1.128 1.112c-.264.472-.4 1.048-.4 1.716 0 .668.132 1.248.4 1.732.264.484.64.856 1.128 1.116.488.26 1.06.392 1.724.392.664 0 1.248-.132 1.736-.392a2.756 2.756 0 0 0 1.128-1.116c.264-.484.4-1.06.4-1.732 0-.672-.132-1.22-.4-1.704a2.8 2.8 0 0 0-1.128-1.124Zm-.716 4.232c-.252.3-.588.448-1.008.448-.42 0-.776-.148-1.024-.448-.248-.3-.372-.764-.372-1.392 0-.628.128-1.104.38-1.404.252-.3.592-.448 1.02-.448.428 0 .752.148 1.008.448.252.3.38.768.38 1.404 0 .636-.128 1.092-.38 1.392h-.004ZM398.132 15.034l-.116.936a1.833 1.833 0 0 0-.676-.704 2.511 2.511 0 0 0-1.344-.368c-.54 0-1.012.128-1.424.388-.408.256-.728.628-.956 1.108-.228.484-.344 1.06-.344 1.728 0 .668.112 1.252.336 1.744.224.492.544.864.956 1.116.412.252.888.38 1.428.38.492 0 .932-.116 1.324-.348.28-.168.496-.376.64-.628l.008.856h1.84v-4.6a13.622 13.622 0 0 1 .096-1.604h-1.78l.012-.004Zm-.54 4.496c-.26.3-.604.448-1.032.448-.428 0-.78-.148-1.036-.448-.256-.3-.388-.768-.388-1.404 0-.636.132-1.092.392-1.392.26-.3.604-.448 1.032-.448.428 0 .768.148 1.032.448.264.3.392.764.392 1.392 0 .628-.132 1.108-.392 1.404Z" fill="#232B2D"/><path d="m194.804 35.898-4.912-6.444h-.964v8.488h1.168v-6.476l4.924 6.476h.952v-8.488h-1.168v6.444ZM201.848 32.126c-.384-.24-.864-.36-1.432-.36s-1.084.132-1.524.392c-.436.26-.78.628-1.024 1.1-.244.476-.368 1.028-.368 1.66 0 .98.28 1.744.844 2.3.56.556 1.332.832 2.312.832.448 0 .876-.068 1.276-.2s.744-.324 1.024-.572l-.396-.832c-.28.232-.576.4-.884.5a3.2 3.2 0 0 1-.992.152c-.644 0-1.136-.18-1.488-.54-.324-.336-.492-.836-.516-1.48h4.348v-.384c0-.592-.1-1.108-.3-1.548a2.277 2.277 0 0 0-.88-1.016v-.004Zm-2.72 1.088c.304-.388.74-.584 1.3-.584.504 0 .892.168 1.16.5.244.304.372.72.392 1.244h-3.288c.056-.472.196-.86.432-1.16h.004ZM210.892 36.51l-1.676-4.636h-.94l-1.684 4.62-1.64-4.62h-1.264l2.3 6.068h1.132l1.596-4.38 1.616 4.38h1.108l2.312-6.068h-1.216l-1.644 4.636ZM223.876 30.37v-.916h-6.152v1.048h4.66l-4.66 6.524v.916h6.296v-1.048h-4.812l4.668-6.524ZM229.14 32.126c-.384-.24-.864-.36-1.432-.36s-1.084.132-1.524.392c-.436.26-.78.628-1.024 1.1-.244.476-.368 1.028-.368 1.66 0 .98.28 1.744.844 2.3.56.556 1.332.832 2.312.832.448 0 .876-.068 1.276-.2s.744-.324 1.024-.572l-.396-.832c-.28.232-.576.4-.884.5a3.2 3.2 0 0 1-.992.152c-.644 0-1.136-.18-1.488-.54-.324-.336-.492-.836-.516-1.48h4.348v-.384c0-.592-.1-1.108-.3-1.548a2.277 2.277 0 0 0-.88-1.016v-.004Zm-2.72 1.088c.304-.388.74-.584 1.3-.584.504 0 .892.168 1.16.5.244.304.372.72.392 1.244h-3.288c.056-.472.196-.86.432-1.16h.004ZM236.096 32.958a1.854 1.854 0 0 0-.676-.796c-.392-.264-.856-.396-1.384-.396-.528 0-1.008.128-1.408.38-.4.252-.712.612-.932 1.076-.22.464-.332 1.028-.332 1.684 0 .656.112 1.212.332 1.684.22.476.532.836.932 1.084.4.248.872.372 1.408.372.536 0 .968-.128 1.368-.392.292-.192.508-.436.656-.728v1.012h1.216v-4.612c0-.232.012-.472.032-.716s.044-.492.068-.74h-1.18l-.096 1.084-.004.004Zm-.5 3.588c-.316.368-.736.552-1.256.552s-.964-.184-1.276-.552c-.312-.368-.468-.916-.468-1.636 0-.72.16-1.268.476-1.632.316-.364.74-.548 1.268-.548s.94.184 1.256.548c.316.364.476.908.476 1.632 0 .724-.16 1.268-.476 1.636ZM240.26 29.082h-1.216v8.86h1.216v-8.86ZM246.428 32.958a1.854 1.854 0 0 0-.676-.796c-.392-.264-.856-.396-1.384-.396-.528 0-1.008.128-1.408.38-.4.252-.712.612-.932 1.076-.22.464-.332 1.028-.332 1.684 0 .656.112 1.212.332 1.684.22.476.532.836.932 1.084.4.248.872.372 1.408.372.536 0 .968-.128 1.368-.392.292-.192.508-.436.656-.728v1.012h1.216v-4.612c0-.232.008-.472.032-.716.02-.244.044-.492.068-.74h-1.18l-.096 1.084-.004.004Zm-.5 3.584c-.316.368-.736.552-1.256.552s-.964-.184-1.276-.552c-.312-.368-.468-.916-.468-1.636 0-.72.16-1.268.476-1.632.316-.364.74-.548 1.268-.548s.94.184 1.256.548c.316.364.476.908.476 1.632 0 .724-.16 1.268-.476 1.636ZM252.612 31.766c-.504 0-.952.12-1.336.356-.316.196-.548.48-.728.816l-.092-1.064h-1.18c.024.248.044.496.068.74.02.244.032.484.032.716v4.612h1.216v-3.444c0-.536.152-.964.456-1.284.304-.316.716-.476 1.228-.476.432 0 .756.12.968.356.212.236.32.624.32 1.16v3.684h1.216v-3.756c0-.828-.184-1.436-.548-1.828-.364-.392-.904-.588-1.62-.588ZM260.86 32.866a1.879 1.879 0 0 0-.644-.708 2.458 2.458 0 0 0-1.38-.392c-.524 0-.996.128-1.404.38-.404.252-.72.612-.94 1.076-.22.464-.332 1.028-.332 1.684 0 .656.112 1.212.332 1.684.22.476.532.836.94 1.084.404.248.872.372 1.404.372.532 0 .992-.132 1.384-.396.284-.192.5-.436.648-.728v1.016h1.204v-8.86h-1.216v3.784l.004.004Zm-.456 3.68c-.32.368-.744.552-1.264.552s-.952-.184-1.268-.552c-.316-.368-.476-.916-.476-1.636 0-.72.16-1.268.476-1.632.316-.364.74-.548 1.268-.548s.944.184 1.264.548c.32.364.48.908.48 1.632 0 .724-.16 1.268-.48 1.636ZM272.968 29.878c-.592-.352-1.3-.528-2.12-.528-.82 0-1.54.176-2.136.528a3.434 3.434 0 0 0-1.364 1.504c-.312.648-.468 1.42-.468 2.312 0 .892.156 1.652.476 2.304.316.656.772 1.16 1.364 1.516.596.356 1.304.536 2.132.536.1 0 .196-.012.292-.016.152.28.328.56.532.828.22.292.456.56.708.8.252.24.504.436.752.588l.844-.7a6.802 6.802 0 0 1-1.028-.872 4.522 4.522 0 0 1-.652-.868 3.55 3.55 0 0 0 .664-.3 3.582 3.582 0 0 0 1.384-1.516c.324-.656.488-1.428.488-2.316 0-.888-.164-1.648-.488-2.3a3.542 3.542 0 0 0-1.38-1.504v.004Zm-.144 6.228c-.464.572-1.124.86-1.976.86-.852 0-1.536-.288-1.988-.868-.448-.576-.676-1.38-.676-2.408s.224-1.836.676-2.408c.448-.572 1.112-.856 1.988-.856.876 0 1.52.284 1.98.856.46.572.692 1.372.692 2.408 0 1.036-.232 1.84-.7 2.412l.004.004ZM280.496 35.318c0 .532-.148.956-.444 1.276-.296.32-.688.48-1.168.48-.424 0-.744-.12-.952-.36-.208-.24-.312-.612-.312-1.12v-3.72h-1.216v3.744c0 .828.184 1.44.548 1.836.364.396.912.596 1.644.596.488 0 .92-.124 1.288-.368.28-.184.484-.452.652-.756v1.016h1.18v-6.068H280.5v3.444h-.004ZM287.876 32.958a1.854 1.854 0 0 0-.676-.796c-.392-.264-.856-.396-1.384-.396-.528 0-1.008.128-1.408.38-.4.252-.712.612-.932 1.076-.22.464-.332 1.028-.332 1.684 0 .656.112 1.212.332 1.684.22.476.532.836.932 1.084.4.248.872.372 1.408.372.536 0 .968-.128 1.368-.392.292-.192.508-.436.656-.728v1.012h1.216v-4.612c0-.232.008-.472.032-.716.02-.244.044-.492.068-.74h-1.18l-.096 1.084-.004.004Zm-.5 3.584c-.316.368-.736.552-1.26.552s-.964-.184-1.276-.552c-.312-.368-.468-.916-.468-1.636 0-.72.16-1.268.476-1.632.316-.364.74-.548 1.268-.548s.94.184 1.26.548c.316.364.476.908.476 1.632 0 .724-.16 1.268-.476 1.636ZM292.04 29.082h-1.216v8.86h1.216v-8.86ZM295.036 31.874h-1.216v6.068h1.216v-6.068ZM295.132 29.346h-1.408v1.264h1.408v-1.264ZM302.332 29.346h-1.408v1.264h1.408v-1.264Z" fill="#005A69"/><path d="M298.384 31.298c0-.432.096-.752.284-.956.188-.204.46-.308.812-.308.136 0 .276.016.42.044.144.028.264.064.36.104v-.988a1.732 1.732 0 0 0-.468-.12 4.003 4.003 0 0 0-.516-.036c-.684 0-1.2.188-1.56.56-.356.372-.536.916-.536 1.632v.648H296v.94h1.18v5.128h1.216v-5.128h2.624v5.128h1.216v-6.068h-3.852v-.58ZM306.764 32.73c.264 0 .536.056.82.164.28.108.536.272.76.488l.396-.856a2.444 2.444 0 0 0-.916-.56 3.376 3.376 0 0 0-1.144-.2c-.612 0-1.14.124-1.588.368-.448.244-.8.6-1.048 1.064-.248.464-.372 1.024-.372 1.672 0 .648.124 1.228.368 1.704s.592.844 1.048 1.096c.452.252.984.38 1.596.38a3.35 3.35 0 0 0 1.124-.2c.372-.132.684-.32.932-.56l-.396-.856a2.121 2.121 0 0 1-.772.488c-.28.1-.548.152-.808.152-.576 0-1.032-.188-1.36-.564-.328-.376-.492-.92-.492-1.624 0-.704.164-1.232.492-1.6.328-.368.784-.552 1.36-.552v-.004ZM314.36 32.958a1.854 1.854 0 0 0-.676-.796c-.392-.264-.856-.396-1.384-.396-.528 0-1.008.128-1.408.38-.4.252-.712.612-.932 1.076-.22.464-.332 1.028-.332 1.684 0 .656.112 1.212.332 1.684.22.476.532.836.932 1.084.4.248.872.372 1.408.372.536 0 .968-.128 1.368-.392.292-.192.508-.436.656-.728v1.012h1.216v-4.612c0-.232.008-.472.032-.716.02-.244.044-.492.068-.74h-1.18l-.096 1.084-.004.004Zm-.5 3.584c-.316.368-.736.552-1.26.552s-.964-.184-1.276-.552c-.312-.368-.468-.916-.468-1.636 0-.72.16-1.268.476-1.632.316-.364.74-.548 1.268-.548s.94.184 1.26.548c.316.364.476.908.476 1.632 0 .724-.16 1.268-.476 1.636ZM318.884 29.95l-1.216.324v1.6h-1.18v.94h1.18v3.096c0 .716.168 1.252.504 1.608.336.356.836.536 1.492.536a2.659 2.659 0 0 0 .876-.16v-.988c-.096.04-.204.076-.32.104a1.734 1.734 0 0 1-.404.044c-.304 0-.536-.096-.696-.288-.16-.192-.24-.512-.24-.964v-2.984h1.684v-.94h-1.684V29.95h.004ZM322.896 31.874h-1.216v6.068h1.216v-6.068ZM322.988 29.346h-1.408v1.264h1.408v-1.264ZM328.848 32.146c-.444-.252-.968-.38-1.572-.38-.604 0-1.124.128-1.564.38-.44.252-.784.612-1.024 1.084-.24.468-.36 1.028-.36 1.68 0 .652.12 1.208.36 1.68.24.468.58.832 1.024 1.084.44.252.964.38 1.564.38.6 0 1.128-.128 1.572-.38a2.582 2.582 0 0 0 1.036-1.084c.244-.468.368-1.028.368-1.68 0-.652-.124-1.212-.368-1.68a2.581 2.581 0 0 0-1.036-1.084Zm-.308 4.4c-.312.368-.732.552-1.264.552s-.94-.184-1.252-.552c-.312-.368-.468-.916-.468-1.636 0-.72.156-1.268.468-1.632.312-.364.732-.548 1.252-.548s.952.184 1.264.548c.312.364.468.908.468 1.632 0 .724-.156 1.268-.468 1.636ZM334.908 31.766c-.504 0-.952.12-1.336.356-.316.196-.548.48-.728.816l-.092-1.064h-1.18c.024.248.044.496.068.74.02.244.032.484.032.716v4.612h1.216v-3.444c0-.536.152-.964.456-1.284.304-.316.716-.476 1.228-.476.432 0 .756.12.968.356.212.236.32.624.32 1.16v3.684h1.216v-3.756c0-.828-.184-1.436-.548-1.828-.364-.392-.904-.588-1.62-.588ZM341.732 34.618l-1.156-.228c-.288-.072-.5-.176-.632-.308a.696.696 0 0 1-.2-.512.81.81 0 0 1 .324-.664c.216-.168.548-.252 1-.252.32 0 .636.056.952.176.312.116.592.28.844.488l.384-.808a2.553 2.553 0 0 0-.964-.552 3.949 3.949 0 0 0-1.252-.192c-.488 0-.916.08-1.284.24-.364.16-.648.38-.844.664-.196.28-.296.6-.296.964 0 .424.132.776.396 1.048s.656.464 1.168.576l1.156.228c.32.064.552.16.692.288.14.128.212.296.212.504a.745.745 0 0 1-.336.644c-.224.156-.556.236-1 .236-.376 0-.744-.056-1.108-.168a3.206 3.206 0 0 1-.988-.504l-.372.832c.28.232.636.412 1.06.54.424.128.892.192 1.396.192.504 0 .932-.072 1.3-.216.368-.144.66-.356.868-.64.208-.28.312-.608.312-.988 0-.432-.136-.78-.408-1.036-.272-.256-.684-.44-1.228-.552h.004ZM351.028 29.454l-3.78 8.488h1.264l.9-2.072h4.34l.9 2.072h1.288l-3.84-8.488h-1.072Zm.516 1.372h.048l1.748 4.044h-3.508l1.712-4.044ZM361.008 35.318c0 .532-.148.956-.444 1.276-.296.32-.688.48-1.168.48-.424 0-.744-.12-.952-.36-.208-.24-.312-.612-.312-1.12v-3.72h-1.216v3.744c0 .828.184 1.44.548 1.836.364.396.912.596 1.644.596.488 0 .92-.124 1.288-.368.28-.184.484-.452.652-.756v1.016h1.18v-6.068h-1.216v3.444h-.004ZM365.58 29.95l-1.216.324v1.6h-1.18v.94h1.18v3.096c0 .716.168 1.252.504 1.608.336.356.836.536 1.492.536a2.659 2.659 0 0 0 .876-.16v-.988c-.096.04-.204.076-.32.104a1.734 1.734 0 0 1-.404.044c-.304 0-.536-.096-.696-.288-.16-.192-.24-.512-.24-.964v-2.984h1.684v-.94h-1.684V29.95h.004ZM371.636 31.766c-.512 0-.968.12-1.36.356-.296.18-.512.444-.688.748v-3.788h-1.216v8.86h1.216v-3.468c0-.524.156-.94.464-1.26.308-.316.72-.476 1.236-.476.44 0 .764.12.968.356.204.236.308.616.308 1.136v3.708h1.216v-3.78c0-.804-.176-1.404-.528-1.8-.352-.396-.892-.596-1.612-.596l-.004.004ZM379.684 32.146c-.444-.252-.968-.38-1.572-.38-.604 0-1.124.128-1.564.38-.44.252-.784.612-1.024 1.084-.24.468-.36 1.028-.36 1.68 0 .652.12 1.208.36 1.68.24.468.58.832 1.024 1.084.44.252.964.38 1.564.38.6 0 1.128-.128 1.572-.38a2.582 2.582 0 0 0 1.036-1.084c.244-.468.368-1.028.368-1.68 0-.652-.124-1.212-.368-1.68a2.581 2.581 0 0 0-1.036-1.084Zm-.308 4.4c-.312.368-.732.552-1.264.552s-.94-.184-1.252-.552c-.312-.368-.468-.916-.468-1.636 0-.72.156-1.268.468-1.632.312-.364.732-.548 1.252-.548s.952.184 1.264.548c.312.364.468.908.468 1.632 0 .724-.156 1.268-.468 1.636ZM385.516 31.766c-.304 0-.596.06-.872.18s-.512.304-.704.552a1.868 1.868 0 0 0-.256.456l-.092-1.084h-1.18a15.458 15.458 0 0 1 .076 1.504v4.564h1.228v-3.42c0-.304.064-.592.192-.856s.316-.476.564-.632c.248-.156.548-.236.904-.236.144 0 .268.008.368.02.1.012.22.048.356.104l.012-1.084a2.07 2.07 0 0 0-.588-.076l-.008.008ZM388.36 29.346h-1.408v1.264h1.408v-1.264ZM388.264 31.874h-1.216v6.068h1.216v-6.068ZM391.62 29.95l-1.216.324v1.6h-1.18v.94h1.18v3.096c0 .716.168 1.252.504 1.608.336.356.836.536 1.492.536a2.659 2.659 0 0 0 .876-.16v-.988c-.096.04-.204.076-.32.104a1.734 1.734 0 0 1-.404.044c-.304 0-.536-.096-.696-.288-.16-.192-.24-.512-.24-.964v-2.984h1.684v-.94h-1.684V29.95h.004ZM398.748 31.874l-1.884 4.656-1.884-4.656h-1.3l2.544 5.96-.184.436c-.12.28-.264.512-.432.692-.168.18-.38.328-.632.44a4.84 4.84 0 0 1-.944.288l.288.988c.328-.056.632-.132.916-.228.28-.096.536-.228.772-.396.232-.168.448-.388.648-.66s.388-.608.568-1.012l2.78-6.5h-1.252l-.004-.008Z" fill="#005A69"/><path d="M47.868 36.868 65.96 11.964V6.036H38.8v6.504h17.944L38.8 37.392v5.976h27.736v-6.5H47.868ZM140.468 43.368h8.128L131.448 6.036h-6.608l-17.144 37.332h8.232l3.58-8.284h17.408l3.552 8.284Zm-18.264-14.524 6.044-13.988 5.996 13.988h-12.04ZM24.644 6.036v23.752L6.028 6.036H0v37.332h7.656V19.592l18.612 23.776h6.084V6.036h-7.708Z" fill="#232B2D"/><path d="M113.676 46.664c-3.02.444-5.56-.196-7.328-.64-1.648-.416-1.912-.676-5.508-1.82 0 0-2.56-.816-4.624-1.376-.084-.024-.172-.044-.256-.068a16.844 16.844 0 0 0 2.804-1.288 16.82 16.82 0 0 0 3.224-2.42c.432-.416 2.032-2 3.384-4.6 2.124-4.088 2.212-7.944 2.24-10.408a21.728 21.728 0 0 0-.764-6.02c-1.296-4.728-5.364-9.684-11.768-10.568 0 0-3.896-.536-7.924 1.208-1.284.496-3.696 1.616-5.5 3.788a13.82 13.82 0 0 0-1.304 1.904 12.876 12.876 0 0 0-1.348 3.448c-.212.936-.604 2.752-.084 4.968.2.86.528 2.2 1.628 3.468.472.544 1.6 1.848 3.148 1.84.62 0 .92-.088 1.208-.2.288-.112.788-.416 1.08-.848.36-.532.316-1.12.284-1.34-.068.076-.544.596-1.252.548a1.481 1.481 0 0 1-.844-.348 1.717 1.717 0 0 1-.612-1.108c-.068-.592.212-1.028.296-1.16.468-.704 1.256-.816 1.36-.828.904-.112 1.544.48 1.724.644.468.432.64.932.728 1.208.308.944.292 2.3-.52 3.392-.788 1.056-1.92 1.324-2.38 1.432-1.264.3-2.292-.036-2.844-.22-1.288-.436-2.08-1.212-2.46-1.592a7.68 7.68 0 0 1-.936-1.16c-.476-.72-1.276-2.136-1.672-4.364v.008a13.954 13.954 0 0 1 .036-4.856c.6-3.236 2.208-5.38 3.232-6.712.776-1.012 2.164-2.784 4.6-4.236 1.872-1.116 3.552-1.556 4.724-1.856.884-.224 1.892-.48 3.064-.58-1.248-.2-2.56-.304-3.94-.304-3.944 0-7.352.82-10.228 2.46-2.876 1.64-5.096 3.972-6.664 6.992-2.6 5.016-2.396 9.932-2.348 10.672.124 1.98.448 7.04 4.408 11.192.932.98 3.7 3.796 8.224 4.476 5.22.784 9.26-1.812 10.224-2.476.22-.152.432-.308.636-.464-1.26.544-2.676.82-4.252.82-3.28 0-5.86-1.144-7.74-3.428-.9-1.096-1.58-2.452-2.048-4.048.208.212.436.412.704.608a6.8 6.8 0 0 0 3.028 1.196c.308.044 1.656.208 3.276-.34.704-.236 1.864-.632 2.848-1.76.312-.36 1.3-1.592 1.356-3.432.016-.532.008-2.876-1.808-4.2-1.012-.74-2.1-.808-2.484-.812-.396-.008-1.42-.008-2.396.676-.264.184-.912.656-1.244 1.536-.112.296-.388 1.04-.064 1.836.156.384.396.644.56.792a4.15 4.15 0 0 1-.612-.612c-.888-1.084-1.004-2.324-1.096-3.452-.124-1.544.1-2.76.204-3.256.492-2.328 1.584-3.848 1.828-4.18a9.909 9.909 0 0 1 2.144-2.144c1.428-1.02 2.952-1.44 4.204-1.604.26-.028.524-.036.788-.036a7.76 7.76 0 0 1 4.06 1.152 9.352 9.352 0 0 1 2.204 1.928c1.292 1.544 2.14 3.592 2.552 6.132.284 1.528.448 3.192.468 4.936.204 6.648-2.3 12.596-6.968 15.748-.524.352-1.304.812-2.3 1.24-5.304-.46-9.32.292-9.32.292-1.984.372-5.236 1.012-8.852 3.196a23.94 23.94 0 0 0-4.312 3.332c6.816-2.3 12.18-2.256 15.556-1.884 3.7.404 7.436 1.46 8.424 1.744 5.82 1.668 7.356 3.112 11.732 3.428 1.272.092 4.012.264 7.208-.692 5.552-1.66 8.844-5.636 10.224-7.556-2.916 2.244-5.628 2.852-7.012 3.056h-.008ZM166.696 0h-.588v50.836h.588V0Z" fill="#1A9AA9"/></g><defs><clipPath id="a"><path fill="#fff" d="M0 0h400v51.928H0z"/></clipPath></defs></svg>
