<svg width="34" height="24" viewBox="0 0 34 24" fill="none" xmlns="http://www.w3.org/2000/svg">
<path d="M17 22.4012C8.92364 22.4012 3.03047 13.9222 1.81919 12C3.03047 10.085 8.84385 1.60239 17 1.60239C25.0727 1.60239 30.9695 10.085 32.1808 12C30.9695 13.9222 25.0727 22.4012 17 22.4012ZM17 0C6.90364 0 0.444725 11.1377 0.121961 11.6012C0.0424381 11.7193 0 11.8581 0 12C0 12.142 0.0424381 12.2807 0.121961 12.3988C0.444725 12.8802 6.98705 24 17 24C27.0129 24 33.5516 12.8802 33.878 12.3988C33.9576 12.2807 34 12.142 34 12C34 11.8581 33.9576 11.7193 33.878 11.6012C33.5516 11.1234 27.0129 0 17 0Z" fill="#1F9055"/>
<path d="M17.0003 16.804C16.0412 16.8047 15.1034 16.5235 14.3056 15.9962C13.5077 15.4688 12.8857 14.7188 12.5181 13.8411C12.1506 12.9634 12.054 11.9975 12.2407 11.0654C12.4274 10.1334 12.8889 9.27714 13.5669 8.60499C14.2448 7.93283 15.1088 7.47498 16.0494 7.28934C16.9901 7.1037 17.9652 7.19862 18.8514 7.56208C19.7376 7.92555 20.4951 8.54124 21.028 9.33126C21.561 10.1213 21.8454 11.0502 21.8454 12.0004C21.8416 13.2726 21.33 14.4916 20.4223 15.3916C19.5146 16.2915 18.2845 16.7992 17.0003 16.804ZM17.0003 5.60156C15.7219 5.60085 14.4719 5.97583 13.4086 6.67907C12.3453 7.3823 11.5164 8.38218 11.0268 9.55221C10.5372 10.7222 10.4089 12.0098 10.6582 13.2521C10.9074 14.4944 11.523 15.6355 12.427 16.5311C13.331 17.4267 14.4829 18.0366 15.7368 18.2835C16.9908 18.5304 18.2905 18.4033 19.4715 17.9183C20.6525 17.4333 21.6618 16.6121 22.3716 15.5587C23.0815 14.5053 23.46 13.2669 23.4593 12.0004C23.4545 10.3048 22.7725 8.67995 21.5622 7.48097C20.352 6.28198 18.7119 5.6063 17.0003 5.60156Z" fill="#1F9055"/>
</svg>
