<svg width="14" height="16" viewBox="0 0 14 16" fill="none" xmlns="http://www.w3.org/2000/svg">
<g clip-path="url(#clip0)">
<path d="M12.6912 15.9997H1.2602C1.1679 16.0028 1.07594 15.9871 0.99002 15.9537C0.904101 15.9202 0.826066 15.8696 0.760762 15.805C0.695458 15.7405 0.644281 15.6634 0.61041 15.5784C0.57654 15.4935 0.5607 15.4026 0.563875 15.3114V0.687946C0.5607 0.596713 0.57654 0.505809 0.61041 0.420883C0.644281 0.335957 0.695458 0.258823 0.760762 0.194274C0.826066 0.129724 0.904101 0.0791381 0.99002 0.0456591C1.07594 0.0121801 1.1679 -0.00347689 1.2602 -0.000338922H12.6912C12.7835 -0.00347689 12.8755 0.0121801 12.9614 0.0456591C13.0473 0.0791381 13.1254 0.129724 13.1907 0.194274C13.256 0.258823 13.3072 0.335957 13.341 0.420883C13.3749 0.505809 13.3907 0.596713 13.3876 0.687946V15.3114C13.3907 15.4026 13.3749 15.4935 13.341 15.5784C13.3072 15.6634 13.256 15.7405 13.1907 15.805C13.1254 15.8696 13.0473 15.9202 12.9614 15.9537C12.8755 15.9871 12.7835 16.0028 12.6912 15.9997ZM1.28448 15.2859H12.6624V0.711938H1.28448V15.2859ZM10.6735 14.6696H10.0015C9.90919 14.6727 9.81722 14.6571 9.7313 14.6236C9.64539 14.5901 9.56735 14.5395 9.50205 14.475C9.43674 14.4104 9.38556 14.3333 9.35169 14.2484C9.31782 14.1634 9.30198 14.0725 9.30516 13.9813V9.99404C9.30198 9.9028 9.31782 9.8119 9.35169 9.72697C9.38556 9.64205 9.43674 9.56491 9.50205 9.50036C9.56735 9.43581 9.64539 9.38523 9.7313 9.35175C9.81722 9.31827 9.90919 9.30261 10.0015 9.30575H10.6735C10.7659 9.30263 10.8579 9.31828 10.9439 9.35174C11.0299 9.38521 11.1081 9.43577 11.1735 9.50029C11.2389 9.56482 11.2902 9.64194 11.3243 9.72687C11.3583 9.8118 11.3744 9.90273 11.3714 9.99404V13.9813C11.3744 14.0726 11.3583 14.1635 11.3243 14.2485C11.2902 14.3334 11.2389 14.4105 11.1735 14.475C11.1081 14.5396 11.0299 14.5901 10.9439 14.6236C10.8579 14.657 10.7659 14.6727 10.6735 14.6696ZM10.0258 13.9573H10.6493V10.018H10.0273L10.0258 13.9573ZM7.31175 14.6696H6.63969C6.54739 14.6727 6.45542 14.6571 6.36951 14.6236C6.28359 14.5901 6.20555 14.5395 6.14025 14.475C6.07494 14.4104 6.02377 14.3333 5.9899 14.2484C5.95603 14.1634 5.94019 14.0725 5.94336 13.9813V13.317C5.94019 13.2258 5.95603 13.1349 5.9899 13.0499C6.02377 12.965 6.07494 12.8879 6.14025 12.8233C6.20555 12.7588 6.28359 12.7082 6.36951 12.6747C6.45542 12.6412 6.54739 12.6256 6.63969 12.6287H7.31175C7.40404 12.6256 7.49601 12.6412 7.58193 12.6747C7.66785 12.7082 7.74588 12.7588 7.81119 12.8233C7.87649 12.8879 7.92767 12.965 7.96154 13.0499C7.99541 13.1349 8.01125 13.2258 8.00807 13.317V13.9813C8.01125 14.0725 7.99541 14.1634 7.96154 14.2484C7.92767 14.3333 7.87649 14.4104 7.81119 14.475C7.74588 14.5395 7.66785 14.5901 7.58193 14.6236C7.49601 14.6571 7.40404 14.6727 7.31175 14.6696ZM6.66396 13.9573H7.28747V13.3455H6.66396V13.9573ZM3.94995 14.6696H3.27789C3.18552 14.6727 3.09349 14.657 3.00749 14.6236C2.9215 14.5901 2.84337 14.5396 2.77795 14.475C2.71252 14.4105 2.6612 14.3334 2.62716 14.2485C2.59312 14.1635 2.57708 14.0726 2.58004 13.9813V13.317C2.57708 13.2257 2.59312 13.1348 2.62716 13.0498C2.6612 12.9649 2.71252 12.8878 2.77795 12.8233C2.84337 12.7587 2.9215 12.7082 3.00749 12.6747C3.09349 12.6412 3.18552 12.6256 3.27789 12.6287H3.94995C4.04225 12.6256 4.13421 12.6412 4.22013 12.6747C4.30605 12.7082 4.38408 12.7588 4.44939 12.8233C4.51469 12.8879 4.56587 12.965 4.59974 13.0499C4.63361 13.1349 4.64945 13.2258 4.64628 13.317V13.9813C4.64945 14.0725 4.63361 14.1634 4.59974 14.2484C4.56587 14.3333 4.51469 14.4104 4.44939 14.475C4.38408 14.5395 4.30605 14.5901 4.22013 14.6236C4.13421 14.6571 4.04225 14.6727 3.94995 14.6696ZM3.29458 13.9573H3.91961V13.3455H3.30216L3.29458 13.9573ZM7.31175 11.3466H6.63969C6.54739 11.3498 6.45542 11.3341 6.36951 11.3006C6.28359 11.2671 6.20555 11.2166 6.14025 11.152C6.07494 11.0875 6.02377 11.0103 5.9899 10.9254C5.95603 10.8405 5.94019 10.7496 5.94336 10.6583V9.99404C5.94019 9.9028 5.95603 9.8119 5.9899 9.72697C6.02377 9.64205 6.07494 9.56491 6.14025 9.50036C6.20555 9.43581 6.28359 9.38523 6.36951 9.35175C6.45542 9.31827 6.54739 9.30261 6.63969 9.30575H7.31175C7.40404 9.30261 7.49601 9.31827 7.58193 9.35175C7.66785 9.38523 7.74588 9.43581 7.81119 9.50036C7.87649 9.56491 7.92767 9.64205 7.96154 9.72697C7.99541 9.8119 8.01125 9.9028 8.00807 9.99404V10.6583C8.01125 10.7496 7.99541 10.8405 7.96154 10.9254C7.92767 11.0103 7.87649 11.0875 7.81119 11.152C7.74588 11.2166 7.66785 11.2671 7.58193 11.3006C7.49601 11.3341 7.40404 11.3498 7.31175 11.3466ZM6.66396 10.6343H7.28747V10.018H6.66396V10.6343ZM3.94995 11.3466H3.27789C3.18552 11.3497 3.09349 11.3341 3.00749 11.3006C2.9215 11.2672 2.84337 11.2166 2.77795 11.1521C2.71252 11.0875 2.6612 11.0104 2.62716 10.9255C2.59312 10.8406 2.57708 10.7496 2.58004 10.6583V9.99404C2.57708 9.90273 2.59312 9.8118 2.62716 9.72687C2.6612 9.64194 2.71252 9.56482 2.77795 9.50029C2.84337 9.43577 2.9215 9.38521 3.00749 9.35174C3.09349 9.31828 3.18552 9.30263 3.27789 9.30575H3.94995C4.04225 9.30261 4.13421 9.31827 4.22013 9.35175C4.30605 9.38523 4.38408 9.43581 4.44939 9.50036C4.51469 9.56491 4.56587 9.64205 4.59974 9.72697C4.63361 9.8119 4.64945 9.9028 4.64628 9.99404V10.6583C4.64945 10.7496 4.63361 10.8405 4.59974 10.9254C4.56587 11.0103 4.51469 11.0875 4.44939 11.152C4.38408 11.2166 4.30605 11.2671 4.22013 11.3006C4.13421 11.3341 4.04225 11.3498 3.94995 11.3466ZM3.29458 10.6343H3.91961V10.018H3.30216L3.29458 10.6343ZM10.6675 8.02365H10.0015C9.90919 8.02679 9.81722 8.01113 9.7313 7.97765C9.64539 7.94418 9.56735 7.89359 9.50205 7.82904C9.43674 7.76449 9.38556 7.68736 9.35169 7.60243C9.31782 7.5175 9.30198 7.4266 9.30516 7.33537V6.66958C9.30198 6.57834 9.31782 6.48744 9.35169 6.40251C9.38556 6.31759 9.43674 6.24045 9.50205 6.1759C9.56735 6.11135 9.64539 6.06077 9.7313 6.02729C9.81722 5.99381 9.90919 5.97815 10.0015 5.98129H10.6735C10.7659 5.97817 10.8579 5.99382 10.9439 6.02728C11.0299 6.06075 11.1081 6.11131 11.1735 6.17583C11.2389 6.24036 11.2902 6.31747 11.3243 6.40241C11.3583 6.48734 11.3744 6.57827 11.3714 6.66958V7.33537C11.3744 7.42667 11.3583 7.51761 11.3243 7.60254C11.2902 7.68747 11.2389 7.76459 11.1735 7.82911C11.1081 7.89364 11.0299 7.9442 10.9439 7.97766C10.8579 8.01113 10.7659 8.02678 10.6735 8.02365H10.6675ZM10.0197 7.30988H10.6432V6.69507H10.0273L10.0197 7.30988ZM7.31175 8.02365H6.63969C6.54739 8.02679 6.45542 8.01113 6.36951 7.97765C6.28359 7.94418 6.20555 7.89359 6.14025 7.82904C6.07494 7.76449 6.02377 7.68736 5.9899 7.60243C5.95603 7.5175 5.94019 7.4266 5.94336 7.33537V6.66958C5.94019 6.57834 5.95603 6.48744 5.9899 6.40251C6.02377 6.31759 6.07494 6.24045 6.14025 6.1759C6.20555 6.11135 6.28359 6.06077 6.36951 6.02729C6.45542 5.99381 6.54739 5.97815 6.63969 5.98129H7.31175C7.40404 5.97815 7.49601 5.99381 7.58193 6.02729C7.66785 6.06077 7.74588 6.11135 7.81119 6.1759C7.87649 6.24045 7.92767 6.31759 7.96154 6.40251C7.99541 6.48744 8.01125 6.57834 8.00807 6.66958V7.33537C8.01125 7.4266 7.99541 7.5175 7.96154 7.60243C7.92767 7.68736 7.87649 7.76449 7.81119 7.82904C7.74588 7.89359 7.66785 7.94418 7.58193 7.97765C7.49601 8.01113 7.40404 8.02679 7.31175 8.02365ZM6.66396 7.30988H7.28747V6.69507H6.66396V7.30988ZM3.94995 8.02365H3.27789C3.18552 8.02678 3.09349 8.01113 3.00749 7.97766C2.9215 7.9442 2.84337 7.89364 2.77795 7.82911C2.71252 7.76459 2.6612 7.68747 2.62716 7.60254C2.59312 7.51761 2.57708 7.42667 2.58004 7.33537V6.66958C2.57708 6.57827 2.59312 6.48734 2.62716 6.40241C2.6612 6.31747 2.71252 6.24036 2.77795 6.17583C2.84337 6.11131 2.9215 6.06075 3.00749 6.02728C3.09349 5.99382 3.18552 5.97817 3.27789 5.98129H3.94995C4.04225 5.97815 4.13421 5.99381 4.22013 6.02729C4.30605 6.06077 4.38408 6.11135 4.44939 6.1759C4.51469 6.24045 4.56587 6.31759 4.59974 6.40251C4.63361 6.48744 4.64945 6.57834 4.64628 6.66958V7.33537C4.64945 7.4266 4.63361 7.5175 4.59974 7.60243C4.56587 7.68736 4.51469 7.76449 4.44939 7.82904C4.38408 7.89359 4.30605 7.94418 4.22013 7.97765C4.13421 8.01113 4.04225 8.02679 3.94995 8.02365ZM3.29458 7.30988H3.91961V6.69507H3.30216L3.29458 7.30988ZM10.6675 4.70069H3.27789C3.18539 4.70383 3.09323 4.68813 3.00713 4.65458C2.92102 4.62102 2.84282 4.57033 2.77738 4.50564C2.71193 4.44095 2.66064 4.36365 2.6267 4.27854C2.59275 4.19344 2.57687 4.10234 2.58004 4.01091V2.68232C2.57708 2.59102 2.59312 2.50008 2.62716 2.41515C2.6612 2.33022 2.71252 2.2531 2.77795 2.18858C2.84337 2.12405 2.9215 2.07349 3.00749 2.04003C3.09349 2.00656 3.18552 1.99091 3.27789 1.99404H10.6735C10.7659 1.99091 10.8579 2.00656 10.9439 2.04003C11.0299 2.07349 11.1081 2.12405 11.1735 2.18858C11.2389 2.2531 11.2902 2.33022 11.3243 2.41515C11.3583 2.50008 11.3744 2.59102 11.3714 2.68232V4.01091C11.3746 4.10234 11.3587 4.19344 11.3247 4.27854C11.2908 4.36365 11.2395 4.44095 11.1741 4.50564C11.1086 4.57033 11.0304 4.62102 10.9443 4.65458C10.8582 4.68813 10.766 4.70383 10.6735 4.70069H10.6675ZM3.29458 3.98691H10.6493V2.70632H3.30216L3.29458 3.98691Z" fill="white"/>
</g>
<defs>
<clipPath id="clip0">
<rect width="12.8237" height="16" fill="white" transform="translate(0.564453)"/>
</clipPath>
</defs>
</svg>
