<svg width="44" height="45" viewBox="0 0 44 45" fill="none" xmlns="http://www.w3.org/2000/svg">
<path d="M1.78922 24.013C1.41782 24.3761 1.12283 24.8092 0.921474 25.287C0.720114 25.7647 0.61641 26.2776 0.61641 26.7957C0.61641 27.3137 0.720114 27.8266 0.921474 28.3043C1.12283 28.7821 1.41782 29.2152 1.78922 29.5784C2.54563 30.2786 3.53487 30.6771 4.56794 30.6976H4.77308C4.73435 31.2444 4.81545 31.793 5.0108 32.3054C5.20614 32.8179 5.51106 33.2821 5.90447 33.6659C6.66492 34.3605 7.65702 34.7504 8.68941 34.7604H8.89455C8.85615 35.308 8.93739 35.8574 9.13269 36.3709C9.32799 36.8843 9.63272 37.3496 10.0259 37.7348C10.7724 38.455 11.771 38.8585 12.8109 38.8602H13.0098C12.9719 39.4074 13.0539 39.9563 13.2504 40.4688C13.4468 40.9813 13.7529 41.4453 14.1474 41.8285C14.8895 42.5495 15.8857 42.9532 16.923 42.9532C17.9604 42.9532 18.9565 42.5495 19.6986 41.8285L19.8043 41.7233L21.9676 43.8753C22.7097 44.5963 23.7059 45 24.7432 45C25.7806 45 26.7768 44.5963 27.5188 43.8753C27.914 43.4928 28.22 43.0288 28.4155 42.516C28.611 42.0032 28.6911 41.454 28.6502 40.9071H28.8554C29.3708 40.9129 29.8821 40.8162 30.3595 40.6229C30.8369 40.4296 31.2706 40.1434 31.6354 39.7811C32.0001 39.4188 32.2885 38.9878 32.4836 38.5132C32.6788 38.0387 32.7767 37.5302 32.7717 37.0175V36.8134H32.9768C34.0131 36.8117 35.0078 36.408 35.7493 35.688C36.1445 35.3055 36.4505 34.8415 36.646 34.3287C36.8415 33.8159 36.9216 33.2667 36.8807 32.7197H37.0921C37.6302 32.713 38.1616 32.6003 38.6556 32.388C39.1497 32.1757 39.5965 31.8681 39.9703 31.483C40.7031 30.7755 41.1254 29.8087 41.1452 28.793C41.165 27.7773 40.7807 26.795 40.0759 26.0598L39.9703 25.9547C42.3754 23.3087 43.7909 19.9195 43.9786 16.3572C44.1663 12.7948 43.1148 9.27693 41.001 6.39536C38.8871 3.5138 35.84 1.44447 32.3724 0.535581C28.9047 -0.373306 25.2282 -0.0662752 21.9614 1.40501C18.9385 0.0250316 15.5496 -0.350935 12.2954 0.332673C9.04118 1.01628 6.0944 2.7232 3.89055 5.20114C1.6867 7.67909 0.342708 10.7966 0.0572138 14.0929C-0.22828 17.3892 0.559869 20.6895 2.30518 23.5059L1.78922 24.013ZM3.23142 28.1128C2.8843 27.7564 2.6902 27.2796 2.6902 26.7833C2.6902 26.287 2.8843 25.8102 3.23142 25.4538L6.33961 22.3619C6.51155 22.1849 6.72018 22.0473 6.95099 21.9587C7.1818 21.87 7.42925 21.8325 7.67614 21.8486C8.16732 21.8637 8.63869 22.0448 9.01266 22.3619C9.34946 22.723 9.53414 23.1988 9.52862 23.6914C9.51384 24.1819 9.33191 24.6529 9.01266 25.0271L5.90447 28.119C5.52333 28.4169 5.05266 28.5788 4.56794 28.5788C4.08323 28.5788 3.61256 28.4169 3.23142 28.119V28.1128ZM7.34667 32.2127C7.01095 31.848 6.82466 31.3715 6.82449 30.877C6.84018 30.3885 7.02209 29.9197 7.34045 29.5474L10.4486 26.4556C10.8176 26.1243 11.3007 25.9471 11.7976 25.9608C12.2888 25.976 12.7602 26.157 13.1341 26.4741C13.4812 26.8305 13.6753 27.3073 13.6753 27.8036C13.6753 28.2999 13.4812 28.7767 13.1341 29.1331L10.0259 32.225C9.66761 32.5703 9.18829 32.7634 8.68941 32.7634C8.19052 32.7634 7.71121 32.5703 7.35288 32.225L7.34667 32.2127ZM11.4681 36.3187C11.1361 35.9547 10.9522 35.4807 10.9522 34.9892C10.9698 34.4992 11.1514 34.0291 11.4681 33.6535L14.5763 30.5616C14.9393 30.2266 15.4177 30.0428 15.9129 30.0483C16.404 30.0634 16.8754 30.2445 17.2494 30.5616C17.5965 30.918 17.7906 31.3948 17.7906 31.8911C17.7906 32.3874 17.5965 32.8642 17.2494 33.2206L14.1412 36.3125C13.7818 36.6582 13.3015 36.8515 12.8015 36.8515C12.3016 36.8515 11.8213 36.6582 11.4619 36.3125L11.4681 36.3187ZM15.5772 40.4062C15.23 40.0497 15.0359 39.5729 15.0359 39.0767C15.0359 38.5804 15.23 38.1036 15.5772 37.7472L18.6854 34.6553C19.0499 34.3391 19.5197 34.1694 20.0032 34.1791C20.4947 34.1927 20.9666 34.3739 21.3398 34.6924C21.5078 34.8362 21.647 35.0103 21.75 35.2056C21.75 35.2335 21.7612 35.2602 21.781 35.2799C21.8008 35.2997 21.8277 35.3107 21.8557 35.3107C21.9503 35.5352 21.9866 35.7798 21.9614 36.0219C21.9437 36.5118 21.7621 36.9819 21.4454 37.3576L18.3372 40.4495C17.9585 40.7963 17.4626 40.9888 16.9479 40.9888C16.4331 40.9888 15.9372 40.7963 15.5585 40.4495L15.5772 40.4062ZM26.1264 42.4963C25.7681 42.8416 25.2887 43.0347 24.7899 43.0347C24.291 43.0347 23.8116 42.8416 23.4533 42.4963L21.29 40.3443L22.8317 38.8108C23.2346 38.402 23.5497 37.916 23.7579 37.3823L26.2445 39.8558C26.552 40.2373 26.7107 40.7164 26.6913 41.205C26.6719 41.6936 26.4757 42.1588 26.1388 42.5149L26.1264 42.4963ZM38.0743 6.07377C40.5213 8.49257 41.9396 11.7548 42.0356 15.185C42.1317 18.6153 40.8981 21.9509 38.5902 24.5015L30.6022 15.9307C31.5951 15.524 32.502 14.9344 33.2752 14.1931C33.3699 14.0989 33.445 13.9871 33.4963 13.864C33.5475 13.7409 33.5739 13.609 33.5739 13.4758C33.5739 13.3426 33.5475 13.2106 33.4963 13.0876C33.445 12.9645 33.3699 12.8527 33.2752 12.7585C33.1805 12.6643 33.0681 12.5895 32.9444 12.5385C32.8206 12.4876 32.688 12.4613 32.5541 12.4613C32.4202 12.4613 32.2876 12.4876 32.1639 12.5385C32.0401 12.5895 31.9277 12.6643 31.833 12.7585C27.4132 17.1551 18.8719 12.5544 18.7786 12.5544C18.5757 12.4558 18.347 12.4226 18.1242 12.4591C17.9015 12.4957 17.6956 12.6003 17.5353 12.7585C14.3463 15.9307 11.3625 15.7267 9.71511 15.232L18.9775 6.01812C20.2265 4.75533 21.7156 3.75243 23.3581 3.06785C25.0006 2.38328 26.7637 2.03072 28.5445 2.03072C30.3254 2.03072 32.0884 2.38328 33.731 3.06785C35.3735 3.75243 36.8626 4.75533 38.1116 6.01812L38.0743 6.07377ZM6.01014 6.01812C7.76822 4.2766 9.97431 3.05012 12.3866 2.47311C14.799 1.8961 17.3244 1.99082 19.6862 2.74689C18.8635 3.27766 18.1043 3.90006 17.4234 4.60203L7.14153 14.8053C6.93207 15.0278 6.8183 15.3229 6.82449 15.6277C6.82755 15.7725 6.86733 15.9142 6.94014 16.0396C7.01296 16.165 7.11644 16.2701 7.24099 16.3451C7.34045 16.3451 12.5871 19.8265 18.2502 14.7063C19.8913 15.5288 24.1123 17.2664 28.128 16.6542L38.4162 27.5006C38.589 27.6805 38.7237 27.8932 38.8123 28.126C38.9008 28.3587 38.9413 28.6068 38.9315 28.8555C38.9216 29.1042 38.8615 29.3483 38.7549 29.5735C38.6482 29.7986 38.4971 30 38.3105 30.1658C37.9522 30.5111 37.4729 30.7042 36.974 30.7042C36.4751 30.7042 35.9958 30.5111 35.6374 30.1658L31.9076 26.4556C31.7164 26.2653 31.457 26.1584 31.1865 26.1584C30.916 26.1584 30.6567 26.2653 30.4654 26.4556C30.2742 26.6458 30.1667 26.9038 30.1667 27.1729C30.1667 27.4419 30.2742 27.6999 30.4654 27.8902L34.1952 31.6005C34.5497 31.9531 34.7489 32.4313 34.7489 32.93C34.7489 33.4286 34.5497 33.9069 34.1952 34.2595C33.8408 34.6121 33.36 34.8102 32.8587 34.8102C32.3574 34.8102 31.8767 34.6121 31.5222 34.2595L27.7924 30.5492C27.5983 30.3776 27.3457 30.2862 27.0862 30.2935C26.8267 30.3008 26.5797 30.4063 26.3957 30.5886C26.2118 30.7708 26.1046 31.016 26.0961 31.2741C26.0877 31.5323 26.1785 31.7839 26.3502 31.9777L30.08 35.688C30.4168 36.049 30.6015 36.5249 30.596 37.0175C30.5808 37.5061 30.3988 37.975 30.08 38.347C29.7217 38.6923 29.2424 38.8854 28.7435 38.8854C28.2446 38.8854 27.7653 38.6923 27.4069 38.347L23.2979 34.2533C23.1159 33.874 22.8723 33.5272 22.5768 33.2268C22.1823 32.8475 21.7143 32.5521 21.2013 32.3586C20.6883 32.1651 20.1411 32.0776 19.593 32.1014C19.6404 31.5539 19.5634 31.0027 19.3675 30.4889C19.1717 29.9751 18.862 29.5117 18.4616 29.1331C18.0764 28.7402 17.6102 28.4351 17.0951 28.2386C16.58 28.0422 16.0282 27.9592 15.4777 27.9953C15.5075 27.4505 15.4213 26.9056 15.2249 26.3962C15.0284 25.8868 14.7261 25.4243 14.3377 25.0391C13.9492 24.6539 13.4835 24.3546 12.9708 24.1607C12.4581 23.9668 11.91 23.8828 11.3625 23.914C11.4012 23.3667 11.3195 22.8176 11.1231 22.305C10.9266 21.7923 10.6201 21.3285 10.2249 20.9458C9.86138 20.5814 9.42899 20.2922 8.95261 20.0948C8.47623 19.8974 7.96529 19.7958 7.44924 19.7958C6.93319 19.7958 6.42225 19.8974 5.94587 20.0948C5.46949 20.2922 5.0371 20.5814 4.67362 20.9458L3.54224 22.0712C2.19729 19.4734 1.71349 16.5187 2.16016 13.6305C2.60683 10.7424 3.96106 8.06897 6.0288 5.99338" fill="#1F9055"/>
</svg>
