<svg width="62" height="45" id="fd3be9b7-48ba-4d70-89be-e72104ae01c8" data-name="Layer 1" xmlns="http://www.w3.org/2000/svg" viewBox="0 0 62 45"><ellipse cx="31" cy="22.5" rx="21" ry="21.5" style="fill:#d2e8dd"/><path d="M36.214,16.653a1.074,1.074,0,0,0,.335.706,1.05,1.05,0,0,0,1.443,0,1.077,1.077,0,0,0,.334-.706,6.459,6.459,0,0,0-1.86-4.525,6.329,6.329,0,0,0-4.476-1.883V9.175a1.077,1.077,0,0,0-.31-.756,1.05,1.05,0,0,0-1.5,0,1.077,1.077,0,0,0-.31.756v1.07A6.329,6.329,0,0,0,25.4,12.128a6.459,6.459,0,0,0-1.86,4.525c0,4.163,3.378,5.337,6.336,6.187V31.6a4.21,4.21,0,0,1-2.983-1.253,4.3,4.3,0,0,1-1.241-3.015,1.07,1.07,0,0,0-.281-.8,1.052,1.052,0,0,0-1.55,0,1.07,1.07,0,0,0-.281.8A6.446,6.446,0,0,0,25.4,31.85a6.315,6.315,0,0,0,4.475,1.88V34.8a1.075,1.075,0,0,0,.31.756,1.05,1.05,0,0,0,1.5,0,1.075,1.075,0,0,0,.31-.756V33.73a6.326,6.326,0,0,0,4.474-1.881,6.461,6.461,0,0,0,1.862-4.521c0-4.169-3.378-5.338-6.336-6.192V12.379a4.215,4.215,0,0,1,2.984,1.257A4.308,4.308,0,0,1,36.214,16.653Zm0,10.675a4.305,4.305,0,0,1-1.24,3.015A4.214,4.214,0,0,1,31.99,31.6V23.375C34.631,24.124,36.214,24.979,36.214,27.328ZM29.872,20.6c-2.641-.75-4.224-1.6-4.224-3.948a4.308,4.308,0,0,1,1.24-3.017,4.217,4.217,0,0,1,2.984-1.257Z" style="fill:#1f9055"/><path d="M13.554,10.145a.993.993,0,0,0,.367.208,1,1,0,0,0,.817-.1,1.027,1.027,0,0,0,.306-.292,20.094,20.094,0,0,1,34.455,4.6,20.335,20.335,0,0,1,1.424,10.119l-7.439-7.631a.951.951,0,0,0-.762-.356.96.96,0,0,0-.745.389A1.018,1.018,0,0,0,42.01,18.6l8.907,9.209.082.066a1.121,1.121,0,0,0,1.424-.1l9.109-9a1.109,1.109,0,0,0-.179-1.368,1.083,1.083,0,0,0-1.36-.121L53.122,24.1a22.671,22.671,0,0,0-3.415-13.669A22.3,22.3,0,0,0,38.909,1.5,22.116,22.116,0,0,0,13.374,8.656a1.022,1.022,0,0,0-.108,1.2,1,1,0,0,0,.288.31" style="fill:#1f9055"/><path d="M48.3,34.849a.995.995,0,0,0-1.485.188,20.106,20.106,0,0,1-13.428,7.68A20.166,20.166,0,0,1,12.363,30.439a20.325,20.325,0,0,1-1.423-10.12l7.438,7.632a1.085,1.085,0,0,0,1.313-.2,1.113,1.113,0,0,0,.15-1.332l-8.972-9.143a.959.959,0,0,0-.34-.266.945.945,0,0,0-.838.018.959.959,0,0,0-.329.281L.319,26.219A1.017,1.017,0,0,0,0,26.992a1.01,1.01,0,0,0,.367.749l.082.067a1.116,1.116,0,0,0,1.425-.1L8.74,20.9a22.671,22.671,0,0,0,3.415,13.669,22.3,22.3,0,0,0,10.8,8.929,22.116,22.116,0,0,0,25.535-7.158,1.02,1.02,0,0,0-.185-1.506" style="fill:#1f9055"/></svg>