<svg width="62" height="45" id="bb08be3f-0091-4f95-a22b-11f8c3086920" data-name="fd3be9b7-48ba-4d70-89be-e72104ae01c8" xmlns="http://www.w3.org/2000/svg" viewBox="0 0 61.691 44.989"><path d="M36.214,16.653a1.076,1.076,0,0,0,.335.706,1.05,1.05,0,0,0,1.443,0,1.075,1.075,0,0,0,.334-.706,6.462,6.462,0,0,0-1.86-4.525,6.33,6.33,0,0,0-4.476-1.883V9.175a1.074,1.074,0,0,0-.31-.756A1.05,1.05,0,0,0,30.2,8.4l-.015.015a1.074,1.074,0,0,0-.31.756v1.07a6.33,6.33,0,0,0-4.47,1.883,6.462,6.462,0,0,0-1.86,4.525c0,4.163,3.378,5.337,6.336,6.187V31.6a4.212,4.212,0,0,1-2.983-1.253,4.3,4.3,0,0,1-1.241-3.015,1.072,1.072,0,0,0-.281-.8,1.052,1.052,0,0,0-1.486-.064c-.022.021-.044.042-.064.064a1.072,1.072,0,0,0-.281.8A6.445,6.445,0,0,0,25.4,31.85a6.312,6.312,0,0,0,4.475,1.88V34.8a1.074,1.074,0,0,0,.31.756,1.05,1.05,0,0,0,1.485.015l.015-.015A1.074,1.074,0,0,0,32,34.8V33.73a6.325,6.325,0,0,0,4.474-1.881,6.458,6.458,0,0,0,1.862-4.521c0-4.169-3.378-5.338-6.336-6.192V12.379a4.214,4.214,0,0,1,2.984,1.257A4.309,4.309,0,0,1,36.214,16.653Zm0,10.675a4.3,4.3,0,0,1-1.24,3.015A4.214,4.214,0,0,1,31.99,31.6V23.375C34.631,24.124,36.214,24.979,36.214,27.328ZM29.872,20.6c-2.641-.75-4.224-1.6-4.224-3.948a4.308,4.308,0,0,1,1.24-3.017,4.219,4.219,0,0,1,2.984-1.257Z" transform="translate(0.001 -0.004)" style="fill:#1f9055"/><path d="M13.554,10.145a.985.985,0,0,0,.367.208,1,1,0,0,0,.817-.1,1.027,1.027,0,0,0,.306-.292,20.094,20.094,0,0,1,34.455,4.6A20.343,20.343,0,0,1,50.923,24.68l-7.439-7.631a.949.949,0,0,0-1.507.033,1.019,1.019,0,0,0-.05,1.439,1.033,1.033,0,0,0,.083.079l8.907,9.209.082.066a1.122,1.122,0,0,0,1.424-.1l9.109-9a1.108,1.108,0,0,0-.179-1.368,1.082,1.082,0,0,0-1.36-.121L53.122,24.1a22.675,22.675,0,0,0-3.415-13.669A22.136,22.136,0,0,0,13.374,8.656a1.022,1.022,0,0,0-.108,1.2,1,1,0,0,0,.288.31" transform="translate(0.001 -0.004)" style="fill:#1f9055"/><path d="M48.3,34.849a.992.992,0,0,0-1.485.188,20.057,20.057,0,0,1-34.452-4.6,20.324,20.324,0,0,1-1.423-10.12l7.438,7.632a1.085,1.085,0,0,0,1.313-.2,1.113,1.113,0,0,0,.15-1.332l-8.972-9.143a.971.971,0,0,0-.34-.266.952.952,0,0,0-1.167.3L.319,26.219A1.02,1.02,0,0,0,0,26.992a1.009,1.009,0,0,0,.367.749l.082.067a1.116,1.116,0,0,0,1.425-.1L8.74,20.9a22.675,22.675,0,0,0,3.415,13.669A22.14,22.14,0,0,0,48.49,36.34a1.021,1.021,0,0,0-.1-1.439c-.028-.024-.056-.046-.086-.067" transform="translate(0.001 -0.004)" style="fill:#1f9055"/></svg>