<svg width="49" height="45" id="f2b94d66-befc-419a-be92-b2b1093ee189" data-name="Layer 1" xmlns="http://www.w3.org/2000/svg" viewBox="0 0 49 45"><path d="M44.886,45H4.114a2.005,2.005,0,0,1-2.071-2.075V32.742A2,2,0,0,1,.137,31.466a2.013,2.013,0,0,1-.136-.8V8.206A2.005,2.005,0,0,1,1.268,6.27a2.008,2.008,0,0,1,.8-.138H14.278V2.075A2,2,0,0,1,15.541.141a2,2,0,0,1,.8-.14H32.657a2,2,0,0,1,1.927,1.271,2.021,2.021,0,0,1,.138.8V6.132H46.928A2,2,0,0,1,48.861,7.4a2.03,2.03,0,0,1,.138.8V30.668A2,2,0,0,1,47.751,32.6a1.982,1.982,0,0,1-.794.147V42.924A2,2,0,0,1,44.886,45ZM4.16,42.89H44.886V30.639h1.985V8.229H2.129v22.41H4.171ZM16.4,6.115H32.622V2.093H16.378Z" transform="translate(0 0)" style="fill:#1f9055"/><path d="M46.332,30.645H29.278v2.1H46.332Z" transform="translate(0 0)" style="fill:#1f9055"/><path d="M28.229,37.018H20.772a1.7,1.7,0,0,1-1.584-1.908V28.289a1.7,1.7,0,0,1,1.584-1.907h7.457a1.7,1.7,0,0,1,1.583,1.907V35.11A1.7,1.7,0,0,1,28.229,37.018Zm-6.941-2.1h6.424V28.473H21.288Z" transform="translate(0 0)" style="fill:#1f9055"/><path d="M20.1,30.645H3.047v2.1H20.1Z" transform="translate(0 0)" style="fill:#1f9055"/></svg>