<svg width="44" height="45" id="eb9b0ac4-429a-4f7b-a53f-47756f27bc8f" data-name="Layer 1" xmlns="http://www.w3.org/2000/svg" viewBox="0 0 44 45"><path d="M14,1l6.5,1H22l4-1,6,.5,4.5,2,3,3,2,3.5L43,13.5l.5,2L42,21l-2,3-1.5,2,1,1.5,1,2-2,2L36,32v1l-1.5,2.5L31,36l1,1.5L30.5,40h-3v2.5L26,44l-3.5-1L20,41l-2,1-3-1-1.5-3L11,37,9.5,34l-3-1L5,29.5l-2.5-1L2,27l1-3-.5-1.5-2-5,1.5-6L3.5,7,7,4.5Z" style="fill:#d2e8dd"/><path d="M1.789,24.013a3.888,3.888,0,0,0,0,5.565A4.215,4.215,0,0,0,4.568,30.7h.205A3.78,3.78,0,0,0,5.9,33.666,4.189,4.189,0,0,0,8.689,34.76H8.9a3.793,3.793,0,0,0,1.131,2.975,4.017,4.017,0,0,0,2.785,1.125h.2a3.768,3.768,0,0,0,1.137,2.968,3.987,3.987,0,0,0,5.552,0l.1-.105,2.164,2.152a3.986,3.986,0,0,0,5.551,0,3.737,3.737,0,0,0,1.131-2.968h.205a3.877,3.877,0,0,0,2.78-1.126,3.839,3.839,0,0,0,1.137-2.763v-.2h.2a3.984,3.984,0,0,0,2.772-1.125,3.742,3.742,0,0,0,1.132-2.968h.211a4.1,4.1,0,0,0,1.564-.332,4.059,4.059,0,0,0,1.314-.9,3.838,3.838,0,0,0,.106-5.423l-.106-.105A15.5,15.5,0,0,0,32.372.536a15.68,15.68,0,0,0-10.411.869A15.554,15.554,0,0,0,3.891,5.2,15.352,15.352,0,0,0,2.305,23.506Zm1.442,4.1a1.9,1.9,0,0,1,0-2.659L6.34,22.362a1.707,1.707,0,0,1,1.336-.513,2.171,2.171,0,0,1,1.337.513,1.923,1.923,0,0,1,.516,1.329,2.16,2.16,0,0,1-.516,1.336L5.9,28.119a2.172,2.172,0,0,1-2.673,0Zm4.116,4.1a1.977,1.977,0,0,1-.523-1.336,2.16,2.16,0,0,1,.516-1.33l3.109-3.091a1.935,1.935,0,0,1,1.349-.5,2.169,2.169,0,0,1,1.336.513,1.9,1.9,0,0,1,0,2.659l-3.108,3.092a1.929,1.929,0,0,1-2.673,0Zm4.121,4.106a1.973,1.973,0,0,1-.516-1.33,2.2,2.2,0,0,1,.516-1.336l3.108-3.091a1.944,1.944,0,0,1,1.337-.514,2.164,2.164,0,0,1,1.336.514,1.9,1.9,0,0,1,0,2.659l-3.108,3.091a1.931,1.931,0,0,1-2.679,0Zm4.109,4.087a1.9,1.9,0,0,1,0-2.659l3.108-3.092A1.953,1.953,0,0,1,20,34.179a2.155,2.155,0,0,1,1.337.513,1.747,1.747,0,0,1,.41.514.1.1,0,0,0,.031.074.106.106,0,0,0,.075.031,1.442,1.442,0,0,1,.1.711,2.191,2.191,0,0,1-.516,1.336L18.337,40.45a2.059,2.059,0,0,1-2.778,0ZM26.126,42.5a1.926,1.926,0,0,1-2.673,0L21.29,40.344l1.542-1.533a4.216,4.216,0,0,0,.926-1.429l2.486,2.474a2.021,2.021,0,0,1-.105,2.659ZM38.074,6.074A13.316,13.316,0,0,1,38.59,24.5L30.6,15.931a8.548,8.548,0,0,0,2.673-1.738,1.01,1.01,0,0,0,0-1.434,1.017,1.017,0,0,0-.331-.221,1.026,1.026,0,0,0-.78,0,1.028,1.028,0,0,0-.331.221c-4.42,4.4-12.961-.205-13.054-.205a1.092,1.092,0,0,0-1.244.205c-3.189,3.172-6.172,2.968-7.82,2.473l9.263-9.214a13.468,13.468,0,0,1,19.134,0ZM6.01,6.018A13.565,13.565,0,0,1,19.686,2.747,12.919,12.919,0,0,0,17.423,4.6L7.142,14.805a1.166,1.166,0,0,0-.318.823.858.858,0,0,0,.417.717c.1,0,5.346,3.481,11.009-1.639,1.641.823,5.862,2.56,9.878,1.948L38.416,27.5a1.849,1.849,0,0,1,.339,2.072,1.863,1.863,0,0,1-.444.593,1.93,1.93,0,0,1-2.674,0l-3.729-3.71a1.022,1.022,0,0,0-1.443,0,1.012,1.012,0,0,0,0,1.434L34.2,31.6a1.871,1.871,0,0,1,0,2.658,1.9,1.9,0,0,1-2.673,0l-3.73-3.71a1.017,1.017,0,0,0-1.442,1.429l3.73,3.71a1.919,1.919,0,0,1,.516,1.33,2.143,2.143,0,0,1-.516,1.329,1.929,1.929,0,0,1-2.673,0L23.3,34.253a3.828,3.828,0,0,0-.721-1.026A4.06,4.06,0,0,0,19.593,32.1a3.649,3.649,0,0,0-1.131-2.968A3.835,3.835,0,0,0,15.478,28a3.894,3.894,0,0,0-4.115-4.081,3.765,3.765,0,0,0-1.138-2.968,3.923,3.923,0,0,0-5.551,0L3.542,22.071A13.785,13.785,0,0,1,6.029,5.993" style="fill:#1f9055"/></svg>