<svg width="55" height="55" id="f6a4ed2f-49fd-447a-9c98-3c1a1bebabb6" data-name="Layer 1" xmlns="http://www.w3.org/2000/svg" xmlns:xlink="http://www.w3.org/1999/xlink" viewBox="0 0 55.047 55.042"><defs><clipPath id="b9345f04-73dc-4ab6-8b18-de91c39bc460" transform="translate(0.03 0.039)"><rect width="55" height="55" style="fill:none"/></clipPath></defs><g style="clip-path:url(#b9345f04-73dc-4ab6-8b18-de91c39bc460)"><path d="M53.372,26.292H48.647a1.126,1.126,0,0,0-.474.069,1.171,1.171,0,0,0-.414.246,1.278,1.278,0,0,0-.276.405,1.21,1.21,0,0,0,0,.986,1.236,1.236,0,0,0,.276.395,1.068,1.068,0,0,0,.414.256,1.126,1.126,0,0,0,.474.069h4.725a1.1,1.1,0,0,0,.474-.069.977.977,0,0,0,.414-.256A1.236,1.236,0,0,0,54.536,28a1.21,1.21,0,0,0,0-.986,1.278,1.278,0,0,0-.276-.405A1.231,1.231,0,0,0,53.372,26.292Z" transform="translate(0.03 0.039)" style="fill:#1f9055;stroke:#1f9055;stroke-miterlimit:10;stroke-width:0.75px"/><path d="M32.27,54.625H22.73a1.151,1.151,0,0,1-.444-.059,1.127,1.127,0,0,1-.385-.237,1.174,1.174,0,0,1-.256-.375,1.143,1.143,0,0,1-.089-.444,1.2,1.2,0,0,1,.089-.454,1.056,1.056,0,0,1,.256-.364,1.127,1.127,0,0,1,.385-.237.974.974,0,0,1,.444-.069h9.54a.975.975,0,0,1,.453.069,1.127,1.127,0,0,1,.385.237,1.072,1.072,0,0,1,.257.364,1.222,1.222,0,0,1,.088.454,1.16,1.16,0,0,1-.088.444,1.194,1.194,0,0,1-.257.375,1.127,1.127,0,0,1-.385.237,1.182,1.182,0,0,1-.453.059Z" transform="translate(0.03 0.039)" style="fill:#1f9055;stroke:#1f9055;stroke-miterlimit:10;stroke-width:0.75px"/><path d="M32.191,49h-9.4a2.28,2.28,0,0,1-.887-.158,2.383,2.383,0,0,1-.75-.5,2.27,2.27,0,0,1-.484-.76,2.169,2.169,0,0,1-.158-.9V42.648a16.655,16.655,0,0,1-6.905-6.205,16.852,16.852,0,0,1-.287-17.462,16.52,16.52,0,0,1,6.226-6.136,16.254,16.254,0,0,1,16.771.533,16.687,16.687,0,0,1,5.84,6.521A16.949,16.949,0,0,1,41.07,36.877,16.415,16.415,0,0,1,34.48,42.6v4.045a2.426,2.426,0,0,1-.148.917,2.2,2.2,0,0,1-.493.77,2.084,2.084,0,0,1-.75.513A2.335,2.335,0,0,1,32.191,49ZM27.505,13.013a14.1,14.1,0,0,0-9.037,3.324,14.661,14.661,0,0,0-3.541,17.955,14.336,14.336,0,0,0,7.1,6.551l.671.286v5.643h9.6V41.149l.68-.276a14.349,14.349,0,0,0,7.1-6.551,14.611,14.611,0,0,0-3.541-18.044,14.126,14.126,0,0,0-9.037-3.265Z" transform="translate(0.03 0.039)" style="fill:#1f9055;stroke:#1f9055;stroke-miterlimit:10;stroke-width:0.75px"/><path d="M6.383,26.292H1.608a1.1,1.1,0,0,0-.474.069,1.122,1.122,0,0,0-.69.651,1.119,1.119,0,0,0-.1.473,1.135,1.135,0,0,0,.1.484,1.087,1.087,0,0,0,.276.394.989.989,0,0,0,.414.257,1.11,1.11,0,0,0,.474.069H6.353a1.151,1.151,0,0,0,.483-.069,1.042,1.042,0,0,0,.4-.257,1.1,1.1,0,0,0,.276-.394,1.15,1.15,0,0,0,.1-.484,1.247,1.247,0,0,0-.375-.878,1.193,1.193,0,0,0-.888-.315" transform="translate(0.03 0.039)" style="fill:#1f9055"/><path d="M6.383,26.292H1.608a1.1,1.1,0,0,0-.474.069,1.122,1.122,0,0,0-.69.651,1.119,1.119,0,0,0-.1.473,1.135,1.135,0,0,0,.1.484,1.087,1.087,0,0,0,.276.394.989.989,0,0,0,.414.257,1.11,1.11,0,0,0,.474.069H6.353a1.151,1.151,0,0,0,.483-.069,1.042,1.042,0,0,0,.4-.257,1.1,1.1,0,0,0,.276-.394,1.15,1.15,0,0,0,.1-.484,1.247,1.247,0,0,0-.375-.878,1.193,1.193,0,0,0-.888-.315" transform="translate(0.03 0.039)" style="fill:none;stroke:#1f9055;stroke-miterlimit:10;stroke-width:0.75px"/><path d="M26.321,1.539V6.363a1.225,1.225,0,0,0,.346.849,1.171,1.171,0,0,0,.382.263,1.164,1.164,0,0,0,.912,0,1.175,1.175,0,0,0,.383-.263,1.229,1.229,0,0,0,.345-.849V1.539a1.159,1.159,0,0,0-.089-.454,1.181,1.181,0,0,0-.256-.394,1.249,1.249,0,0,0-.385-.257,1.1,1.1,0,0,0-.908,0,1.244,1.244,0,0,0-.384.257,1.221,1.221,0,0,0-.346.848" transform="translate(0.03 0.039)" style="fill:#1f9055"/><path d="M26.321,1.539V6.363a1.225,1.225,0,0,0,.346.849,1.171,1.171,0,0,0,.382.263,1.164,1.164,0,0,0,.912,0,1.175,1.175,0,0,0,.383-.263,1.229,1.229,0,0,0,.345-.849V1.539a1.159,1.159,0,0,0-.089-.454,1.181,1.181,0,0,0-.256-.394,1.249,1.249,0,0,0-.385-.257,1.1,1.1,0,0,0-.908,0,1.244,1.244,0,0,0-.384.257,1.221,1.221,0,0,0-.346.848" transform="translate(0.03 0.039)" style="fill:none;stroke:#1f9055;stroke-miterlimit:10;stroke-width:0.75px"/><path d="M45.618,7.863l-3.334,3.394a1.2,1.2,0,0,0,.848,1.992,1.154,1.154,0,0,0,.819-.3L47.286,9.57a1.317,1.317,0,0,0,.3-.395A1.126,1.126,0,0,0,47.69,8.7a1.156,1.156,0,0,0-.079-.483,1.2,1.2,0,0,0-.266-.405,1.074,1.074,0,0,0-.395-.266.989.989,0,0,0-.473-.089A1.3,1.3,0,0,0,46,7.577a1.229,1.229,0,0,0-.385.286" transform="translate(0.03 0.039)" style="fill:#1f9055"/><path d="M45.618,7.863l-3.334,3.394a1.2,1.2,0,0,0,.848,1.992,1.154,1.154,0,0,0,.819-.3L47.286,9.57a1.317,1.317,0,0,0,.3-.395A1.126,1.126,0,0,0,47.69,8.7a1.156,1.156,0,0,0-.079-.483,1.2,1.2,0,0,0-.266-.405,1.074,1.074,0,0,0-.395-.266.989.989,0,0,0-.473-.089A1.3,1.3,0,0,0,46,7.577a1.229,1.229,0,0,0-.385.286" transform="translate(0.03 0.039)" style="fill:none;stroke:#1f9055;stroke-miterlimit:10;stroke-width:0.75px"/><path d="M9.382,7.863l3.344,3.394a1.192,1.192,0,0,1,.286.828,1.165,1.165,0,0,1-.345.809,1.153,1.153,0,0,1-.789.355,1.131,1.131,0,0,1-.819-.3L7.724,9.57a1.16,1.16,0,0,1-.3-.395A1.126,1.126,0,0,1,7.32,8.7,1.156,1.156,0,0,1,7.4,8.218a1.343,1.343,0,0,1,.256-.405,1.218,1.218,0,0,1,.405-.266,1,1,0,0,1,.454-.089,1.184,1.184,0,0,1,.463.119,1.108,1.108,0,0,1,.385.286" transform="translate(0.03 0.039)" style="fill:#1f9055"/><path d="M9.382,7.863l3.344,3.394a1.192,1.192,0,0,1,.286.828,1.165,1.165,0,0,1-.345.809,1.153,1.153,0,0,1-.789.355,1.131,1.131,0,0,1-.819-.3L7.724,9.57a1.16,1.16,0,0,1-.3-.395A1.126,1.126,0,0,1,7.32,8.7,1.156,1.156,0,0,1,7.4,8.218a1.343,1.343,0,0,1,.256-.405,1.218,1.218,0,0,1,.405-.266,1,1,0,0,1,.454-.089,1.184,1.184,0,0,1,.463.119,1.108,1.108,0,0,1,.385.286" transform="translate(0.03 0.039)" style="fill:none;stroke:#1f9055;stroke-miterlimit:10;stroke-width:0.75px"/></g></svg>