<svg width="59" height="45" id="ae80761e-c6b4-4ae0-ac82-ab0c39cace70" data-name="Layer 1" xmlns="http://www.w3.org/2000/svg" xmlns:xlink="http://www.w3.org/1999/xlink" viewBox="0 0 58.42 45.002"><defs><clipPath id="abc1c3a6-f4ac-4713-82a0-ee60dcc76d04" transform="translate(-0.08 0.002)"><rect width="58.5" height="45" style="fill:none"/></clipPath></defs><g style="clip-path:url(#abc1c3a6-f4ac-4713-82a0-ee60dcc76d04)"><path d="M47.08,25c-4.58,0-8-2-8.78-5H55.86C55.1,23,51.67,25,47.08,25ZM44.79,3.76,54.72,17.5H38.81ZM19.72,17.5h-16L13.61,3.76ZM11.43,25c-4.58,0-8-2-8.78-5H20.23C19.51,23,16,25,11.43,25Zm47-6.87a.137.137,0,0,0-.041-.089A.135.135,0,0,0,58.3,18L45.56.51C45.43.38,45.3.13,45.07,0H14a.83.83,0,0,0-.51.13A1,1,0,0,0,13,.66L.26,18.13a.122.122,0,0,1,0,.08.117.117,0,0,1-.09,0,.153.153,0,0,1,0,.09.153.153,0,0,1-.09,0v.37c0,5.12,4.71,8.75,11.43,8.75s11.44-3.63,11.44-8.75a.763.763,0,0,0-.13-.5L15.91,2.5H28v40H16.58a1.25,1.25,0,0,0-1.18,1.25,1.223,1.223,0,0,0,.34.85,1.242,1.242,0,0,0,.84.4H42a1.261,1.261,0,0,0,.85-.4,1.223,1.223,0,0,0,.34-.85,1.26,1.26,0,0,0-.34-.86A1.3,1.3,0,0,0,42,42.5H30.56V2.5H42.67L35.76,18.25a.763.763,0,0,0-.13.5c0,5.12,4.71,8.75,11.43,8.75S58.5,23.87,58.5,18.75a1,1,0,0,0-.12-.5Z" transform="translate(-0.08 0.002)" style="fill:#1f9055"/><path d="M47.08,25c-4.58,0-8-2-8.78-5H55.86C55.1,23,51.67,25,47.08,25Z" transform="translate(-0.08 0.002)" style="fill:#d2e8dd"/><path d="M11.43,25c-4.58,0-8-2-8.78-5H20.23C19.51,23,16,25,11.43,25Z" transform="translate(-0.08 0.002)" style="fill:#d2e8dd"/></g></svg>