<svg width="43" height="45" viewBox="0 0 43 45" fill="none" xmlns="http://www.w3.org/2000/svg">
<path d="M17.334 28.9094C16.981 28.9273 16.6314 28.8318 16.3351 28.6367C16.0388 28.4415 15.811 28.1567 15.6842 27.8228L6.80885 11.6133C6.61668 11.2973 6.51775 10.9323 6.52369 10.5613C6.52964 10.1903 6.64022 9.82872 6.84241 9.51919C10.6733 2.96522 16.0142 3.05578 20.3037 3.12935H20.7511C24.2744 3.19161 27.602 3.24821 30.6275 0.616435C30.8236 0.397107 31.0683 0.22789 31.3414 0.122631C31.6146 0.0173728 31.9085 -0.0209353 32.199 0.0108439H32.3612L32.5178 0.0674403C33.0243 0.21871 33.4582 0.553075 33.737 1.00696L33.7705 1.06355L42.7634 17.4768C42.9819 17.8822 43.0519 18.3528 42.9608 18.8054C42.8697 19.258 42.6235 19.6634 42.2656 19.9501C38.1327 23.544 33.5357 23.4648 30.1801 23.4025H29.5482C25.2251 23.3289 21.8137 23.2723 19.146 27.9303L19.1125 27.9699C18.9214 28.2686 18.6572 28.5121 18.3456 28.6768C18.0339 28.8414 17.6854 28.9216 17.334 28.9094ZM8.53695 10.5945L17.4347 26.8493C20.6952 21.2292 25.2083 21.3084 29.5761 21.382H30.2081C33.4182 21.4386 37.4169 21.5065 40.9738 18.3993L32.0257 2.09362C28.4017 5.30835 24.4981 5.24043 20.7231 5.17252H20.2701C16.1093 5.09894 11.7974 5.02536 8.55932 10.5889L8.53695 10.5945Z" fill="#1F9055"/>
<path d="M20.0916 44.9999C19.9152 44.9952 19.7432 44.9442 19.5922 44.852C19.4412 44.7597 19.3165 44.6293 19.2303 44.4736L0.126149 9.63227C0.0622537 9.51596 0.021623 9.38804 0.00657639 9.25583C-0.00847018 9.12362 0.00236313 8.98971 0.0384556 8.86174C0.0745481 8.73376 0.135194 8.61424 0.216931 8.50999C0.298667 8.40573 0.399893 8.31879 0.514831 8.25413C0.629768 8.18947 0.756166 8.14835 0.886806 8.13312C1.01745 8.11789 1.14977 8.12886 1.27622 8.16538C1.40268 8.20191 1.52078 8.26328 1.6238 8.346C1.72681 8.42872 1.81272 8.53116 1.87662 8.64748L20.9808 43.4944C21.1092 43.7287 21.1408 44.005 21.0684 44.2627C20.9961 44.5205 20.8258 44.7388 20.5949 44.8698C20.4408 44.9558 20.2675 45.0006 20.0916 44.9999Z" fill="#1F9055"/>
</svg>
