<svg width="48" height="45" id="bd97262a-0f6f-48ce-a2a6-ae2fad6cb26b" data-name="a3b8c9c8-74a6-477b-a5c1-87c000bcbd4f" xmlns="http://www.w3.org/2000/svg" xmlns:xlink="http://www.w3.org/1999/xlink" viewBox="0 0 48 45"><defs><clipPath id="b3aca1f2-e829-466e-be61-7bc7fe01f1ba"><rect width="47.63" height="45" style="fill:none"/></clipPath></defs><g style="clip-path:url(#b3aca1f2-e829-466e-be61-7bc7fe01f1ba)"><path d="M34.44,35.826v7.505l4.691-2.341,4.446,2.223V35.83a14.589,14.589,0,0,1-9.149,0Z" style="fill:#d2e8dd"/><path d="M39.09,30.755a6.762,6.762,0,1,0-6.762-6.762h0a6.761,6.761,0,0,0,6.761,6.761Z" style="fill:#d2e8dd"/><path d="M1.057,39.773H30.5V32.88a11.858,11.858,0,0,1-4.226-8.988,12.5,12.5,0,0,1,10.581-12.06V2.02H1.061Z" style="fill:#d2e8dd"/><path d="M35.109,45a1.974,1.974,0,0,1-1.087-.326,2.237,2.237,0,0,1-.967-1.778v-9.83l1.58.846a9.725,9.725,0,0,0,8.794,0l1.581-.846V42.9a2.114,2.114,0,0,1-.968,1.774l-.271.182h-.215a2.039,2.039,0,0,1-.6.1,1.418,1.418,0,0,1-1-.325l-2.823-1.407-3,1.5A1.952,1.952,0,0,1,35.109,45Zm.1-8.507v6.28l3.921-1.961,3.719,1.86V36.493a12.157,12.157,0,0,1-7.649,0Z" style="fill:#1f9055"/><path d="M31.563,41.366H2.058A1.988,1.988,0,0,1,0,39.449c0-.05,0-.1,0-.149V2.053A1.99,1.99,0,0,1,1.925,0c.044,0,.089,0,.133,0H35.391a1.99,1.99,0,0,1,2.054,1.922c0,.044,0,.087,0,.131V13.721l-.98.088a9.825,9.825,0,0,0-5.287,17.326l.385.321ZM2.151,39.215H29.412V32.453A11.979,11.979,0,0,1,35.294,11.8V2.151H2.151Z" style="fill:#1f9055"/><path d="M20.191,28.621H6.714a1.078,1.078,0,0,1-.805-1.861,1.055,1.055,0,0,1,.373-.228,1.075,1.075,0,0,1,.432-.062H20.191a1.075,1.075,0,0,1,.432.062A1.057,1.057,0,0,1,21,26.76a1.078,1.078,0,0,1-.8,1.861Zm0-7.784H6.714a1.075,1.075,0,0,1-.432-.062,1.055,1.055,0,0,1-.373-.228,1.078,1.078,0,0,1,.805-1.861H20.191a1.078,1.078,0,0,1,.8,1.861,1.055,1.055,0,0,1-.373.228A1.089,1.089,0,0,1,20.191,20.837Zm5.7-7.965H6.714a1.078,1.078,0,0,1-.432-2.09,1.057,1.057,0,0,1,.432-.061H25.892a1.057,1.057,0,0,1,.432.061,1.076,1.076,0,0,1,.649,1.378c-.007.021-.016.043-.025.064a1.079,1.079,0,0,1-1.056.648Z" style="fill:#1f9055"/><path d="M39.03,32.635a8.607,8.607,0,1,1,6.079-2.521A8.606,8.606,0,0,1,39.03,32.635Zm0-15.052a6.461,6.461,0,1,0,4.561,1.893A6.46,6.46,0,0,0,39.03,17.583Z" style="fill:#1f9055"/></g></svg>