<svg width="39" height="45" id="b73de8a9-b19f-4e86-b815-abb9bbb80a22" data-name="Layer 1" xmlns="http://www.w3.org/2000/svg" xmlns:xlink="http://www.w3.org/1999/xlink" viewBox="0 0 39 45"><defs><clipPath id="ee77dd83-d002-427e-927c-99539650c570"><rect width="38.744" height="45" style="fill:none"/></clipPath></defs><g style="clip-path:url(#ee77dd83-d002-427e-927c-99539650c570)"><path d="M32.5,6H1.5V43.5h31Z" style="fill:#d2e8dd"/><path d="M37.654,40.921a1.087,1.087,0,0,1-1.087-1.086V2.177H6.556A1.091,1.091,0,0,1,6.552,0H37.113a1.632,1.632,0,0,1,1.631,1.632v38.2a1.089,1.089,0,0,1-.319.77,1.106,1.106,0,0,1-.354.235A1.087,1.087,0,0,1,37.654,40.921Z" style="fill:#1f9055"/><path d="M31.947,45H2.177A2.182,2.182,0,0,1,0,42.823V6.8A2.177,2.177,0,0,1,2.177,4.624h29.77A2.177,2.177,0,0,1,34.124,6.8V42.823A2.182,2.182,0,0,1,31.947,45ZM2.177,6.8V42.823h29.77V6.8Z" style="fill:#1f9055"/><path d="M27.818,20.666H16.667a1.091,1.091,0,0,1,0-2.177H27.818a1.091,1.091,0,0,1,0,2.177Z" style="fill:#1f9055"/><path d="M27.818,32.087H16.667a1.091,1.091,0,0,1,0-2.177H27.818a1.091,1.091,0,0,1,0,2.177Z" style="fill:#1f9055"/><path d="M7.993,22.686a1.475,1.475,0,0,1-1.057-.422L4.822,20.15A.955.955,0,0,1,6.171,18.8L8,20.632l5.529-5.542a.951.951,0,0,1,1.344,1.345L9.049,22.251a1.481,1.481,0,0,1-.484.324A1.461,1.461,0,0,1,7.993,22.686Z" style="fill:#1f9055"/><path d="M7.993,33.972a1.475,1.475,0,0,1-1.057-.422L4.823,31.436a.952.952,0,1,1,1.348-1.344L8,31.918l5.529-5.542a.954.954,0,0,1,.309-.22.941.941,0,0,1,.37-.082.952.952,0,0,1,.9.595.955.955,0,0,1-.234,1.052L9.05,33.537a1.485,1.485,0,0,1-.485.324A1.457,1.457,0,0,1,7.993,33.972Z" style="fill:#1f9055"/></g></svg>