<svg width="36" height="46" id="a457ee50-3361-4f5e-8f29-46e8e67b3736" data-name="a1f2c234-835d-4b28-aba5-6e3abc966ba8" xmlns="http://www.w3.org/2000/svg" xmlns:xlink="http://www.w3.org/1999/xlink" viewBox="0 0 36 45"><defs><clipPath id="a575b2ac-0766-421e-ba4e-f9e621e4dae7"><rect width="35.66" height="45" style="fill:none"/></clipPath></defs><g style="clip-path:url(#a575b2ac-0766-421e-ba4e-f9e621e4dae7)"><path d="M33.724,45H1.936A1.875,1.875,0,0,1,0,43.188c0-.041,0-.083,0-.124V1.936A1.875,1.875,0,0,1,1.936,0H33.724A1.872,1.872,0,0,1,35.66,1.806c0,.043,0,.087,0,.13V43.064A1.875,1.875,0,0,1,33.848,45ZM2,42.992H33.64V2H2Zm26.109-1.733H26.244a1.872,1.872,0,0,1-1.936-1.936V28.109a1.875,1.875,0,0,1,1.936-1.939h1.869a1.879,1.879,0,0,1,1.941,1.936V39.323a1.877,1.877,0,0,1-1.941,1.936Zm-1.8-2h1.733V28.177H26.316Zm-7.547,2H16.9a1.875,1.875,0,0,1-.752-.129,1.9,1.9,0,0,1-.637-.418,1.877,1.877,0,0,1-.548-1.389V37.455a1.877,1.877,0,0,1,.548-1.389,1.9,1.9,0,0,1,.637-.418,1.875,1.875,0,0,1,.752-.129h1.869A1.872,1.872,0,0,1,20.7,37.33c0,.042,0,.083,0,.125v1.868a1.872,1.872,0,0,1-1.806,1.936c-.043,0-.087,0-.13,0Zm-1.8-2H18.7V37.535H16.963Zm-7.547,2H7.547a1.876,1.876,0,0,1-1.94-1.81q0-.063,0-.126V37.455a1.875,1.875,0,0,1,.55-1.389,1.9,1.9,0,0,1,.638-.418,1.875,1.875,0,0,1,.752-.129H9.416a1.867,1.867,0,0,1,1.936,1.932v1.868a1.872,1.872,0,0,1-.547,1.389,1.9,1.9,0,0,1-.638.418,1.857,1.857,0,0,1-.751.133Zm-1.822-2H9.332V37.535H7.615Zm11.171-7.343H16.9a1.874,1.874,0,0,1-1.937-1.809c0-.042,0-.085,0-.127V28.109A1.875,1.875,0,0,1,16.9,26.173h1.869A1.872,1.872,0,0,1,20.7,27.984c0,.042,0,.083,0,.125v1.868a1.872,1.872,0,0,1-1.806,1.936c-.043,0-.087,0-.13,0Zm-1.8-2H18.7V28.177H16.963Zm-7.547,2H7.547a1.876,1.876,0,0,1-1.94-1.81q0-.063,0-.126V28.109A1.878,1.878,0,0,1,6.8,26.3a1.859,1.859,0,0,1,.752-.13H9.416a1.873,1.873,0,0,1,1.936,1.936v1.868A1.872,1.872,0,0,1,9.546,31.91c-.043,0-.087,0-.13,0Zm-1.822-2H9.332V28.177H7.615Zm20.5-7.343H26.244a1.871,1.871,0,0,1-1.936-1.8c0-.043,0-.087,0-.131V18.759a1.875,1.875,0,0,1,1.812-1.936c.041,0,.083,0,.124,0h1.869a1.879,1.879,0,0,1,1.941,1.936v1.873a1.883,1.883,0,0,1-1.944,1.935ZM26.3,20.56h1.734V18.831H26.316Zm-7.53,2.007H16.9a1.873,1.873,0,0,1-1.937-1.807c0-.043,0-.085,0-.128V18.759a1.875,1.875,0,0,1,1.812-1.936c.042,0,.083,0,.125,0h1.869A1.872,1.872,0,0,1,20.7,18.634c0,.042,0,.083,0,.125v1.873a1.872,1.872,0,0,1-1.807,1.935c-.043,0-.086,0-.129,0Zm-1.8-2.007H18.7V18.831H16.963ZM9.416,22.567H7.547a1.876,1.876,0,0,1-1.94-1.81c0-.042,0-.083,0-.125V18.759A1.874,1.874,0,0,1,6.8,16.953a1.859,1.859,0,0,1,.752-.13H9.416a1.873,1.873,0,0,1,1.936,1.936v1.873a1.872,1.872,0,0,1-1.807,1.935Q9.481,22.57,9.416,22.567ZM7.594,20.56H9.332V18.831H7.615Zm20.5-7.338H7.547a1.9,1.9,0,0,1-.753-.13,1.876,1.876,0,0,1-1.187-1.811V7.545A1.881,1.881,0,0,1,7.552,5.609H28.113a1.877,1.877,0,0,1,1.941,1.936v3.736a1.9,1.9,0,0,1-.13.753,1.879,1.879,0,0,1-1.058,1.058,1.9,1.9,0,0,1-.753.13Zm-20.5-2.008H28.045v-3.6H7.615Z" style="fill:#1f9055"/><path d="M26.312,39.256h1.733V28.177H26.316Z" style="fill:#fff"/><path d="M16.965,37.522v1.733H18.7V37.522Z" style="fill:#fff"/><path d="M7.613,37.522v1.733H9.347V37.522Z" style="fill:#fff"/><path d="M16.965,28.177v1.734H18.7V28.178Z" style="fill:#fff"/><path d="M7.613,28.173v1.733H9.347V28.172Z" style="fill:#fff"/><path d="M26.282,18.806v1.733h1.734V18.806Z" style="fill:#fff"/><path d="M16.942,18.806v1.733h1.734V18.806Z" style="fill:#fff"/><path d="M7.6,18.806v1.733H9.336V18.806Z" style="fill:#fff"/><path d="M28.05,7.613H7.615v3.6H28.05Z" style="fill:#fff"/></g></svg>