<svg id="b3abb3a5-67ae-463b-a52f-bcb84be307cd" data-name="f1a97503-d32e-4028-ae41-282a34212b54" xmlns="http://www.w3.org/2000/svg" width="90" height="50" viewBox="0 0 90 50"><path d="M11.214,22.57l-.183.234.3.008c3.416.088,5.983.927,7.725,2.495h0a7.738,7.738,0,0,1,2.659,6.153,8.64,8.64,0,0,1-1.222,4.588,8.278,8.278,0,0,1-3.669,3.1h0a13.6,13.6,0,0,1-5.846,1.141,17.886,17.886,0,0,1-6.3-1.1A11.336,11.336,0,0,1,.188,36.25l.986-1.479a11.333,11.333,0,0,0,4.013,2.652h0a15.216,15.216,0,0,0,5.79,1.077,9.925,9.925,0,0,0,6.45-1.856h0A6.419,6.419,0,0,0,19.7,31.462a6.289,6.289,0,0,0-2.322-5.183c-1.549-1.246-3.856-1.856-6.894-1.856h-1.8V22.98L17.85,11.243,18.039,11H1.305V9.256h19.21v1.4Z" style="fill:#1f9055;stroke:#1f9055;stroke-width:0.30000001192092896px"/><path d="M61.349,9.674l.044,30.812H59.471l-.044-26.473v-.556l-.279.481L46.169,36.352h-.938L32.253,14.027l-.28-.481v26.94H30.051V9.674h1.675l13.866,23.97.13.225.13-.225L59.719,9.674Z" style="fill:#1f9055;stroke:#1f9055;stroke-width:0.30000001192092896px"/><path d="M80.335,23.879h8.294V25.49H80.185v8.222h-1.7V25.49H70.042V23.879h8.443V15.612h1.7v8.267Z" style="fill:#1f9055;stroke:#1f9055;stroke-width:0.30000001192092896px"/></svg>