<svg id="b54ac2ac-1183-46af-a26b-0d85de02974b" data-name="a588fe43-a5a2-48c2-b9fb-100bfe027001" xmlns="http://www.w3.org/2000/svg" width="45" height="45" viewBox="0 0 45 45"><path d="M42.065,17.609H38.4a16.54,16.54,0,0,0-1.2-2.894l2.588-2.588a2.939,2.939,0,0,0,0-4.152L37.024,5.206a3.008,3.008,0,0,0-4.151,0L30.285,7.794a16.572,16.572,0,0,0-2.894-1.2V2.935A2.938,2.938,0,0,0,24.457,0H20.543a2.938,2.938,0,0,0-2.934,2.935V6.6a16.728,16.728,0,0,0-2.894,1.2L12.127,5.207a2.941,2.941,0,0,0-4.152,0L5.205,7.976a2.941,2.941,0,0,0,0,4.151l2.588,2.589A16.572,16.572,0,0,0,6.6,17.61H2.935A2.938,2.938,0,0,0,0,20.544v3.913a2.938,2.938,0,0,0,2.935,2.934H6.6a16.728,16.728,0,0,0,1.2,2.894L5.207,32.873a2.941,2.941,0,0,0,0,4.152L7.976,39.8a2.941,2.941,0,0,0,4.151,0l2.589-2.588a16.572,16.572,0,0,0,2.894,1.2v3.66A2.938,2.938,0,0,0,20.544,45h3.913a2.938,2.938,0,0,0,2.935-2.935V38.4a16.572,16.572,0,0,0,2.894-1.2l2.587,2.589a3.011,3.011,0,0,0,4.152,0l2.769-2.769a2.939,2.939,0,0,0,0-4.152l-2.588-2.588a16.572,16.572,0,0,0,1.2-2.894h3.661A2.938,2.938,0,0,0,45,24.457V20.543A2.938,2.938,0,0,0,42.065,17.609Zm.978,6.848a.979.979,0,0,1-.978.978h-4.4a.979.979,0,0,0-.947.733,14.691,14.691,0,0,1-1.569,3.788.98.98,0,0,0,.151,1.189l3.11,3.112a.982.982,0,0,1,0,1.385L35.64,38.41a1.007,1.007,0,0,1-1.385,0L31.144,35.3a.979.979,0,0,0-1.19-.151,14.667,14.667,0,0,1-3.787,1.568.977.977,0,0,0-.732.946v4.4a.979.979,0,0,1-.978.978H20.543a.979.979,0,0,1-.978-.978v-4.4a.979.979,0,0,0-.733-.947,14.688,14.688,0,0,1-3.788-1.568.979.979,0,0,0-1.19.151l-3.111,3.11a.982.982,0,0,1-1.385,0L6.59,35.64a.978.978,0,0,1,0-1.385h0L9.7,31.144a.976.976,0,0,0,.151-1.188,14.688,14.688,0,0,1-1.568-3.788.977.977,0,0,0-.946-.733h-4.4a.979.979,0,0,1-.978-.978V20.543a.979.979,0,0,1,.978-.978h4.4a.979.979,0,0,0,.947-.733,14.688,14.688,0,0,1,1.568-3.788A.977.977,0,0,0,9.7,13.855l-3.11-3.111a.982.982,0,0,1,0-1.385L9.359,6.591a.98.98,0,0,1,1.385,0L13.855,9.7a.977.977,0,0,0,1.189.151,14.656,14.656,0,0,1,3.788-1.569.979.979,0,0,0,.733-.947v-4.4a.979.979,0,0,1,.978-.978h3.914a.979.979,0,0,1,.978.978v4.4a.979.979,0,0,0,.733.947,14.667,14.667,0,0,1,3.787,1.568.976.976,0,0,0,1.19-.151l3.111-3.11a1,1,0,0,1,1.385,0l2.768,2.768a.982.982,0,0,1,0,1.385L35.3,13.855a.977.977,0,0,0-.151,1.189,14.691,14.691,0,0,1,1.569,3.788.977.977,0,0,0,.946.733h4.4a.979.979,0,0,1,.978.978Z" style="fill:#1f9055"/><path d="M22.5,13.7a8.8,8.8,0,1,0,8.8,8.8A8.8,8.8,0,0,0,22.5,13.7Zm0,15.652A6.848,6.848,0,1,1,29.348,22.5,6.848,6.848,0,0,1,22.5,29.348Z" style="fill:#1f9055"/></svg>