<svg width="45" height="45" viewBox="0 0 45 45" fill="none" xmlns="http://www.w3.org/2000/svg">
<path d="M30.1854 42.6522C28.0769 42.6522 26.0239 42.0932 24.1373 41.0869C27.3556 38.3478 29.2421 34.323 29.2421 30.0745C29.2421 29.236 29.1866 28.3975 29.0757 27.559C32.5159 25.8261 35.1237 22.7515 36.289 19.0621C42.3371 22.4161 44.5011 30.0745 41.1718 36.1677C38.8969 40.1925 34.7353 42.6522 30.1854 42.6522ZM14.8155 42.6522C7.93509 42.6522 2.3309 37.0621 2.3309 30.0745C2.3309 25.4907 4.77233 21.2981 8.76739 19.0621C9.98811 22.7515 12.5405 25.8261 15.9807 27.559C15.8697 28.3975 15.8143 29.236 15.7588 30.0745C15.7588 34.323 17.5898 38.3478 20.8636 41.0869C19.0325 42.0932 16.924 42.6522 14.8155 42.6522ZM24.1373 19.0621C25.9684 18.0559 28.0769 17.4969 30.1854 17.4969C31.6281 17.4969 33.0707 17.7764 34.4024 18.2795C33.4591 21.4099 31.3506 24.0932 28.4653 25.6025C27.6885 23.087 26.1903 20.795 24.1373 19.0621ZM16.4801 25.6584C13.6503 24.0932 11.4863 21.4658 10.543 18.3354C11.9302 17.8323 13.3728 17.5528 14.871 17.5528C16.9795 17.5528 19.0325 18.1118 20.9191 19.118C18.866 20.795 17.3124 23.087 16.4801 25.6584ZM22.5282 27.1677C21.0855 27.1677 19.6429 26.8882 18.3112 26.3851C19.088 23.9814 20.5306 21.8012 22.5282 20.236C24.5257 21.8012 25.9684 23.9255 26.7452 26.3851C25.358 26.8882 23.9708 27.1677 22.5282 27.1677ZM27.3001 30.0745C27.3001 33.9317 25.5245 37.5652 22.5282 39.913C19.5319 37.5093 17.7563 33.9317 17.7008 30.0745C17.7008 29.5155 17.8118 28.9006 17.8118 28.3416C19.3099 28.8447 20.9191 29.1242 22.5282 29.1242C24.1373 29.1242 25.6909 28.8447 27.2446 28.3416C27.1891 28.9565 27.3001 29.5155 27.3001 30.0745ZM10.0436 14.646C10.0436 7.71428 15.6478 2.06832 22.5282 2.06832C29.4086 2.06832 35.0128 7.71428 35.0128 14.646C35.0128 15.205 34.9018 15.8199 34.9018 16.3789C33.4036 15.8758 31.7945 15.5963 30.1854 15.5963C27.4665 15.6522 24.8032 16.3789 22.5282 17.8323C20.2532 16.3789 17.5898 15.5963 14.871 15.5963C13.2618 15.5963 11.7082 15.8758 10.1546 16.3789C10.1546 15.764 10.0436 15.205 10.0436 14.646ZM36.6774 17.1615C36.8438 16.323 36.8993 15.4845 36.8438 14.646C36.7329 6.59627 30.1854 0.279499 22.2507 0.391301C14.4826 0.559002 8.26801 6.81987 8.10155 14.646C8.10155 15.4845 8.15704 16.323 8.3235 17.1615C3.49612 19.677 0.499823 24.6522 0.444336 30.0745C0.444336 38.0683 6.88084 44.5528 14.76 44.5528H14.8155C17.5343 44.4969 20.1977 43.7702 22.4727 42.3168C24.7477 43.7702 27.411 44.5528 30.1299 44.5528C38.0646 44.5528 44.5011 38.0683 44.5011 30.1304V30.0745C44.5565 24.6522 41.5048 19.677 36.6774 17.1615Z" fill="#1F9055" stroke="#1F9055" stroke-width="0.75" stroke-miterlimit="10"/>
</svg>
