<svg width="45" height="45" viewBox="0 0 45 45" fill="none" xmlns="http://www.w3.org/2000/svg">
<g clip-path="url(#clip0)">
<path d="M30.2374 42.7255C28.1312 42.7021 26.0627 42.1655 24.2119 41.1623C25.8128 39.8032 27.0996 38.1142 27.9837 36.2115C28.8678 34.3088 29.3283 32.2375 29.3335 30.1403C29.3347 29.2993 29.2811 28.4592 29.1729 27.6253C30.8874 26.7583 32.4111 25.5583 33.6545 24.0957C34.8978 22.6331 35.8359 20.9375 36.4134 19.1082C38.8588 20.4667 40.7833 22.5964 41.8853 25.1635C42.9873 27.7306 43.2044 30.5899 42.5026 33.2933C41.8008 35.9968 40.2198 38.3914 38.0075 40.102C35.7951 41.8126 33.0764 42.7423 30.2775 42.7455L30.2374 42.7255Z" fill="#D2E8DD" stroke="#1F9055" stroke-width="0.75" stroke-miterlimit="10"/>
<path d="M14.8023 42.7255C12.0172 42.69 9.32162 41.7385 7.13365 40.0187C4.94568 38.2988 3.38758 35.9067 2.70099 33.2133C2.01441 30.5199 2.23771 27.6757 3.33626 25.1218C4.43481 22.5679 6.34722 20.4471 8.77691 19.0882C9.36071 20.9115 10.2989 22.6021 11.5378 24.0635C12.7767 25.5249 14.2921 26.7284 15.9974 27.6052C15.8869 28.4469 15.8267 29.2886 15.7765 30.1202C15.7701 32.2194 16.2255 34.2944 17.1104 36.1988C17.9954 38.1032 19.2883 39.7907 20.8981 41.1423C19.0303 42.169 16.9348 42.7133 14.8023 42.7255Z" fill="#D2E8DD" stroke="#1F9055" stroke-width="0.75" stroke-miterlimit="10"/>
<path d="M9.97168 14.6693C9.97168 11.3475 11.2942 8.16169 13.6484 5.81279C16.0025 3.46389 19.1954 2.14429 22.5247 2.14429C25.8539 2.14429 29.0468 3.46389 31.401 5.81279C33.7551 8.16169 35.0777 11.3475 35.0777 14.6693C35.0777 15.2204 34.9672 15.8417 34.9672 16.4028C33.4393 15.8909 31.8389 15.6271 30.2272 15.6212C27.509 15.6461 24.8506 16.4194 22.5448 17.8557C20.2452 16.3973 17.5771 15.6223 14.8523 15.6212C13.241 15.6323 11.6415 15.8961 10.1123 16.4028C10.1223 15.7816 9.97168 15.2204 9.97168 14.6693Z" fill="#D2E8DD" stroke="#1F9055" stroke-width="0.75" stroke-miterlimit="10"/>
<path d="M30.2373 42.7249C28.1312 42.7015 26.0627 42.1649 24.2119 41.1618C25.8128 39.8027 27.0995 38.1137 27.9837 36.211C28.8678 34.3083 29.3283 32.237 29.3335 30.1397C29.3347 29.2988 29.281 28.4587 29.1728 27.6247C30.8874 26.7577 32.4111 25.5577 33.6544 24.0952C34.8978 22.6326 35.8358 20.9369 36.4134 19.1077C38.8588 20.4661 40.7833 22.5958 41.8853 25.1629C42.9872 27.73 43.2043 30.5894 42.5026 33.2928C41.8008 35.9962 40.2198 38.3909 38.0074 40.1015C35.7951 41.812 33.0764 42.7418 30.2775 42.745L30.2373 42.7249ZM14.8022 42.7249C12.017 42.6894 9.32143 41.738 7.13345 40.0181C4.94548 38.2983 3.38738 35.9062 2.7008 33.2128C2.01421 30.5194 2.23751 27.6752 3.33606 25.1213C4.43461 22.5674 6.34702 20.4465 8.77671 19.0876C9.36051 20.9109 10.2987 22.6016 11.5376 24.063C12.7765 25.5244 14.2919 26.7279 15.9972 27.6047C15.8867 28.4464 15.8265 29.288 15.7763 30.1197C15.7699 32.2189 16.2253 34.2938 17.1102 36.1983C17.9952 38.1027 19.2881 39.7902 20.8979 41.1417C19.0301 42.1685 16.9346 42.7127 14.8022 42.7249ZM24.1717 19.0876C26.0202 18.0787 28.0902 17.5417 30.1972 17.5245C31.6453 17.5299 33.0807 17.7946 34.435 18.3061C33.9801 19.8633 33.2181 21.3141 32.1938 22.5736C31.1694 23.8331 29.9034 24.8759 28.4699 25.6407C27.6897 23.0935 26.1989 20.8206 24.1717 19.0876V19.0876ZM16.4792 25.7009C13.6132 24.1198 11.4745 21.4901 10.514 18.3662C11.905 17.8474 13.3774 17.5793 14.8624 17.5746C16.9868 17.59 19.0742 18.1305 20.9381 19.1478C18.8551 20.8625 17.3079 23.1365 16.4792 25.7009V25.7009ZM22.5549 27.2139C21.1068 27.2085 19.6714 26.9438 18.317 26.4323C19.0824 24.0027 20.5582 21.8567 22.5549 20.27C24.5622 21.8447 26.0378 23.9954 26.7827 26.4323C25.4304 26.9385 23.9992 27.203 22.5549 27.2139V27.2139ZM27.3451 30.1197C27.3469 32.0178 26.9167 33.8915 26.0869 35.5994C25.2571 37.3074 24.0494 38.8051 22.5549 39.9794C21.0662 38.7959 19.859 37.2978 19.0203 35.5929C18.1815 33.888 17.7321 32.0187 17.7044 30.1197C17.7044 29.5686 17.8149 28.9474 17.8149 28.3862C19.3428 28.8981 20.9431 29.162 22.5549 29.1678C24.163 29.1575 25.7593 28.8937 27.2849 28.3862C27.2346 29.0476 27.3451 29.5686 27.3451 30.1197V30.1197ZM9.97176 14.6688C9.97176 11.3469 11.2943 8.16115 13.6484 5.81225C16.0026 3.46335 19.1955 2.14375 22.5248 2.14375C25.854 2.14375 29.0469 3.46335 31.4011 5.81225C33.7552 8.16115 35.0778 11.3469 35.0778 14.6688C35.0778 15.2199 34.9673 15.8411 34.9673 16.4023C33.4394 15.8904 31.839 15.6265 30.2273 15.6207C27.5091 15.6456 24.8506 16.4188 22.5448 17.8552C20.2453 16.3968 17.5771 15.6218 14.8524 15.6207C13.2411 15.6318 11.6415 15.8955 10.1123 16.4023C10.1224 15.781 9.97176 15.2199 9.97176 14.6688ZM36.7247 17.1838C36.8878 16.356 36.9418 15.5105 36.8854 14.6688C36.8854 10.85 35.365 7.18761 32.6587 4.48731C29.9523 1.78701 26.2818 0.27 22.4545 0.27C18.6271 0.27 14.9566 1.78701 12.2503 4.48731C9.54393 7.18761 8.02353 10.85 8.02353 14.6688C8.01772 15.5122 8.09169 16.3543 8.24446 17.1838C5.88406 18.4301 3.90581 20.2907 2.51964 22.5682C1.13346 24.8457 0.391066 27.4552 0.371221 30.1197C0.355177 33.9449 1.86002 37.6203 4.55579 40.3402C7.25157 43.06 10.9183 44.6022 14.7519 44.6287H14.8022C17.5236 44.6052 20.1857 43.8319 22.4946 42.3943C24.6783 43.7672 27.1916 44.5297 29.7716 44.6022C32.3517 44.6747 34.9039 44.0544 37.1616 42.8062C39.4192 41.5581 41.2995 39.7278 42.6059 37.5067C43.9122 35.2856 44.5968 32.7551 44.5879 30.1798V30.1197C44.605 27.4537 43.8835 24.8348 42.503 22.552C41.1225 20.2693 39.1367 18.4116 36.7649 17.1838H36.7247Z" fill="#1F9055" stroke="#1F9055" stroke-width="0.75" stroke-miterlimit="10"/>
</g>
<defs>
<clipPath id="clip0">
<rect width="45" height="45" fill="white"/>
</clipPath>
</defs>
</svg>
