<svg width="28" height="28" id="Layer_1" data-name="Layer 1" xmlns="http://www.w3.org/2000/svg" viewBox="0 0 28 28"><defs><style>.cls-1{fill:#d2e8dd;}.cls-2{fill:#1f9055;}</style></defs><polygon class="cls-1" points="22.04 0.81 18.23 4.74 19.54 8.06 23.55 9.62 27.28 5.99 23.26 4.69 22.04 0.81"/><path class="cls-1" d="M12,23.16a7.1,7.1,0,0,1-6.54-4.42A7.17,7.17,0,0,1,7,11,7,7,0,0,1,17.91,12a7.17,7.17,0,0,1-.88,9A7.06,7.06,0,0,1,12,23.16Z" transform="translate(0 0)"/><path class="cls-1" d="M12,10.08a5.85,5.85,0,0,0-3.26,1A5.93,5.93,0,0,0,6.6,13.74,5.94,5.94,0,0,0,7.87,20.2a5.86,5.86,0,0,0,3,1.62,5.79,5.79,0,0,0,3.39-.34,5.91,5.91,0,0,0,2.64-2.18,5.95,5.95,0,0,0-.74-7.48A5.88,5.88,0,0,0,12,10.08Z" transform="translate(0 0)"/><path class="cls-2" d="M18.31,5.16a.61.61,0,0,1-.56-.38.69.69,0,0,1,0-.35.58.58,0,0,1,.16-.31L21.76.2A.67.67,0,0,1,22.19,0a.56.56,0,0,1,.42.18.64.64,0,0,1,.18.42.63.63,0,0,1-.17.43L18.74,5A.58.58,0,0,1,18.31,5.16Z" transform="translate(0 0)"/><path class="cls-2" d="M23.35,4.74a.62.62,0,0,1-.57-.42L21.67.82a.5.5,0,0,1,0-.24A.53.53,0,0,1,21.7.34a.52.52,0,0,1,.14-.19A.68.68,0,0,1,22.06,0a.63.63,0,0,1,.24,0,.62.62,0,0,1,.23.07.69.69,0,0,1,.18.16.46.46,0,0,1,.11.22l1.11,3.49a.59.59,0,0,1-.39.77A.58.58,0,0,1,23.35,4.74Z" transform="translate(0 0)"/><path class="cls-2" d="M19.42,8.74a.6.6,0,0,1-.36-.12.63.63,0,0,1-.22-.31l-1.1-3.49a.69.69,0,0,1,0-.25.53.53,0,0,1,.06-.24.55.55,0,0,1,.15-.19A.45.45,0,0,1,18.12,4a.5.5,0,0,1,.24,0,.61.61,0,0,1,.24.07.69.69,0,0,1,.18.16.54.54,0,0,1,.11.23L20,7.94a1,1,0,0,1,0,.24.62.62,0,0,1-.07.23.52.52,0,0,1-.15.18.59.59,0,0,1-.2.12A.63.63,0,0,1,19.42,8.74Z" transform="translate(0 0)"/><path class="cls-2" d="M12,23.16a7.1,7.1,0,0,1-6.54-4.42A7.17,7.17,0,0,1,7,11,7,7,0,0,1,17.91,12a7.17,7.17,0,0,1-.88,9A7.06,7.06,0,0,1,12,23.16Zm0-13.08a5.85,5.85,0,0,0-3.26,1A5.93,5.93,0,0,0,6.6,13.74,5.94,5.94,0,0,0,7.87,20.2a5.86,5.86,0,0,0,3,1.62,5.79,5.79,0,0,0,3.39-.34,5.91,5.91,0,0,0,2.64-2.18,5.95,5.95,0,0,0-.74-7.48A5.88,5.88,0,0,0,12,10.08Z" transform="translate(0 0)"/><path class="cls-2" d="M12,28a11.82,11.82,0,0,1-6.64-1.95A12.06,12.06,0,0,1,3.43,7.58,11.83,11.83,0,0,1,21.75,9.33a12.09,12.09,0,0,1-1.4,15.12A11.75,11.75,0,0,1,12,28ZM12,5.24a10.68,10.68,0,0,0-9.95,6.55A10.82,10.82,0,0,0,4.29,23.57,10.61,10.61,0,0,0,20.74,22a10.87,10.87,0,0,0,1.81-6,10.73,10.73,0,0,0-3.06-7.58A10.58,10.58,0,0,0,12,5.25Z" transform="translate(0 0)"/><path class="cls-2" d="M12.45,16.18a.56.56,0,0,1-.33-.1.67.67,0,0,1-.23-.27.74.74,0,0,1,0-.36.56.56,0,0,1,.17-.31L25.24,1.81a.61.61,0,0,1,.42-.17.61.61,0,0,1,.6.61.65.65,0,0,1-.16.42L12.88,16a.64.64,0,0,1-.19.13A.67.67,0,0,1,12.45,16.18Z" transform="translate(0 0)"/><path class="cls-2" d="M23.51,10.32a.6.6,0,0,1-.34-.11A.53.53,0,0,1,23,9.94a.6.6,0,0,1,0-.35.76.76,0,0,1,.17-.32L27,5.36a.6.6,0,0,1,.44-.18.65.65,0,0,1,.43.19.64.64,0,0,1,.17.44.62.62,0,0,1-.18.43l-3.88,3.9a.63.63,0,0,1-.2.13A.59.59,0,0,1,23.51,10.32Z" transform="translate(0 0)"/><path class="cls-2" d="M23.35,10.3a.51.51,0,0,1-.17,0l-3.47-1a.64.64,0,0,1-.24-.1.55.55,0,0,1-.26-.42.53.53,0,0,1,0-.25,1,1,0,0,1,.12-.23.59.59,0,0,1,.2-.15A.73.73,0,0,1,19.78,8a.7.7,0,0,1,.25.05l3.48,1a.63.63,0,0,1,.34.26.61.61,0,0,1,.09.42.63.63,0,0,1-.21.37.58.58,0,0,1-.39.15Z" transform="translate(0 0)"/><path class="cls-2" d="M27.37,6.3a.57.57,0,0,1-.18,0l-3.48-1a.65.65,0,0,1-.22-.11.7.7,0,0,1-.15-.19.63.63,0,0,1-.08-.23.66.66,0,0,1,0-.24.65.65,0,0,1,.11-.22.7.7,0,0,1,.19-.15A.46.46,0,0,1,23.82,4a.5.5,0,0,1,.24,0l3.48,1a.68.68,0,0,1,.34.26.62.62,0,0,1,.09.42.61.61,0,0,1-.21.37A.58.58,0,0,1,27.37,6.3Z" transform="translate(0 0)"/></svg>