<svg width="45" height="45" id="ff53f9f3-ad98-4a8f-afd0-f117576436a6" data-name="Layer 1" xmlns="http://www.w3.org/2000/svg" xmlns:xlink="http://www.w3.org/1999/xlink" viewBox="0 0 45 45"><defs><clipPath id="ba322812-e9f7-4029-8dba-511a876449be"><rect width="45" height="45" style="fill:none"/></clipPath></defs><g style="clip-path:url(#ba322812-e9f7-4029-8dba-511a876449be)"><path d="M13.9,10.745a8.6,8.6,0,0,1,17.2-.487v4.364a8.6,8.6,0,0,1-17.2.487Zm8.6,14.484A10.553,10.553,0,0,0,33.019,14.682V10.706a10.519,10.519,0,0,0-21.037,0v3.877A10.575,10.575,0,0,0,22.5,25.229Z" style="fill:#1f9055;stroke:#1f9055;stroke-miterlimit:10"/><path d="M43.538,42.565H2.429a10.564,10.564,0,0,1,10.518-9.623H22.5a.951.951,0,0,0,0-1.9H12.947A12.472,12.472,0,0,0,.5,43.479v.06a.925.925,0,0,0,.846.994H43.538a.994.994,0,1,0,0-1.988Z" style="fill:#1f9055;stroke:#1f9055;stroke-miterlimit:10"/><path d="M43.537,29.115H38.73V24.264a.986.986,0,0,0,.016-.452,1,1,0,0,0-1.767-.412,1.014,1.014,0,0,0-.186.412,1,1,0,0,0,.017.452v4.851H31.993a.994.994,0,1,0,0,1.988H36.81v4.821a1,1,0,0,0-.017.452,1.018,1.018,0,0,0,.186.413,1,1,0,0,0,1.751-.865v-4.87h4.807a.994.994,0,1,0,0-1.988Z" style="fill:#1f9055;stroke:#1f9055;stroke-miterlimit:10"/></g></svg>