<svg width="45" height="45" viewBox="0 0 45 45" fill="none" xmlns="http://www.w3.org/2000/svg">
<g clip-path="url(#clip0)">
<path d="M13.8125 31.8986H32.3021C35.4112 31.8986 38.3929 33.1323 40.5913 35.3283C42.7898 37.5243 44.0248 40.5027 44.0248 43.6083V43.6083H2.08984C2.08984 40.5027 3.32491 37.5243 5.52334 35.3283C7.72177 33.1323 10.7035 31.8986 13.8125 31.8986V31.8986Z" fill="#D2E8DD"/>
<path d="M13.9019 10.7455C13.8372 8.46772 14.6811 6.25755 16.2478 4.60123C17.8145 2.94491 19.9757 1.97811 22.2561 1.91352C24.5364 1.84893 26.749 2.69184 28.4071 4.25682C30.0653 5.82179 31.0332 7.98065 31.0978 10.2584V14.6223C31.1298 15.7501 30.9392 16.8732 30.5367 17.9275C30.1341 18.9817 29.5277 19.9464 28.7519 20.7666C27.9762 21.5867 27.0463 22.2462 26.0154 22.7073C24.9845 23.1685 23.8728 23.4223 22.7437 23.4543C21.6146 23.4863 20.4902 23.2958 19.4348 22.8937C18.3794 22.4917 17.4136 21.8859 16.5926 21.111C14.9344 19.546 13.9666 17.3871 13.9019 15.1093V10.7455Z" fill="#D2E8DD"/>
<path d="M22.5003 25.2286C25.2937 25.2181 27.969 24.1023 29.9405 22.1255C31.912 20.1488 33.0189 17.4722 33.0189 14.6819V10.7058C33.0189 7.91915 31.9107 5.24666 29.9381 3.27622C27.9655 1.30579 25.29 0.198807 22.5003 0.198807C19.7106 0.198807 17.0352 1.30579 15.0626 3.27622C13.09 5.24666 11.9817 7.91915 11.9817 10.7058V14.5825C11.9713 15.9718 12.2352 17.3495 12.7583 18.6368C13.2815 19.9241 14.0537 21.0957 15.0307 22.0846C16.0077 23.0734 17.1703 23.8601 18.4521 24.3996C19.7338 24.9391 21.1095 25.2208 22.5003 25.2286V25.2286Z" fill="#D2E8DD"/>
<path d="M13.9024 10.7455C13.8377 8.46772 14.6815 6.25755 16.2482 4.60123C17.815 2.94491 19.9762 1.97811 22.2565 1.91352C24.5368 1.84893 26.7494 2.69184 28.4076 4.25682C30.0658 5.82179 31.0336 7.98065 31.0983 10.2584V14.6223C31.1303 15.7501 30.9396 16.8732 30.5371 17.9275C30.1346 18.9817 29.5282 19.9464 28.7524 20.7666C27.9766 21.5867 27.0468 22.2462 26.0159 22.7073C24.985 23.1685 23.8732 23.4223 22.7441 23.4543C21.615 23.4863 20.4907 23.2958 19.4353 22.8937C18.3799 22.4917 17.4141 21.8859 16.593 21.111C14.9349 19.546 13.967 17.3871 13.9024 15.1093V10.7455ZM22.5003 25.2286C25.2937 25.2181 27.969 24.1023 29.9405 22.1255C31.912 20.1488 33.0189 17.4722 33.0189 14.6819V10.7058C33.0189 7.91915 31.9107 5.24666 29.9381 3.27622C27.9655 1.30579 25.29 0.198807 22.5003 0.198807C19.7106 0.198807 17.0352 1.30579 15.0626 3.27622C13.09 5.24666 11.9817 7.91915 11.9817 10.7058V14.5825C11.9713 15.9718 12.2352 17.3495 12.7583 18.6368C13.2815 19.9241 14.0537 21.0957 15.0307 22.0846C16.0077 23.0734 17.1703 23.8601 18.4521 24.3996C19.7338 24.9391 21.1095 25.2208 22.5003 25.2286V25.2286Z" fill="#1F9055" stroke="#1F9055" stroke-miterlimit="10"/>
<path d="M43.5376 42.5646H2.42855C2.66218 39.9383 3.87121 37.4945 5.8178 35.7138C7.76438 33.933 10.3076 32.9444 12.9471 32.9423H22.5004C22.7485 32.92 22.9792 32.8054 23.1469 32.6214C23.3145 32.4373 23.407 32.1972 23.406 31.9483C23.3858 31.7152 23.2839 31.4966 23.1182 31.3312C22.9526 31.1657 22.7338 31.0639 22.5004 31.0437H12.9471C9.64783 31.0516 6.48593 32.3643 4.15297 34.6947C1.82001 37.0251 0.505874 40.1835 0.497991 43.4791V43.5388C0.478724 43.7825 0.556911 44.024 0.715439 44.2103C0.873967 44.3965 1.09992 44.5125 1.34386 44.5328H43.5376C43.8015 44.5328 44.0546 44.4281 44.2412 44.2417C44.4279 44.0552 44.5327 43.8024 44.5327 43.5388C44.5327 43.2751 44.4279 43.0223 44.2412 42.8359C44.0546 42.6495 43.8015 42.5447 43.5376 42.5447V42.5646Z" fill="#1F9055" stroke="#1F9055" stroke-miterlimit="10"/>
<path d="M43.5367 29.1153H38.7302V24.2644C38.7704 24.117 38.7759 23.9623 38.7465 23.8124C38.717 23.6625 38.6534 23.5214 38.5605 23.4C38.4676 23.2786 38.348 23.1803 38.2109 23.1126C38.0738 23.0449 37.9229 23.0097 37.7699 23.0097C37.617 23.0097 37.4661 23.0449 37.329 23.1126C37.1919 23.1803 37.0723 23.2786 36.9794 23.4C36.8865 23.5214 36.8229 23.6625 36.7934 23.8124C36.764 23.9623 36.7695 24.117 36.8096 24.2644V29.1153H31.9932C31.7293 29.1153 31.4761 29.22 31.2895 29.4065C31.1029 29.5929 30.998 29.8457 30.998 30.1093C30.998 30.373 31.1029 30.6258 31.2895 30.8122C31.4761 30.9987 31.7293 31.1034 31.9932 31.1034H36.8096V35.9245C36.7695 36.0719 36.764 36.2266 36.7934 36.3765C36.8229 36.5264 36.8865 36.6675 36.9794 36.7889C37.0723 36.9102 37.1919 37.0086 37.329 37.0763C37.4661 37.144 37.617 37.1792 37.7699 37.1792C37.9229 37.1792 38.0738 37.144 38.2109 37.0763C38.348 37.0086 38.4676 36.9102 38.5605 36.7889C38.6534 36.6675 38.717 36.5264 38.7465 36.3765C38.7759 36.2266 38.7704 36.0719 38.7302 35.9245V31.0537H43.5367C43.8007 31.0537 44.0538 30.9489 44.2404 30.7625C44.427 30.5761 44.5319 30.3233 44.5319 30.0596C44.5319 29.796 44.427 29.5432 44.2404 29.3568C44.0538 29.1703 43.8007 29.0656 43.5367 29.0656V29.1153Z" fill="#1F9055" stroke="#1F9055" stroke-miterlimit="10"/>
</g>
<defs>
<clipPath id="clip0">
<rect width="45" height="45" fill="white"/>
</clipPath>
</defs>
</svg>
