<svg width="80" height="80" viewBox="0 0 80 80" fill="none" xmlns="http://www.w3.org/2000/svg">
<rect width="80" height="80" rx="40" fill="#1F9055"/>
<path d="M53.3172 56.999H26.7114C26.4846 57.0069 26.2587 56.9681 26.0476 56.885C25.8364 56.8019 25.6447 56.6762 25.4843 56.5157C25.3238 56.3553 25.1981 56.1636 25.115 55.9524C25.0318 55.7413 24.9931 55.5154 25.001 55.2886V32.0085C24.9931 31.7818 25.0318 31.5558 25.115 31.3447C25.1981 31.1336 25.3238 30.9418 25.4843 30.7814C25.6447 30.621 25.8364 30.4953 26.0476 30.4121C26.2587 30.329 26.4846 30.2902 26.7114 30.2982H29.9896V27.0199C29.9896 24.3625 31.0453 21.8139 32.9244 19.9348C34.8035 18.0557 37.3521 17 40.0095 17C42.667 17 45.2156 18.0557 47.0947 19.9348C48.9738 21.8139 50.0295 24.3625 50.0295 27.0199V30.2982H53.3172C53.5439 30.2902 53.7699 30.329 53.981 30.4121C54.1921 30.4953 54.3839 30.621 54.5443 30.7814C54.7048 30.9418 54.8305 31.1336 54.9136 31.3447C54.9967 31.5558 55.0355 31.7818 55.0276 32.0085V55.2886C55.0355 55.5154 54.9967 55.7413 54.9136 55.9524C54.8305 56.1636 54.7048 56.3553 54.5443 56.5157C54.3839 56.6762 54.1921 56.8019 53.981 56.885C53.7699 56.9681 53.5439 57.0069 53.3172 56.999ZM26.7637 55.2363H53.2649V32.0513H26.7637V55.2363ZM31.7522 30.2887H48.2763V27.0104C48.2763 24.8192 47.4059 22.7177 45.8564 21.1683C44.307 19.6188 42.2055 18.7484 40.0143 18.7484C37.8231 18.7484 35.7216 19.6188 34.1721 21.1683C32.6227 22.7177 31.7522 24.8192 31.7522 27.0104V30.2887Z" fill="white" stroke="white" stroke-width="0.5"/>
<path d="M40.9654 47.3211H38.951C37.7732 47.0762 36.7161 46.4324 35.9579 45.4985C35.1996 44.5646 34.7868 43.3977 34.7891 42.1948C34.7891 40.8087 35.3397 39.4794 36.3198 38.4993C37.2999 37.5192 38.6292 36.9686 40.0152 36.9686C41.4013 36.9686 42.7306 37.5192 43.7107 38.4993C44.6907 39.4794 45.2414 40.8087 45.2414 42.1948C45.2388 43.3958 44.8226 44.5592 44.0629 45.4894C43.3032 46.4196 42.2462 47.0597 41.0699 47.3021L40.9654 47.3211ZM39.236 45.5633H40.7754C41.5378 45.3881 42.2183 44.9596 42.7059 44.3479C43.1934 43.7361 43.4592 42.9771 43.4597 42.1948C43.4597 41.7412 43.3704 41.292 43.1968 40.873C43.0232 40.4539 42.7688 40.0732 42.4481 39.7524C42.1273 39.4317 41.7466 39.1773 41.3275 39.0037C40.9084 38.8301 40.4593 38.7408 40.0057 38.7408C39.5521 38.7408 39.103 38.8301 38.6839 39.0037C38.2649 39.1773 37.8841 39.4317 37.5634 39.7524C37.2426 40.0732 36.9882 40.4539 36.8146 40.873C36.641 41.292 36.5517 41.7412 36.5517 42.1948C36.5528 42.9784 36.8199 43.7384 37.3093 44.3503C37.7987 44.9623 38.4814 45.39 39.2455 45.5633H39.236Z" fill="white" stroke="white" stroke-width="0.5"/>
<path d="M40.0157 50.9604C39.7825 50.9604 39.559 50.8678 39.3942 50.7029C39.2293 50.5381 39.1367 50.3145 39.1367 50.0814V47.0835C39.1367 46.8504 39.2293 46.6269 39.3942 46.462C39.559 46.2972 39.7825 46.2046 40.0157 46.2046C40.2488 46.2046 40.4723 46.2972 40.6372 46.462C40.802 46.6269 40.8946 46.8504 40.8946 47.0835V50.1004C40.8896 50.3302 40.7948 50.549 40.6305 50.7097C40.4662 50.8704 40.2455 50.9604 40.0157 50.9604Z" fill="white" stroke="white" stroke-width="0.5"/>
</svg>
