<svg width="79" height="80" viewBox="0 0 79 80" fill="none" xmlns="http://www.w3.org/2000/svg">
<path d="M4.13291 42.6897C3.4761 43.3353 2.95443 44.1053 2.59834 44.9546C2.24224 45.804 2.05884 46.7157 2.05884 47.6367C2.05884 48.5577 2.24224 49.4695 2.59834 50.3188C2.95443 51.1682 3.4761 51.9381 4.13291 52.5838C5.47059 53.8286 7.22001 54.537 9.04696 54.5736H9.40974C9.34123 55.5455 9.48467 56.5208 9.83013 57.4319C10.1756 58.343 10.7148 59.1682 11.4105 59.8504C12.7554 61.0853 14.5099 61.7785 16.3356 61.7962H16.6984C16.6305 62.7698 16.7741 63.7465 17.1195 64.6593C17.4649 65.5721 18.0038 66.3993 18.6992 67.0841C20.0193 68.3644 21.7852 69.0818 23.6242 69.0849H23.976C23.9089 70.0577 24.0541 71.0334 24.4014 71.9446C24.7488 72.8557 25.2901 73.6805 25.9878 74.3617C27.3001 75.6436 29.0619 76.3612 30.8964 76.3612C32.7309 76.3612 34.4926 75.6436 35.8049 74.3617L35.9918 74.1748L39.8175 78.0005C41.1298 79.2824 42.8916 80 44.7261 80C46.5606 80 48.3223 79.2824 49.6346 78.0005C50.3334 77.3205 50.8746 76.4957 51.2203 75.584C51.566 74.6723 51.7077 73.696 51.6354 72.7237H51.9982C52.9096 72.734 53.814 72.5622 54.6582 72.2185C55.5024 71.8748 56.2695 71.366 56.9145 70.722C57.5596 70.0779 58.0696 69.3117 58.4146 68.468C58.7597 67.6243 58.9329 66.7203 58.924 65.8088V65.446H59.2868C61.1194 65.4431 62.8785 64.7253 64.1899 63.4452C64.8886 62.7653 65.4299 61.9404 65.7756 61.0287C66.1213 60.1171 66.2629 59.1407 66.1907 58.1684H66.5645C67.5161 58.1565 68.4559 57.956 69.3296 57.5786C70.2032 57.2012 70.9934 56.6544 71.6544 55.9697C72.9504 54.712 73.6972 52.9932 73.7322 51.1876C73.7672 49.3819 73.0876 47.6355 71.8413 46.3285L71.6544 46.1416C75.9077 41.4378 78.411 35.4124 78.743 29.0794C79.0749 22.7464 77.2154 16.4923 73.4772 11.3695C69.739 6.24675 64.3503 2.56794 58.2179 0.952145C52.0855 -0.663655 45.5837 -0.117822 39.8065 2.49779C34.4607 0.0445007 28.4675 -0.623885 22.7126 0.591419C16.9577 1.80672 11.7464 4.84124 7.84902 9.24648C3.9516 13.6517 1.57481 19.1939 1.06993 25.0541C0.565047 30.9142 1.95885 36.7813 5.04536 41.7882L4.13291 42.6897ZM6.68338 49.9783C6.06951 49.3446 5.72626 48.497 5.72626 47.6147C5.72626 46.7325 6.06951 45.8848 6.68338 45.2512L12.1801 39.7544C12.4841 39.4398 12.8531 39.1952 13.2613 39.0376C13.6695 38.8801 14.1071 38.8133 14.5437 38.842C15.4123 38.8689 16.2459 39.1907 16.9072 39.7544C17.5029 40.3964 17.8295 41.2424 17.8197 42.118C17.7936 42.9901 17.4718 43.8274 16.9072 44.4926L11.4105 49.9893C10.7365 50.5189 9.90415 50.8068 9.04696 50.8068C8.18976 50.8068 7.35741 50.5189 6.68338 49.9893M13.961 57.2669C13.3673 56.6186 13.0379 55.7715 13.0376 54.8924C13.0653 54.0239 13.387 53.1906 13.95 52.5288L19.4467 47.0321C20.0993 46.4432 20.9536 46.1282 21.8323 46.1526C22.7009 46.1795 23.5345 46.5013 24.1959 47.0651C24.8097 47.6987 25.153 48.5464 25.153 49.4286C25.153 50.3109 24.8097 51.1586 24.1959 51.7922L18.6992 57.2889C18.0655 57.9028 17.2178 58.2461 16.3356 58.2461C15.4533 58.2461 14.6057 57.9028 13.972 57.2889M21.2496 64.5666C20.6625 63.9194 20.3372 63.0768 20.3372 62.203C20.3684 61.3319 20.6896 60.4963 21.2496 59.8284L26.7463 54.3317C27.3883 53.7361 28.2343 53.4095 29.1099 53.4193C29.9786 53.4461 30.8122 53.7679 31.4735 54.3317C32.0874 54.9654 32.4306 55.813 32.4306 56.6953C32.4306 57.5776 32.0874 58.4252 31.4735 59.0589L25.9768 64.5556C25.3413 65.1702 24.4918 65.5137 23.6077 65.5137C22.7237 65.5137 21.8742 65.1702 21.2386 64.5556M28.5163 71.8332C27.9024 71.1995 27.5592 70.3519 27.5592 69.4696C27.5592 68.5874 27.9024 67.7397 28.5163 67.106L34.013 61.6093C34.6577 61.0473 35.4885 60.7456 36.3436 60.7629C37.2127 60.7871 38.0472 61.1092 38.7072 61.6753C39.0044 61.931 39.2505 62.2406 39.4327 62.5878C39.4327 62.6373 39.4524 62.6849 39.4875 62.7199C39.5225 62.755 39.5701 62.7746 39.6196 62.7746C39.7868 63.1738 39.8511 63.6085 39.8065 64.0389C39.7753 64.9099 39.4541 65.7456 38.8941 66.4135L33.3974 71.9102C32.7276 72.5267 31.8506 72.8689 30.9403 72.8689C30.0301 72.8689 29.153 72.5267 28.4833 71.9102M47.1721 75.549C46.5384 76.1628 45.6908 76.5061 44.8085 76.5061C43.9263 76.5061 43.0786 76.1628 42.4449 75.549L38.6192 71.7233L41.3456 68.9969C42.0581 68.2702 42.6153 67.4062 42.9836 66.4574L47.381 70.8548C47.9249 71.5329 48.2055 72.3847 48.1711 73.2533C48.1368 74.1219 47.7898 74.9489 47.1941 75.582M68.3014 10.7978C72.6288 15.0979 75.1371 20.8973 75.3069 26.9956C75.4768 33.0938 73.2952 39.0239 69.2139 43.5582L55.0874 28.3213C56.8434 27.5981 58.4472 26.5501 59.8145 25.2322C59.982 25.0647 60.1148 24.8659 60.2055 24.6471C60.2961 24.4283 60.3427 24.1938 60.3427 23.9569C60.3427 23.7201 60.2961 23.4856 60.2055 23.2668C60.1148 23.048 59.982 22.8492 59.8145 22.6817C59.6471 22.5142 59.4482 22.3814 59.2294 22.2907C59.0106 22.2001 58.7761 22.1535 58.5393 22.1535C58.3024 22.1535 58.0679 22.2001 57.8491 22.2907C57.6303 22.3814 57.4315 22.5142 57.264 22.6817C49.4477 30.498 34.3428 22.3189 34.1779 22.3189C33.8191 22.1437 33.4146 22.0845 33.0207 22.1495C32.6267 22.2146 32.2627 22.4005 31.9792 22.6817C26.3396 28.3213 21.0628 27.9585 18.1495 27.0791L34.5297 10.6989C36.7384 8.45391 39.3719 6.67098 42.2766 5.45396C45.1813 4.23694 48.2992 3.61017 51.4485 3.61017C54.5979 3.61017 57.7158 4.23694 60.6205 5.45396C63.5252 6.67098 66.1586 8.45391 68.3674 10.6989M11.5974 10.6989C14.7065 7.60284 18.6079 5.42244 22.874 4.39664C27.14 3.37084 31.6062 3.53923 35.7829 4.88336C34.328 5.82695 32.9854 6.93344 31.7813 8.18138L13.5982 26.3205C13.2278 26.7161 13.0266 27.2408 13.0376 27.7826C13.043 28.04 13.1133 28.2919 13.2421 28.5148C13.3709 28.7378 13.5539 28.9246 13.7741 29.0579C13.95 29.0579 23.2285 35.2472 33.2434 26.1446C36.1457 27.6067 43.6102 30.6959 50.712 29.6075L68.9061 48.89C69.2118 49.2098 69.45 49.5879 69.6065 50.0017C69.7631 50.4155 69.8348 50.8566 69.8173 51.2987C69.7999 51.7408 69.6937 52.1748 69.505 52.575C69.3164 52.9752 69.0491 53.3334 68.7192 53.6281C68.0855 54.242 67.2379 54.5853 66.3556 54.5853C65.4733 54.5853 64.6257 54.242 63.992 53.6281L57.396 47.0321C57.0578 46.6939 56.599 46.5039 56.1207 46.5039C55.6424 46.5039 55.1837 46.6939 54.8455 47.0321C54.5073 47.3703 54.3173 47.829 54.3173 48.3073C54.3173 48.7856 54.5073 49.2443 54.8455 49.5826L61.4415 56.1786C62.0684 56.8055 62.4206 57.6557 62.4206 58.5422C62.4206 59.4287 62.0684 60.2789 61.4415 60.9058C60.8147 61.5326 59.9645 61.8848 59.078 61.8848C58.1914 61.8848 57.3412 61.5326 56.7144 60.9058L50.1183 54.3097C49.7752 54.0047 49.3285 53.8421 48.8695 53.8551C48.4106 53.8681 47.9738 54.0557 47.6485 54.3797C47.3231 54.7036 47.1336 55.1395 47.1186 55.5985C47.1036 56.0574 47.2643 56.5047 47.5679 56.8492L54.1639 63.4452C54.7595 64.0872 55.0861 64.9332 55.0764 65.8088C55.0495 66.6775 54.7277 67.511 54.1639 68.1724C53.5302 68.7863 52.6826 69.1295 51.8003 69.1295C50.9181 69.1295 50.0704 68.7863 49.4367 68.1724L42.1701 60.8948C41.8483 60.2205 41.4174 59.6039 40.8949 59.0699C40.1972 58.3956 39.3695 57.8705 38.4623 57.5265C37.5551 57.1825 36.5873 57.0269 35.618 57.0691C35.702 56.0957 35.5657 55.116 35.2193 54.2025C34.873 53.289 34.3254 52.4652 33.6172 51.7922C32.9361 51.0937 32.1117 50.5512 31.2007 50.202C30.2897 49.8528 29.3139 49.7052 28.3404 49.7694C28.393 48.8009 28.2407 47.8322 27.8933 46.9265C27.5458 46.0209 27.0112 45.1988 26.3243 44.514C25.6374 43.8291 24.8137 43.297 23.907 42.9523C23.0003 42.6077 22.0311 42.4582 21.0628 42.5138C21.1313 41.5409 20.9869 40.5647 20.6394 39.6533C20.292 38.7419 19.7499 37.9173 19.051 37.237C18.4082 36.5891 17.6435 36.075 16.801 35.7241C15.9586 35.3732 15.055 35.1926 14.1424 35.1926C13.2298 35.1926 12.3262 35.3732 11.4838 35.7241C10.6413 36.075 9.87664 36.5891 9.23385 37.237L7.23305 39.2378C4.85455 34.6193 3.99898 29.3666 4.7889 24.232C5.57882 19.0975 7.97371 14.3448 11.6304 10.6549" fill="#1F9055"/>
</svg>
