<svg width="55" height="50" viewBox="0 0 55 50" fill="none" xmlns="http://www.w3.org/2000/svg">
<path d="M45.2416 49.23C44.9225 49.2185 44.6089 49.1437 44.3189 49.01C44.0289 48.8763 43.5522 48.4511 43.5522 48.4511L28.6078 38.2351H3.21063C2.91345 38.2461 2.6172 38.1957 2.34033 38.0871C2.06346 37.9785 1.81191 37.814 1.60134 37.6038C1.39077 37.3937 1.22571 37.1424 1.11642 36.8656C1.00713 36.5889 0.955962 36.2925 0.966104 35.9951V3.0166C0.956011 2.71892 1.00716 2.42234 1.11639 2.14526C1.22562 1.86819 1.39059 1.61654 1.60106 1.40592C1.81153 1.19531 2.06301 1.03023 2.33989 0.920927C2.61678 0.811626 2.91316 0.760437 3.21063 0.770537H51.5405C51.838 0.760437 52.1343 0.811626 52.4112 0.920927C52.6881 1.03023 52.9396 1.19531 53.1501 1.40592C53.3605 1.61654 53.5255 1.86819 53.6347 2.14526C53.7439 2.42234 53.7951 2.71892 53.785 3.0166V35.9951C53.7952 36.2925 53.744 36.5889 53.6347 36.8656C53.5254 37.1424 53.3603 37.3937 53.1498 37.6038C52.9392 37.814 52.6876 37.9785 52.4108 38.0871C52.1339 38.1957 51.8377 38.2461 51.5405 38.2351H47.0397V47.3077C47.0397 48.3606 46.5671 48.8489 46.2534 49.0058C45.9397 49.1628 45.5922 49.2398 45.2416 49.23ZM45.2416 47.7941H45.2778V36.8717H52.2327L52.2327 2.30775H2.51842L2.51842 36.8656H29.7059L45.2416 47.7941Z" fill="#1F9055" stroke="#1F9055" stroke-width="0.5"/>
<path d="M27.0759 33.846C24.23 33.8633 21.443 33.0434 19.0682 31.4903C16.6934 29.9371 14.8378 27.7207 13.7366 25.1219C12.6354 22.5232 12.3382 19.6591 12.8827 16.8929C13.4271 14.1267 14.7888 11.5828 16.795 9.58388C18.8012 7.58493 21.3616 6.22088 24.1516 5.66467C26.9416 5.10846 29.8355 5.38513 32.4665 6.45961C35.0975 7.53409 37.3471 9.35798 38.9301 11.7001C40.5131 14.0422 41.3582 16.797 41.3582 19.6153C41.3657 23.3767 39.8662 26.9874 37.1887 29.6553C34.5111 32.3232 30.8742 33.8303 27.0759 33.846ZM27.0759 6.6979C24.4906 6.67921 21.958 7.42131 19.7992 8.83005C17.6405 10.2388 15.9528 12.2507 14.9504 14.6106C13.948 16.9705 13.6759 19.5721 14.1686 22.0854C14.6614 24.5986 15.8969 26.9103 17.7183 28.7273C19.5397 30.5442 21.865 31.7846 24.3992 32.2909C26.9335 32.7973 29.5626 32.5469 31.9529 31.5716C34.3433 30.5962 36.3873 28.9397 37.8256 26.8123C39.264 24.685 40.0319 22.1825 40.0319 19.6223C40.0413 16.208 38.6824 12.9295 36.2533 10.5064C33.8243 8.08334 30.5237 6.71361 27.0759 6.6979Z" fill="#1F9055"/>
<path fill-rule="evenodd" clip-rule="evenodd" d="M32.3523 6.73729C29.7759 5.68509 26.9418 5.41412 24.2094 5.95883C21.4771 6.50354 18.9701 7.83932 17.006 9.79635C15.0419 11.7534 13.7091 14.2434 13.1762 16.9508C12.6433 19.6581 12.9342 22.4612 14.012 25.0048C15.0899 27.5485 16.9063 29.7184 19.2316 31.2392C21.5569 32.7599 24.2861 33.5629 27.0733 33.546L27.0751 33.8457L27.0739 33.546C30.7937 33.5306 34.3548 32.0546 36.9761 29.4427C39.5974 26.831 41.0648 23.2968 41.0575 19.6158L41.0575 19.6152C41.0574 16.857 40.2303 14.1607 38.6808 11.868C37.1312 9.57534 34.9287 7.78948 32.3523 6.73729ZM27.0769 34.146C24.1723 34.1636 21.3275 33.3268 18.9032 31.7413C16.4789 30.1558 14.5841 27.8928 13.4596 25.2389C12.335 22.585 12.0314 19.66 12.5875 16.8349C13.1436 14.0098 14.5342 11.4122 16.5825 9.37132C18.6307 7.33045 21.2445 5.93812 24.0921 5.37041C26.9398 4.8027 29.8936 5.08507 32.5792 6.18183C35.2648 7.2786 37.5615 9.14053 39.1779 11.532C40.7942 13.9234 41.6573 16.7365 41.6575 19.6146C41.6651 23.4564 40.1335 27.1437 37.3996 29.8678C34.666 32.5915 30.9535 34.1298 27.0769 34.146ZM19.6345 8.57876C21.8427 7.13777 24.433 6.37883 27.0769 6.39785C30.603 6.41403 33.9793 7.81491 36.4644 10.294C38.9498 12.7732 40.3408 16.1283 40.3312 19.623C40.3309 22.243 39.545 24.8037 38.0734 26.9803C36.6016 29.1571 34.5105 30.8516 32.0655 31.8493C29.6205 32.8469 26.9316 33.103 24.3397 32.5851C21.7477 32.0672 19.3691 30.7985 17.5056 28.9396C15.6421 27.0807 14.3778 24.7152 13.8735 22.143C13.3691 19.5708 13.6476 16.9083 14.6735 14.4933C15.6993 12.0783 17.4262 10.0198 19.6345 8.57876ZM27.0751 6.69785L27.0729 6.99784C24.5465 6.97958 22.0716 7.70482 19.9624 9.08124C17.8532 10.4576 16.2048 12.4231 15.2257 14.7279C14.2467 17.0326 13.981 19.5732 14.4623 22.0276C14.9435 24.4819 16.1501 26.7399 17.9294 28.5148C19.7087 30.2898 21.9807 31.5019 24.4572 31.9967C26.9338 32.4916 29.503 32.2469 31.8388 31.2937C34.1746 30.3406 36.1714 28.7222 37.5763 26.6443C38.9812 24.5663 39.7311 22.1223 39.7312 19.6222L39.7312 19.6214C39.7403 16.2875 38.4134 13.0857 36.0407 10.7188C33.6679 8.35175 30.443 7.0132 27.0737 6.99784L27.0751 6.69785Z" fill="#1F9055"/>
<path d="M27.3541 33.1165C27.1587 33.1165 26.9712 33.0477 26.833 32.9253C26.6948 32.8028 26.6172 32.6368 26.6172 32.4637V6.76733C26.6172 6.59419 26.6948 6.42814 26.833 6.30571C26.9712 6.18328 27.1587 6.1145 27.3541 6.1145C27.5496 6.1145 27.737 6.18328 27.8752 6.30571C28.0134 6.42814 28.0911 6.59419 28.0911 6.76733V32.4637C28.0911 32.6368 28.0134 32.8028 27.8752 32.9253C27.737 33.0477 27.5496 33.1165 27.3541 33.1165Z" fill="#1F9055"/>
<path fill-rule="evenodd" clip-rule="evenodd" d="M27.3573 6.41445C27.2304 6.41445 27.115 6.45942 27.0351 6.53022C26.9563 6.59998 26.9203 6.68625 26.9203 6.76728V32.4636C26.9203 32.5446 26.9563 32.6309 27.0351 32.7007C27.115 32.7715 27.2304 32.8164 27.3573 32.8164C27.4841 32.8164 27.5995 32.7715 27.6794 32.7007C27.7582 32.6309 27.7942 32.5446 27.7942 32.4636V6.76728C27.7942 6.68625 27.7582 6.59998 27.6794 6.53022C27.5995 6.45942 27.4841 6.41445 27.3573 6.41445ZM26.6372 6.0811C26.8337 5.90705 27.0932 5.81445 27.3573 5.81445C27.6213 5.81445 27.8808 5.90705 28.0773 6.0811C28.275 6.2562 28.3942 6.50203 28.3942 6.76728V32.4636C28.3942 32.7289 28.275 32.9747 28.0773 33.1498C27.8808 33.3238 27.6213 33.4164 27.3573 33.4164C27.0932 33.4164 26.8337 33.3238 26.6372 33.1498C26.4396 32.9747 26.3203 32.7289 26.3203 32.4636V6.76728C26.3203 6.50203 26.4396 6.2562 26.6372 6.0811Z" fill="#1F9055"/>
<path d="M39.9595 19.9803H14.0108C13.836 19.9803 13.6683 19.9418 13.5446 19.8734C13.421 19.805 13.3516 19.7122 13.3516 19.6154C13.3516 19.5186 13.421 19.4258 13.5446 19.3574C13.6683 19.2889 13.836 19.2505 14.0108 19.2505H39.9595C40.1343 19.2505 40.302 19.2889 40.4257 19.3574C40.5493 19.4258 40.6187 19.5186 40.6187 19.6154C40.6187 19.7122 40.5493 19.805 40.4257 19.8734C40.302 19.9418 40.1343 19.9803 39.9595 19.9803Z" fill="#1F9055"/>
<path fill-rule="evenodd" clip-rule="evenodd" d="M13.3025 18.9199C13.5159 18.8018 13.7711 18.7505 14.0108 18.7505H39.9595C40.1992 18.7505 40.4544 18.8018 40.6678 18.9199C40.8694 19.0315 41.1187 19.2598 41.1187 19.6154C41.1187 19.9709 40.8694 20.1992 40.6678 20.3109C40.4544 20.429 40.1992 20.4803 39.9595 20.4803H14.0108C13.7711 20.4803 13.5159 20.429 13.3025 20.3109C13.1009 20.1993 12.8516 19.9709 12.8516 19.6154C12.8516 19.2598 13.1009 19.0315 13.3025 18.9199Z" fill="#1F9055"/>
<path d="M26.9866 33.8463C22.2333 33.8463 18.5117 27.5972 18.5117 19.6155C18.5117 11.6339 22.2333 5.38477 26.9866 5.38477C31.74 5.38477 35.4616 11.6339 35.4616 19.6155C35.4616 27.5972 31.74 33.8463 26.9866 33.8463ZM26.9866 6.69816C23.0516 6.69816 19.8495 12.4932 19.8495 19.6225C19.8495 26.7519 23.0516 32.5469 26.9866 32.5469C30.9217 32.5469 34.1238 26.7519 34.1238 19.6225C34.1238 12.4932 30.9217 6.69816 26.9866 6.69816Z" fill="#1F9055"/>
<path fill-rule="evenodd" clip-rule="evenodd" d="M21.2236 9.66048C19.7319 12.1653 18.8109 15.6675 18.8109 19.6155C18.8109 23.5635 19.7319 27.0657 21.2236 29.5705C22.7177 32.0793 24.7541 33.5463 26.9859 33.5463C29.2176 33.5463 31.254 32.0793 32.7481 29.5705C34.2398 27.0657 35.1608 23.5635 35.1608 19.6155C35.1608 15.6675 34.2398 12.1653 32.7481 9.66048C31.254 7.15169 29.2176 5.68472 26.9859 5.68472C24.7541 5.68472 22.7177 7.15169 21.2236 9.66048ZM20.7081 9.35347C22.2632 6.7423 24.4643 5.08472 26.9859 5.08472C29.5075 5.08472 31.7085 6.7423 33.2636 9.35347C34.821 11.9686 35.7608 15.5818 35.7608 19.6155C35.7608 23.6492 34.821 27.2623 33.2636 29.8775C31.7085 32.4887 29.5075 34.1463 26.9859 34.1463C24.4643 34.1463 22.2632 32.4887 20.7081 29.8775C19.1507 27.2623 18.2109 23.6492 18.2109 19.6155C18.2109 15.5818 19.1507 11.9686 20.7081 9.35347ZM21.679 10.3417C22.9943 7.96043 24.8588 6.39811 26.9859 6.39811C29.113 6.39811 30.9774 7.96043 32.2927 10.3417C33.6139 12.7338 34.423 16.0168 34.423 19.6225C34.423 23.2282 33.6139 26.5111 32.2927 28.9032C30.9774 31.2845 29.113 32.8468 26.9859 32.8468C24.8588 32.8468 22.9943 31.2845 21.679 28.9032C20.3578 26.5111 19.5487 23.2282 19.5487 19.6225C19.5487 16.0168 20.3578 12.7338 21.679 10.3417ZM22.2043 10.6318C20.9407 12.9196 20.1487 16.0988 20.1487 19.6225C20.1487 23.1461 20.9407 26.3254 22.2043 28.6131C23.4738 30.9116 25.1779 32.2468 26.9859 32.2468C28.7938 32.2468 30.4979 30.9116 31.7675 28.6131C33.0311 26.3254 33.823 23.1461 33.823 19.6225C33.823 16.0988 33.0311 12.9196 31.7675 10.6318C30.4979 8.3333 28.7938 6.99811 26.9859 6.99811C25.1779 6.99811 23.4738 8.3333 22.2043 10.6318Z" fill="#1F9055"/>
<path d="M27.0374 16.3315C22.3023 16.3315 16.8204 14.4076 15.7634 12.3739C15.6145 12.1159 15.5459 11.8213 15.5659 11.526C15.5859 11.2307 15.6937 10.9474 15.8762 10.7107C17.7188 8.29292 21.1362 5.40877 26.9845 5.38477H27.062C33.615 5.38477 36.8598 8.73875 38.2126 10.7415C38.3402 10.9368 38.408 11.1634 38.408 11.3948C38.408 11.6263 38.3402 11.8529 38.2126 12.0482C37.2508 13.7526 32.3185 16.3315 27.0374 16.3315ZM27.0585 6.67423H26.9845C21.6999 6.69481 18.603 9.29775 16.9472 11.4754C16.9049 11.5303 16.8556 11.5955 16.9472 11.7909C17.6095 13.0667 22.2318 15.0386 27.0268 15.0386C32.3784 15.0386 36.7787 12.2196 37.0465 11.3828C35.8275 9.59611 32.9174 6.67423 27.0585 6.67423Z" fill="#1F9055"/>
<path fill-rule="evenodd" clip-rule="evenodd" d="M26.9864 5.08472L26.9876 5.08472L27.0651 5.08472C33.7417 5.08472 37.0706 8.51023 38.4644 10.5736L38.4669 10.5774L38.4669 10.5774C38.6261 10.8211 38.7111 11.1046 38.7111 11.3948C38.7111 11.6817 38.628 11.9621 38.4723 12.2039C38.1984 12.6843 37.67 13.1928 36.9799 13.6813C36.2794 14.1771 35.3883 14.6692 34.3655 15.1049C32.3207 15.9761 29.7274 16.6315 27.0405 16.6315C24.6364 16.6315 22.0487 16.1438 19.9249 15.3984C18.8626 15.0255 17.9084 14.5854 17.1477 14.1037C16.3958 13.6276 15.8044 13.0932 15.5034 12.5181C15.3272 12.2102 15.2458 11.8586 15.2697 11.5057C15.2938 11.1508 15.4232 10.8113 15.6412 10.5282C17.5254 8.05606 21.0232 5.1092 26.9864 5.08472ZM27.0651 5.68472H26.9883C21.2556 5.70845 17.9189 8.52928 16.1179 10.8925L16.1169 10.8938L16.1169 10.8938C15.9703 11.084 15.8843 11.3107 15.8683 11.5462C15.8524 11.7817 15.907 12.0171 16.0264 12.2239L16.033 12.2354L16.0328 12.2356C16.2611 12.675 16.7499 13.1417 17.4686 13.5968C18.181 14.0478 19.0913 14.4699 20.1236 14.8322C22.1888 15.5571 24.7095 16.0315 27.0405 16.0315C29.6347 16.0315 32.1481 15.3974 34.1303 14.5529C35.1209 14.1309 35.9733 13.6587 36.6332 13.1916C37.2994 12.72 37.7461 12.27 37.9545 11.9007L37.9593 11.8922L37.9646 11.884C38.0606 11.7371 38.1111 11.5674 38.1111 11.3948C38.1111 11.2229 38.061 11.0538 37.9658 10.9074C36.653 8.96485 33.4922 5.68472 27.0651 5.68472ZM26.9865 6.37419L26.9876 6.37418L27.0616 6.37419C33.0405 6.37419 36.0354 9.36389 37.2974 11.2137L37.38 11.3347L37.3353 11.4742C37.279 11.6504 37.1371 11.8282 36.9744 11.9917C36.8027 12.1642 36.574 12.3536 36.2982 12.551C35.7458 12.9463 34.9856 13.3866 34.0691 13.7982C32.2365 14.621 29.7566 15.3386 27.0299 15.3386C24.5941 15.3386 22.2058 14.8383 20.34 14.1759C19.407 13.8446 18.5979 13.4704 17.975 13.0932C17.3656 12.7241 16.89 12.3259 16.6841 11.9291L16.6784 11.9183L16.6787 11.9182C16.6208 11.7948 16.5861 11.6691 16.6026 11.5419C16.6193 11.4126 16.6848 11.3282 16.7098 11.296C16.7108 11.2947 16.7118 11.2934 16.7127 11.2923L16.9503 11.4754L16.7115 11.2938C18.4094 9.06088 21.5869 6.39521 26.9865 6.37419ZM26.9882 6.97419C21.8392 6.99442 18.8267 9.51461 17.2083 11.6319C17.2111 11.6392 17.2148 11.648 17.2194 11.6581C17.347 11.8987 17.6968 12.2232 18.2858 12.58C18.8657 12.9312 19.636 13.2892 20.5408 13.6104C22.3505 14.2529 24.6708 14.7386 27.0299 14.7386C29.6549 14.7386 32.0509 14.0466 33.8233 13.2508C34.7093 12.853 35.4339 12.4317 35.9491 12.0631C36.2071 11.8785 36.4079 11.7104 36.5491 11.5685C36.6158 11.5014 36.6636 11.4457 36.697 11.4016C35.4622 9.66763 32.6368 6.97419 27.0616 6.97419H26.9882Z" fill="#1F9055"/>
<path d="M27.0534 33.8462H26.9828C21.1299 33.8187 17.7099 30.9284 15.8764 28.5255C15.6938 28.2886 15.5859 28.005 15.5659 27.7094C15.5459 27.4139 15.6146 27.119 15.7636 26.8607C16.8213 24.8251 22.297 22.8994 27.0463 22.8994C32.3351 22.8994 37.2713 25.4808 38.2127 27.1868C38.3402 27.3829 38.408 27.6103 38.408 27.8424C38.408 28.0746 38.3402 28.302 38.2127 28.4981C36.8552 30.4856 33.615 33.8462 27.0534 33.8462ZM27.0534 24.1764C22.2582 24.1764 17.6288 26.1501 16.9659 27.4305C16.8672 27.6228 16.9165 27.688 16.9659 27.7429C18.623 29.9261 21.7082 32.5486 27.011 32.5486H27.078C32.945 32.5486 35.8574 29.624 37.0879 27.8321C36.7918 26.998 32.388 24.1764 27.0357 24.1764H27.0534Z" fill="#1F9055"/>
<path fill-rule="evenodd" clip-rule="evenodd" d="M17.4686 25.6366C16.7503 26.092 16.2616 26.5592 16.0329 26.9992L16.0268 27.011L16.0266 27.0108C15.9071 27.2179 15.8524 27.4536 15.8683 27.6894C15.8843 27.9252 15.9704 28.1522 16.1172 28.3426L16.118 28.3438C17.9099 30.6922 21.2495 33.5192 26.9868 33.5464H27.0565C33.4908 33.5464 36.6476 30.261 37.966 28.3321C38.0611 28.1848 38.1111 28.0152 38.1111 27.8426C38.1111 27.669 38.0605 27.4984 37.9643 27.3506L37.9584 27.3415L37.9531 27.3319C37.7499 26.9636 37.3076 26.5139 36.6438 26.0419C35.9865 25.5745 35.1355 25.1019 34.1452 24.6795C32.1637 23.8343 29.6475 23.1996 27.0494 23.1996C24.7112 23.1996 22.1886 23.6744 20.1232 24.4C19.0908 24.7626 18.1807 25.1851 17.4686 25.6366ZM19.9243 23.8339C22.0485 23.0877 24.6383 22.5996 27.0494 22.5996C29.7402 22.5996 32.3364 23.2556 34.3806 24.1276C35.4031 24.5638 36.2932 25.0564 36.9915 25.5529C37.6788 26.0415 38.2042 26.5508 38.4733 27.0327C38.6284 27.275 38.7111 27.5556 38.7111 27.8426C38.7111 28.1333 38.6262 28.4175 38.4673 28.6619L38.4636 28.6675L38.4635 28.6675C37.0658 30.7139 33.742 34.1464 27.0565 34.1464H26.986L26.9846 34.1464C21.0168 34.1184 17.5164 31.1653 15.6414 28.7082C15.4233 28.4249 15.2938 28.085 15.2697 27.7299C15.2458 27.3767 15.3273 27.0249 15.5035 26.7168C15.8047 26.1412 16.3957 25.6064 17.1474 25.1298C17.9079 24.6477 18.8619 24.2071 19.9243 23.8339ZM20.3627 25.0408C22.2259 24.3789 24.609 23.879 27.0389 23.8766V23.8766H27.0565V23.8766C29.7766 23.8797 32.2508 24.5966 34.0836 25.4179C35.0023 25.8295 35.7654 26.2698 36.3217 26.6646C36.5995 26.8617 36.8303 27.0506 37.0042 27.2221C37.1697 27.3853 37.3128 27.5604 37.3738 27.732L37.4249 27.8761L37.3384 28.0022C36.0651 29.8562 33.0683 32.8488 27.0812 32.8488H27.0142C21.6024 32.8488 18.4376 30.1698 16.7374 27.9341C16.7025 27.8946 16.6333 27.8092 16.616 27.6773C16.5985 27.5432 16.6404 27.4139 16.7022 27.2937L16.7026 27.2928C16.9087 26.8948 17.3848 26.4955 17.995 26.1256C18.6186 25.7474 19.4288 25.3726 20.3627 25.0408ZM27.0474 24.4766C24.6913 24.4778 22.3728 24.9635 20.5636 25.6062C19.6579 25.9279 18.8867 26.2866 18.3061 26.6386C17.7123 26.9986 17.3613 27.3261 17.2357 27.5682C17.2323 27.5749 17.2293 27.5809 17.2267 27.5864C18.847 29.7101 21.8479 32.2488 27.0142 32.2488H27.0812C32.6599 32.2488 35.488 29.5568 36.7353 27.8171C36.7002 27.7722 36.6508 27.7162 36.583 27.6494C36.4385 27.507 36.2348 27.3386 35.9745 27.1539C35.4546 26.785 34.7266 26.3635 33.8383 25.9654C32.0631 25.17 29.6692 24.4781 27.0474 24.4766Z" fill="#1F9055"/>
</svg>
