<svg width="35" height="41" viewBox="0 0 35 41" fill="none" xmlns="http://www.w3.org/2000/svg">
<path d="M32.0044 39.1356H3.79973C3.56473 39.1437 3.33062 39.1024 3.11201 39.0144C2.89341 38.9265 2.695 38.7936 2.52918 38.6243C2.36335 38.4549 2.23367 38.2527 2.14822 38.0302C2.06277 37.8076 2.02339 37.5696 2.03255 37.3309V3.31184C2.02471 3.07393 2.06506 2.83693 2.1511 2.61552C2.23714 2.39411 2.36703 2.19302 2.53271 2.0247C2.6984 1.85638 2.89635 1.72443 3.1143 1.63703C3.33225 1.54963 3.56555 1.50864 3.79973 1.5166H32.0044C32.2386 1.50864 32.4719 1.54963 32.6899 1.63703C32.9078 1.72443 33.1058 1.85638 33.2714 2.0247C33.4371 2.19302 33.567 2.39411 33.6531 2.61552C33.7391 2.83693 33.7794 3.07393 33.7716 3.31184C33.7716 16.7304 33.7716 23.9222 33.7716 37.3309C33.7808 37.5696 33.7414 37.8076 33.6559 38.0302C33.5705 38.2527 33.4408 38.4549 33.275 38.6243C33.1092 38.7936 32.9107 38.9265 32.6921 39.0144C32.4735 39.1024 32.2394 39.1437 32.0044 39.1356ZM3.79973 37.3309H31.9997C31.9997 23.7072 31.9997 16.7467 31.9997 3.3166H3.80442L3.79973 37.3309Z" fill="#013763" stroke="#013763" stroke-width="0.5"/>
<path d="M27.9313 10.3352H8.54219C8.30722 10.3352 8.08188 10.2403 7.91574 10.0716C7.74959 9.90277 7.65625 9.67385 7.65625 9.43516C7.65625 9.19646 7.74959 8.96754 7.91574 8.79876C8.08188 8.62998 8.30722 8.53516 8.54219 8.53516H27.9313C28.1663 8.53516 28.3916 8.62998 28.5577 8.79876C28.7239 8.96754 28.8172 9.19646 28.8172 9.43516C28.8172 9.67385 28.7239 9.90277 28.5577 10.0716C28.3916 10.2403 28.1663 10.3352 27.9313 10.3352Z" fill="#013763" stroke="#013763" stroke-width="0.5"/>
<path d="M27.915 17.5984H8.60659C8.48514 17.6074 8.36317 17.5909 8.2483 17.5498C8.13343 17.5088 8.02811 17.4441 7.93893 17.3599C7.84976 17.2757 7.77863 17.1737 7.72999 17.0603C7.68135 16.9469 7.65625 16.8245 7.65625 16.7008C7.65625 16.5771 7.68135 16.4547 7.72999 16.3413C7.77863 16.2279 7.84976 16.1259 7.93893 16.0417C8.02811 15.9574 8.13343 15.8928 8.2483 15.8517C8.36317 15.8107 8.48514 15.7942 8.60659 15.8032H27.915C28.1383 15.8197 28.3471 15.9214 28.4995 16.088C28.6519 16.2545 28.7366 16.4734 28.7366 16.7008C28.7366 16.9282 28.6519 17.1471 28.4995 17.3136C28.3471 17.4801 28.1383 17.5819 27.915 17.5984Z" fill="#013763" stroke="#013763" stroke-width="0.5"/>
<path d="M27.7175 31.8845H8.60659C8.48514 31.8935 8.36317 31.877 8.2483 31.836C8.13343 31.7949 8.02811 31.7303 7.93893 31.646C7.84976 31.5618 7.77863 31.4598 7.72999 31.3464C7.68135 31.233 7.65625 31.1106 7.65625 30.9869C7.65625 30.8632 7.68135 30.7408 7.72999 30.6274C7.77863 30.514 7.84976 30.412 7.93893 30.3278C8.02811 30.2436 8.13343 30.1789 8.2483 30.1379C8.36317 30.0968 8.48514 30.0803 8.60659 30.0893H27.7175C27.839 30.0803 27.9609 30.0968 28.0758 30.1379C28.1907 30.1789 28.296 30.2436 28.3852 30.3278C28.4744 30.412 28.5455 30.514 28.5941 30.6274C28.6428 30.7408 28.6679 30.8632 28.6679 30.9869C28.6679 31.1106 28.6428 31.233 28.5941 31.3464C28.5455 31.4598 28.4744 31.5618 28.3852 31.646C28.296 31.7303 28.1907 31.7949 28.0758 31.836C27.9609 31.877 27.839 31.8935 27.7175 31.8845Z" fill="#013763" stroke="#013763" stroke-width="0.5"/>
<path d="M27.7175 24.742H8.60659C8.48514 24.7509 8.36317 24.7344 8.2483 24.6934C8.13343 24.6523 8.02811 24.5877 7.93893 24.5035C7.84976 24.4192 7.77863 24.3172 7.72999 24.2038C7.68135 24.0904 7.65625 23.968 7.65625 23.8443C7.65625 23.7206 7.68135 23.5983 7.72999 23.4849C7.77863 23.3714 7.84976 23.2694 7.93893 23.1852C8.02811 23.101 8.13343 23.0363 8.2483 22.9953C8.36317 22.9543 8.48514 22.9377 8.60659 22.9467H27.7175C27.839 22.9377 27.9609 22.9543 28.0758 22.9953C28.1907 23.0363 28.296 23.101 28.3852 23.1852C28.4744 23.2694 28.5455 23.3714 28.5941 23.4849C28.6428 23.5983 28.6679 23.7206 28.6679 23.8443C28.6679 23.968 28.6428 24.0904 28.5941 24.2038C28.5455 24.3172 28.4744 24.4192 28.3852 24.5035C28.296 24.5877 28.1907 24.6523 28.0758 24.6934C27.9609 24.7344 27.839 24.7509 27.7175 24.742Z" fill="#013763" stroke="#013763" stroke-width="0.5"/>
</svg>
