<svg width="45" height="45" viewBox="0 0 45 45" fill="none" xmlns="http://www.w3.org/2000/svg">
<path d="M41.7711 33.1701C41.867 33.1701 41.9629 33.266 42.0645 33.266C42.2649 33.2427 42.4576 33.1752 42.6288 33.0685C42.7557 32.9823 42.8582 32.8648 42.9264 32.7273C42.9946 32.5899 43.0262 32.4372 43.0182 32.284V20.1549C43.9034 19.0625 44.5132 17.7732 44.7959 16.3958C45.0786 15.0183 45.0261 13.5931 44.6427 12.2402C44.2593 10.8873 43.5563 9.64646 42.593 8.62225C41.6297 7.59804 40.4343 6.8205 39.1076 6.3552V5.86981C39.1031 4.31344 38.4826 2.82217 37.3817 1.72218C36.2809 0.622178 34.7893 0.002978 33.2332 0H5.8705C4.3154 0.00446742 2.82527 0.624326 1.72565 1.72416C0.626023 2.824 0.00628117 4.31441 0.0018146 5.86981V6.84059C-0.00637521 6.9712 0.013221 7.10206 0.0593068 7.22455C0.105393 7.34703 0.176921 7.45835 0.269174 7.55115C0.361428 7.64396 0.472309 7.71614 0.5945 7.76294C0.716691 7.80974 0.847417 7.83009 0.97805 7.82265H9.78108V39.1302C9.78554 40.6856 10.4053 42.176 11.5049 43.2758C12.6045 44.3757 14.0947 44.9955 15.6498 45H39.1301C40.6852 44.9955 42.1754 44.3757 43.275 43.2758C44.3746 42.176 44.9944 40.6856 44.9988 39.1302V38.1481C45.0054 38.0177 44.9844 37.8873 44.9373 37.7655C44.8902 37.6437 44.818 37.5332 44.7254 37.4411C44.6328 37.349 44.5219 37.2775 44.3998 37.2311C44.2778 37.1846 44.1473 37.1644 44.017 37.1717H39.1301V32.3856L41.7711 33.1701ZM36.4836 29.445C36.3952 29.4041 36.2989 29.3828 36.2014 29.3828C36.104 29.3828 36.0077 29.4041 35.9193 29.445L31.3203 30.9181V22.0118C32.7611 22.9931 34.4697 23.5056 36.2127 23.4792C37.9487 23.4573 39.6437 22.9489 41.1052 22.0118V30.9181L36.4836 29.445ZM43.0351 14.6745C43.041 16.279 42.4883 17.8355 41.472 19.0769L41.3704 19.1728C40.722 19.9064 39.9257 20.4944 39.0338 20.8981C38.142 21.3018 37.1747 21.5121 36.1958 21.5151C35.2291 21.5191 34.2733 21.311 33.3958 20.9053C32.5182 20.4996 31.7404 19.9063 31.1171 19.1672L31.0212 19.0712C30.0032 17.8304 29.4486 16.274 29.4525 14.6689C29.448 13.7693 29.6218 12.8778 29.9639 12.0458C30.306 11.2138 30.8097 10.458 31.4456 9.82185C32.0816 9.18575 32.8374 8.68205 33.6692 8.33986C34.501 7.99768 35.3923 7.82381 36.2917 7.8283C37.1891 7.82136 38.0788 7.99425 38.9083 8.33677C39.7378 8.6793 40.4904 9.18451 41.1215 9.82262C41.7526 10.4607 42.2496 11.2188 42.5831 12.0521C42.9166 12.8854 43.0799 13.7771 43.0633 14.6745H43.0351ZM1.95428 5.86981C1.93429 5.34329 2.02071 4.81815 2.20837 4.32582C2.39603 3.83348 2.68107 3.38408 3.04643 3.0045C3.4118 2.62493 3.84998 2.32298 4.33474 2.11673C4.8195 1.91049 5.34088 1.80418 5.86768 1.80418C6.39448 1.80418 6.91586 1.91049 7.40062 2.11673C7.88538 2.32298 8.32356 2.62493 8.68892 3.0045C9.05429 3.38408 9.33933 3.83348 9.52699 4.32582C9.71465 4.81815 9.80107 5.34329 9.78108 5.86981H1.95428ZM39.1301 43.0528H19.9441C20.4555 42.5393 20.8577 41.9275 21.1264 41.2543C21.395 40.5811 21.5245 39.8605 21.5072 39.1358H43.0294C43.0206 40.171 42.606 41.1613 41.8746 41.8938C41.1433 42.6263 40.1538 43.0425 39.1189 43.0528H39.1301ZM37.1607 37.1773H20.5422C20.4112 37.1683 20.2797 37.1873 20.1566 37.233C20.0334 37.2787 19.9214 37.3502 19.828 37.4425C19.7346 37.5349 19.6619 37.6461 19.6148 37.7687C19.5677 37.8913 19.5472 38.0226 19.5547 38.1538V39.1358C19.5547 42.3642 16.1294 42.9512 15.6385 43.0528C14.6035 43.0425 13.614 42.6263 12.8827 41.8938C12.1514 41.1613 11.7367 40.171 11.7279 39.1358V5.86981C11.7541 5.50881 11.7294 5.14592 11.6545 4.7918V4.69585L11.3668 3.81538V3.71378C11.2535 3.4452 11.1215 3.18494 10.9717 2.93491L10.8758 2.83331C10.71 2.58817 10.521 2.35948 10.3115 2.15038V2.05443H33.2558C34.2908 2.06326 35.2809 2.47799 36.0133 3.20945C36.7456 3.9409 37.1617 4.93063 37.172 5.96576V6.06171C36.8713 5.9067 36.5328 5.84016 36.1958 5.86981C35.038 5.86458 33.8907 6.08872 32.82 6.52928C31.7493 6.96983 30.7764 7.6181 29.9575 8.43666C29.1386 9.25522 28.4898 10.2279 28.0486 11.2985C27.6075 12.3691 27.3826 13.5165 27.3871 14.6745C27.4078 16.6691 28.0974 18.599 29.3452 20.1549V32.284C29.3743 32.5856 29.5153 32.8655 29.7403 33.0685C29.8678 33.1554 30.0146 33.2101 30.1679 33.2278C30.3212 33.2455 30.4766 33.2257 30.6206 33.1701L36.1958 31.3075L37.172 31.601L37.1607 37.1773Z" fill="#1F9055"/>
</svg>
