<svg width="19" height="18" viewBox="0 0 19 18" fill="none" xmlns="http://www.w3.org/2000/svg">
<path d="M3.39404 5.25C3.39404 4.83579 3.72983 4.5 4.14404 4.5L14.644 4.5C15.0583 4.5 15.394 4.83579 15.394 5.25C15.394 5.66421 15.0583 6 14.644 6L4.14404 6C3.72983 6 3.39404 5.66421 3.39404 5.25ZM4.89404 9C4.89404 8.58579 5.22983 8.25 5.64404 8.25H13.144C13.5583 8.25 13.894 8.58579 13.894 9C13.894 9.41421 13.5583 9.75 13.144 9.75H5.64404C5.22983 9.75 4.89404 9.41421 4.89404 9ZM6.39404 12.75C6.39404 12.3358 6.72983 12 7.14404 12H11.644C12.0583 12 12.394 12.3358 12.394 12.75C12.394 13.1642 12.0583 13.5 11.644 13.5H7.14404C6.72983 13.5 6.39404 13.1642 6.39404 12.75Z" fill="black"/>
</svg>
