<svg width="154" height="100" viewBox="0 0 154 100" fill="none" xmlns="http://www.w3.org/2000/svg">
<path d="M32.0298 94.7644C46.3916 94.7644 58.0342 83.1335 58.0342 68.786C58.0342 54.4385 46.3916 42.8076 32.0298 42.8076C17.6679 42.8076 6.02539 54.4385 6.02539 68.786C6.02539 83.1335 17.6679 94.7644 32.0298 94.7644Z" fill="#1F9055"/>
<path d="M32.0293 99.4875C15.0839 99.4875 1.29688 85.7142 1.29688 68.7857C1.29688 51.8573 15.0839 38.084 32.0293 38.084C48.9747 38.084 62.7618 51.8573 62.7618 68.7857C62.7618 85.7142 48.9747 99.4875 32.0293 99.4875ZM32.0293 47.5307C20.299 47.5307 10.753 57.0671 10.753 68.7857C10.753 80.5044 20.299 90.0408 32.0293 90.0408C43.7597 90.0408 53.3056 80.5044 53.3056 68.7857C53.3056 57.0671 43.7597 47.5307 32.0293 47.5307Z" fill="#1F9055"/>
<path d="M112.407 94.7644C126.769 94.7644 138.411 83.1335 138.411 68.786C138.411 54.4385 126.769 42.8076 112.407 42.8076C98.0449 42.8076 86.4023 54.4385 86.4023 68.786C86.4023 83.1335 98.0449 94.7644 112.407 94.7644Z" fill="#1F9055"/>
<path d="M112.406 99.4875C95.4609 99.4875 81.6738 85.7142 81.6738 68.7857C81.6738 51.8573 95.4609 38.084 112.406 38.084C129.352 38.084 143.139 51.8573 143.139 68.7857C143.139 85.7142 129.352 99.4875 112.406 99.4875ZM112.406 47.5307C100.676 47.5307 91.13 57.0671 91.13 68.7857C91.13 80.5044 100.676 90.0408 112.406 90.0408C124.137 90.0408 133.683 80.5044 133.683 68.7857C133.683 57.0671 124.137 47.5307 112.406 47.5307Z" fill="#1F9055"/>
<path d="M6.02495 71.1471C3.41032 71.1471 1.29688 69.0357 1.29688 66.4237C1.29688 29.9595 30.9892 0.296875 67.4899 0.296875C70.1045 0.296875 72.2179 2.40821 72.2179 5.02022C72.2179 7.63223 70.1045 9.74357 67.4899 9.74357C36.2042 9.74357 10.753 35.1693 10.753 66.4237C10.753 69.0357 8.63957 71.1471 6.02495 71.1471Z" fill="#1F9055"/>
<path d="M86.4021 71.1471C83.7875 71.1471 81.6741 69.0357 81.6741 66.4237C81.6741 29.9595 111.366 0.296875 147.867 0.296875C150.482 0.296875 152.595 2.40821 152.595 5.02022C152.595 7.63223 150.482 9.74357 147.867 9.74357C116.581 9.74357 91.1302 35.1693 91.1302 66.4237C91.1302 69.0357 89.0168 71.1471 86.4021 71.1471Z" fill="#1F9055"/>
</svg>
