<svg width="41" height="52" viewBox="0 0 41 52" fill="none" xmlns="http://www.w3.org/2000/svg">
<path d="M38.4836 15.5307L2.53979 15.5313C2.35178 15.5377 2.1645 15.5047 1.98961 15.4343C1.81473 15.3639 1.656 15.2577 1.52334 15.1222C1.39068 14.9867 1.28693 14.8249 1.21857 14.6469C1.15022 14.4688 1.11872 14.2784 1.12604 14.0875L1.12603 3.25393C1.11977 3.0636 1.15205 2.874 1.22088 2.69688C1.28971 2.51975 1.39362 2.35887 1.52617 2.22422C1.65872 2.08956 1.81708 1.98401 1.99144 1.91408C2.1658 1.84416 2.35244 1.81137 2.53978 1.81773L38.4836 1.81718C38.6709 1.81082 38.8575 1.84361 39.0319 1.91353C39.2063 1.98345 39.3646 2.08901 39.4972 2.22367C39.6297 2.35832 39.7336 2.5192 39.8025 2.69632C39.8713 2.87345 39.9036 3.06305 39.8973 3.25337C39.8973 13.9882 39.8973 3.35995 39.8973 14.0869C39.9046 14.2779 39.8731 14.4683 39.8048 14.6463C39.7364 14.8244 39.6327 14.9862 39.5 15.1216C39.3673 15.2571 39.2086 15.3634 39.0337 15.4338C38.8588 15.5041 38.6716 15.5371 38.4836 15.5307ZM2.53979 14.0875L38.4798 14.0869C38.4798 3.18796 38.4798 14.0013 38.4798 3.25718L2.54353 3.25773L2.53979 14.0875Z" fill="#013763" stroke="#013763" stroke-width="0.5"/>
<path d="M35 8.02501H13.897C13.7998 8.0322 13.7023 8.01897 13.6104 7.98614C13.5185 7.95332 13.4342 7.90159 13.3629 7.83421C13.2915 7.76682 13.2346 7.68522 13.1957 7.5945C13.1568 7.50377 13.1367 7.40588 13.1367 7.30691C13.1367 7.20795 13.1568 7.11005 13.1957 7.01933C13.2346 6.9286 13.2915 6.847 13.3629 6.77962C13.4342 6.71223 13.5185 6.66051 13.6104 6.62768C13.7023 6.59486 13.7998 6.58163 13.897 6.58882L35 6.58882C35.1786 6.60204 35.3456 6.68344 35.4675 6.81665C35.5895 6.94986 35.6572 7.12502 35.6572 7.30691C35.6572 7.48881 35.5895 7.66397 35.4675 7.79718C35.3456 7.93039 35.1786 8.01179 35 8.02501Z" fill="#013763" stroke="#013763" stroke-width="0.2"/>
<path d="M35 11.025H13.897C13.7998 11.0322 13.7023 11.019 13.6104 10.9861C13.5185 10.9533 13.4342 10.9016 13.3629 10.8342C13.2915 10.7668 13.2346 10.6852 13.1957 10.5945C13.1568 10.5038 13.1367 10.4059 13.1367 10.3069C13.1367 10.208 13.1568 10.1101 13.1957 10.0193C13.2346 9.9286 13.2915 9.847 13.3629 9.77962C13.4342 9.71223 13.5185 9.66051 13.6104 9.62768C13.7023 9.59486 13.7998 9.58163 13.897 9.58882L35 9.58882C35.1786 9.60204 35.3456 9.68344 35.4675 9.81665C35.5895 9.94986 35.6572 10.125 35.6572 10.3069C35.6572 10.4888 35.5895 10.664 35.4675 10.7972C35.3456 10.9304 35.1786 11.0118 35 11.025Z" fill="#013763" stroke="#013763" stroke-width="0.2"/>
<rect x="5" y="5.58691" width="6" height="6" rx="1" fill="#013763"/>
<path d="M38.4836 33.0307L2.53979 33.0313C2.35178 33.0377 2.1645 33.0047 1.98961 32.9343C1.81473 32.8639 1.656 32.7577 1.52334 32.6222C1.39068 32.4867 1.28693 32.3249 1.21857 32.1469C1.15022 31.9688 1.11872 31.7784 1.12604 31.5875L1.12603 20.7539C1.11977 20.5636 1.15205 20.374 1.22088 20.1969C1.28971 20.0197 1.39362 19.8589 1.52617 19.7242C1.65872 19.5896 1.81708 19.484 1.99144 19.4141C2.1658 19.3442 2.35244 19.3114 2.53978 19.3177L38.4836 19.3172C38.6709 19.3108 38.8575 19.3436 39.0319 19.4135C39.2063 19.4835 39.3646 19.589 39.4972 19.7237C39.6297 19.8583 39.7336 20.0192 39.8025 20.1963C39.8713 20.3735 39.9036 20.5631 39.8973 20.7534C39.8973 31.4882 39.8973 20.86 39.8973 31.5869C39.9046 31.7779 39.8731 31.9683 39.8048 32.1463C39.7364 32.3244 39.6327 32.4862 39.5 32.6216C39.3673 32.7571 39.2086 32.8634 39.0337 32.9338C38.8588 33.0041 38.6716 33.0371 38.4836 33.0307ZM2.53979 31.5875L38.4798 31.5869C38.4798 20.688 38.4798 31.5013 38.4798 20.7572L2.54353 20.7577L2.53979 31.5875Z" fill="#013763" stroke="#013763" stroke-width="0.5"/>
<path d="M35 25.525H13.897C13.7998 25.5322 13.7023 25.519 13.6104 25.4861C13.5185 25.4533 13.4342 25.4016 13.3629 25.3342C13.2915 25.2668 13.2346 25.1852 13.1957 25.0945C13.1568 25.0038 13.1367 24.9059 13.1367 24.8069C13.1367 24.708 13.1568 24.6101 13.1957 24.5193C13.2346 24.4286 13.2915 24.347 13.3629 24.2796C13.4342 24.2122 13.5185 24.1605 13.6104 24.1277C13.7023 24.0949 13.7998 24.0816 13.897 24.0888L35 24.0888C35.1786 24.102 35.3456 24.1834 35.4675 24.3167C35.5895 24.4499 35.6572 24.625 35.6572 24.8069C35.6572 24.9888 35.5895 25.164 35.4675 25.2972C35.3456 25.4304 35.1786 25.5118 35 25.525Z" fill="#013763" stroke="#013763" stroke-width="0.2"/>
<path d="M35 28.525H13.897C13.7998 28.5322 13.7023 28.519 13.6104 28.4861C13.5185 28.4533 13.4342 28.4016 13.3629 28.3342C13.2915 28.2668 13.2346 28.1852 13.1957 28.0945C13.1568 28.0038 13.1367 27.9059 13.1367 27.8069C13.1367 27.708 13.1568 27.6101 13.1957 27.5193C13.2346 27.4286 13.2915 27.347 13.3629 27.2796C13.4342 27.2122 13.5185 27.1605 13.6104 27.1277C13.7023 27.0949 13.7998 27.0816 13.897 27.0888L35 27.0888C35.1786 27.102 35.3456 27.1834 35.4675 27.3167C35.5895 27.4499 35.6572 27.625 35.6572 27.8069C35.6572 27.9888 35.5895 28.164 35.4675 28.2972C35.3456 28.4304 35.1786 28.5118 35 28.525Z" fill="#013763" stroke="#013763" stroke-width="0.2"/>
<rect x="5" y="23.0869" width="6" height="6" rx="1" fill="#013763"/>
<path d="M38.4836 50.5307L2.53979 50.5313C2.35178 50.5377 2.1645 50.5047 1.98961 50.4343C1.81473 50.3639 1.656 50.2577 1.52334 50.1222C1.39068 49.9867 1.28693 49.8249 1.21857 49.6469C1.15022 49.4688 1.11872 49.2784 1.12604 49.0875L1.12603 38.2539C1.11977 38.0636 1.15205 37.874 1.22088 37.6969C1.28971 37.5197 1.39362 37.3589 1.52617 37.2242C1.65872 37.0896 1.81708 36.984 1.99144 36.9141C2.1658 36.8442 2.35244 36.8114 2.53978 36.8177L38.4836 36.8172C38.6709 36.8108 38.8575 36.8436 39.0319 36.9135C39.2063 36.9835 39.3646 37.089 39.4972 37.2237C39.6297 37.3583 39.7336 37.5192 39.8025 37.6963C39.8713 37.8735 39.9036 38.0631 39.8973 38.2534C39.8973 48.9882 39.8973 38.36 39.8973 49.0869C39.9046 49.2779 39.8731 49.4683 39.8048 49.6463C39.7364 49.8244 39.6327 49.9862 39.5 50.1216C39.3673 50.2571 39.2086 50.3634 39.0337 50.4338C38.8588 50.5041 38.6716 50.5371 38.4836 50.5307ZM2.53979 49.0875L38.4798 49.0869C38.4798 38.188 38.4798 49.0013 38.4798 38.2572L2.54353 38.2577L2.53979 49.0875Z" fill="#013763" stroke="#013763" stroke-width="0.5"/>
<path d="M35 43.025H13.897C13.7998 43.0322 13.7023 43.019 13.6104 42.9861C13.5185 42.9533 13.4342 42.9016 13.3629 42.8342C13.2915 42.7668 13.2346 42.6852 13.1957 42.5945C13.1568 42.5038 13.1367 42.4059 13.1367 42.3069C13.1367 42.208 13.1568 42.1101 13.1957 42.0193C13.2346 41.9286 13.2915 41.847 13.3629 41.7796C13.4342 41.7122 13.5185 41.6605 13.6104 41.6277C13.7023 41.5949 13.7998 41.5816 13.897 41.5888L35 41.5888C35.1786 41.602 35.3456 41.6834 35.4675 41.8167C35.5895 41.9499 35.6572 42.125 35.6572 42.3069C35.6572 42.4888 35.5895 42.664 35.4675 42.7972C35.3456 42.9304 35.1786 43.0118 35 43.025Z" fill="#013763" stroke="#013763" stroke-width="0.2"/>
<path d="M35 46.025H13.897C13.7998 46.0322 13.7023 46.019 13.6104 45.9861C13.5185 45.9533 13.4342 45.9016 13.3629 45.8342C13.2915 45.7668 13.2346 45.6852 13.1957 45.5945C13.1568 45.5038 13.1367 45.4059 13.1367 45.3069C13.1367 45.208 13.1568 45.1101 13.1957 45.0193C13.2346 44.9286 13.2915 44.847 13.3629 44.7796C13.4342 44.7122 13.5185 44.6605 13.6104 44.6277C13.7023 44.5949 13.7998 44.5816 13.897 44.5888L35 44.5888C35.1786 44.602 35.3456 44.6834 35.4675 44.8167C35.5895 44.9499 35.6572 45.125 35.6572 45.3069C35.6572 45.4888 35.5895 45.664 35.4675 45.7972C35.3456 45.9304 35.1786 46.0118 35 46.025Z" fill="#013763" stroke="#013763" stroke-width="0.2"/>
<rect x="5" y="40.5869" width="6" height="6" rx="1" fill="#013763"/>
</svg>
