<svg width="24" height="25" viewBox="0 0 24 25" fill="none" xmlns="http://www.w3.org/2000/svg">
<path d="M0 12.4004C0 5.78837 5.37258 0.428223 12 0.428223C18.6274 0.428223 24 5.78837 24 12.4004C24 19.0125 18.6274 24.3727 12 24.3727C5.37258 24.3727 0 19.0125 0 12.4004Z" fill="#0077B5"/>
<path fill-rule="evenodd" clip-rule="evenodd" d="M8.65899 7.82239C8.65899 8.60512 8.06844 9.23144 7.1202 9.23144H7.10282C6.18984 9.23144 5.59961 8.60512 5.59961 7.82239C5.59961 7.0231 6.20781 6.41431 7.13813 6.41431C8.06844 6.41431 8.64134 7.0231 8.65899 7.82239ZM8.47956 10.3441V18.496H5.76009V10.3441H8.47956ZM18.287 18.496L18.2871 13.822C18.2871 11.318 16.9455 10.1527 15.156 10.1527C13.7121 10.1527 13.0657 10.9439 12.7048 11.499V10.3443H9.98497C10.0208 11.1093 9.98497 18.4963 9.98497 18.4963H12.7048V13.9435C12.7048 13.6999 12.7224 13.4569 12.7943 13.2824C12.9909 12.7957 13.4384 12.2918 14.1897 12.2918C15.1741 12.2918 15.5676 13.0393 15.5676 14.1347V18.496H18.287Z" fill="white"/>
</svg>
