<svg width="24" height="25" viewBox="0 0 24 25" fill="none" xmlns="http://www.w3.org/2000/svg">
<path d="M0 12.4004C0 5.78837 5.37258 0.428223 12 0.428223C18.6274 0.428223 24 5.78837 24 12.4004C24 19.0125 18.6274 24.3727 12 24.3727C5.37258 24.3727 0 19.0125 0 12.4004Z" fill="#55ACEE"/>
<path d="M11.6406 10.1594L11.6658 10.5737L11.2461 10.5229C9.71843 10.3285 8.38383 9.66905 7.25067 8.56153L6.69668 8.01199L6.55399 8.4178C6.25181 9.32242 6.44487 10.2778 7.0744 10.9203C7.41015 11.2754 7.33461 11.3261 6.75544 11.1148C6.55399 11.0471 6.37772 10.9964 6.36093 11.0218C6.30218 11.0809 6.50363 11.8503 6.66311 12.1546C6.88134 12.5774 7.32621 12.9916 7.81305 13.2368L8.22434 13.4313L7.73751 13.4397C7.26746 13.4397 7.25067 13.4482 7.30103 13.6257C7.46891 14.1753 8.13201 14.7586 8.87066 15.0122L9.39108 15.1898L8.93781 15.4603C8.26631 15.8492 7.4773 16.069 6.68829 16.0859C6.31057 16.0944 6 16.1282 6 16.1536C6 16.2381 7.02404 16.7116 7.61999 16.8976C9.40786 17.4471 11.5315 17.2104 13.1263 16.2719C14.2595 15.604 15.3926 14.2767 15.9214 12.9916C16.2068 12.3068 16.4922 11.0556 16.4922 10.4553C16.4922 10.0664 16.5174 10.0157 16.9874 9.55069C17.2644 9.28015 17.5246 8.98425 17.575 8.8997C17.6589 8.73907 17.6505 8.73907 17.2224 8.8828C16.509 9.13643 16.4083 9.10261 16.7608 8.72216C17.021 8.45162 17.3316 7.96127 17.3316 7.81754C17.3316 7.79218 17.2057 7.83445 17.063 7.91054C16.9119 7.99508 16.5761 8.1219 16.3243 8.19799L15.8711 8.34171L15.4598 8.06272C15.2331 7.91054 14.9142 7.74145 14.7463 7.69072C14.3182 7.57236 13.6635 7.58927 13.2774 7.72454C12.2282 8.10499 11.5651 9.0857 11.6406 10.1594Z" fill="white"/>
</svg>
