<svg width="45" height="45" viewBox="0 0 45 45" fill="none" xmlns="http://www.w3.org/2000/svg">
<path d="M28.6257 12.928H16.2598C15.9817 12.928 15.7151 12.8176 15.5184 12.621C15.3218 12.4243 15.2114 12.1577 15.2114 11.8796C15.2114 11.6015 15.3218 11.3349 15.5184 11.1383C15.7151 10.9416 15.9817 10.8312 16.2598 10.8312H28.6257C28.9037 10.8312 29.1704 10.9416 29.367 11.1383C29.5637 11.3349 29.6741 11.6015 29.6741 11.8796C29.6741 12.1577 29.5637 12.4243 29.367 12.621C29.1704 12.8176 28.9037 12.928 28.6257 12.928Z" fill="#1F9055"/>
<path d="M28.6257 19.5756H16.2598C15.9817 19.5756 15.7151 19.4652 15.5184 19.2686C15.3218 19.0719 15.2114 18.8053 15.2114 18.5272C15.2114 18.2491 15.3218 17.9825 15.5184 17.7858C15.7151 17.5892 15.9817 17.4788 16.2598 17.4788H28.6257C28.9037 17.4788 29.1704 17.5892 29.367 17.7858C29.5637 17.9825 29.6741 18.2491 29.6741 18.5272C29.6741 18.8053 29.5637 19.0719 29.367 19.2686C29.1704 19.4652 28.9037 19.5756 28.6257 19.5756Z" fill="#1F9055"/>
<path d="M44.5449 19.5586C44.4747 19.4234 44.3849 19.2993 44.2785 19.1903L37.4495 14.2088V13.4494C37.4495 13.4494 37.4495 13.4154 37.4495 13.3984V1.97891C37.4582 1.71732 37.4131 1.45674 37.3171 1.21324C37.2211 0.969746 37.0763 0.748503 36.8915 0.563166C36.7067 0.37783 36.4858 0.232334 36.2426 0.135654C35.9994 0.0389742 35.739 -0.00683685 35.4773 0.00104918H9.40813C9.14605 -0.00762833 8.88498 0.0375965 8.64109 0.133922C8.3972 0.230248 8.17568 0.375624 7.99026 0.561044C7.80484 0.746463 7.65947 0.967979 7.56314 1.21187C7.46682 1.45576 7.42159 1.71683 7.43027 1.97891V14.2088L0.805289 18.9919L0.68061 19.0939C0.533103 19.2326 0.41043 19.3955 0.317908 19.5756C0.109354 19.8359 -0.00277086 20.1602 0.000544793 20.4937V43.0039C-0.00566398 43.2654 0.0412517 43.5253 0.138451 43.7681C0.23565 44.0109 0.381108 44.2314 0.566022 44.4163C0.750935 44.6012 0.971453 44.7467 1.21422 44.8439C1.457 44.9411 1.71697 44.988 1.9784 44.9818H42.9071C43.1855 45.0177 43.4682 45.0004 43.7402 44.9308C43.9929 44.9025 44.2277 44.7861 44.4032 44.6021L44.6639 44.3641L44.8283 44.1034L44.8849 43.718V20.4824C44.8887 20.1432 44.7677 19.8144 44.5449 19.5586ZM37.4269 16.7874L41.768 19.944L37.4269 22.3469V16.7874ZM35.347 2.09792V15.2572V23.418C35.3446 23.4482 35.3446 23.4785 35.347 23.5087L23.0095 30.349L9.54414 22.8853V13.0753C9.54414 13.0753 9.54414 13.0413 9.54414 13.0243V2.09792H35.347ZM7.44727 16.776V21.7235L3.57656 19.5756L7.44727 16.776ZM2.09741 42.8849V21.1511L41.3032 42.8849H2.09741ZM42.7881 41.3094L25.18 31.5505L42.7881 21.7858V41.3094Z" fill="#1F9055"/>
</svg>
