<svg width="27" height="16" id="b87fa7e8-509e-4801-9471-11d4cdad8b8f" data-name="katman 1" xmlns="http://www.w3.org/2000/svg" viewBox="0 0 607 360"><rect x="0.5" width="607" height="360" style="fill:#fff"/><rect x="274.5" width="333" height="28" style="fill:#d63647"/><rect x="274.5" y="55" width="333" height="28" style="fill:#d63647"/><rect x="274.5" y="111" width="333" height="27" style="fill:#d63647"/><rect x="274.5" y="166" width="333" height="28" style="fill:#d63647"/><rect x="0.5" y="222" width="607" height="27" style="fill:#d63647"/><rect x="0.5" y="277" width="607" height="28" style="fill:#d63647"/><rect x="0.5" y="332" width="607" height="28" style="fill:#d63647"/><rect x="0.5" width="274" height="194" style="fill:#003976"/><polygon points="23.169 8.357 20.716 16 12.653 16 19.201 20.786 16.685 28.424 23.169 23.699 29.654 28.44 27.17 20.703 33.685 16 25.653 16 23.169 8.357" style="fill:#fff"/><polygon points="68.786 8.357 66.333 16 58.271 16 64.819 20.786 62.302 28.424 68.786 23.699 75.271 28.44 72.787 20.703 79.302 16 71.27 16 68.786 8.357" style="fill:#fff"/><polygon points="114.403 8.357 111.95 16 103.888 16 110.435 20.786 107.919 28.424 114.403 23.699 120.888 28.44 118.404 20.703 124.919 16 116.887 16 114.403 8.357" style="fill:#fff"/><polygon points="160.02 8.357 157.567 16 149.504 16 156.052 20.786 153.535 28.424 160.02 23.699 166.505 28.44 164.02 20.703 170.536 16 162.504 16 160.02 8.357" style="fill:#fff"/><polygon points="205.637 8.357 203.184 16 195.121 16 201.67 20.786 199.152 28.424 205.637 23.699 212.122 28.44 209.638 20.703 216.153 16 208.12 16 205.637 8.357" style="fill:#fff"/><polygon points="251.254 8.357 248.801 16 240.738 16 247.286 20.786 244.769 28.424 251.254 23.699 257.738 28.44 255.255 20.703 261.769 16 253.738 16 251.254 8.357" style="fill:#fff"/><polygon points="23.169 47.357 20.716 55 12.653 55 19.201 59.635 16.685 67.197 23.169 62.436 29.654 67.155 27.17 59.561 33.685 55 25.653 55 23.169 47.357" style="fill:#fff"/><polygon points="68.786 47.357 66.333 55 58.271 55 64.819 59.635 62.302 67.197 68.786 62.436 75.271 67.155 72.787 59.561 79.302 55 71.27 55 68.786 47.357" style="fill:#fff"/><polygon points="114.403 47.357 111.95 55 103.888 55 110.435 59.635 107.919 67.197 114.403 62.436 120.888 67.155 118.404 59.561 124.919 55 116.887 55 114.403 47.357" style="fill:#fff"/><polygon points="160.02 47.357 157.567 55 149.504 55 156.052 59.635 153.535 67.197 160.02 62.436 166.505 67.155 164.02 59.561 170.536 55 162.504 55 160.02 47.357" style="fill:#fff"/><polygon points="205.637 47.357 203.184 55 195.121 55 201.67 59.635 199.152 67.197 205.637 62.436 212.122 67.155 209.638 59.561 216.153 55 208.12 55 205.637 47.357" style="fill:#fff"/><polygon points="251.254 47.357 248.801 55 240.738 55 247.286 59.635 244.769 67.197 251.254 62.436 257.738 67.155 255.255 59.561 261.769 55 253.738 55 251.254 47.357" style="fill:#fff"/><polygon points="23.169 85.858 20.716 93 12.653 93 19.201 97.984 16.685 105.722 23.169 101.047 29.654 105.811 27.17 98.389 33.685 94 25.653 94 23.169 85.858" style="fill:#fff"/><polygon points="68.786 85.858 66.333 93 58.271 93 64.819 97.984 62.302 105.722 68.786 101.047 75.271 105.811 72.787 98.389 79.302 94 71.27 94 68.786 85.858" style="fill:#fff"/><polygon points="114.403 85.858 111.95 93 103.888 93 110.435 97.984 107.919 105.722 114.403 101.047 120.888 105.811 118.404 98.389 124.919 94 116.887 94 114.403 85.858" style="fill:#fff"/><polygon points="160.02 85.858 157.567 93 149.504 93 156.052 97.984 153.535 105.722 160.02 101.047 166.505 105.811 164.02 98.389 170.536 94 162.504 94 160.02 85.858" style="fill:#fff"/><polygon points="205.637 85.858 203.184 93 195.121 93 201.67 97.984 199.152 105.722 205.637 101.047 212.122 105.811 209.638 98.389 216.153 94 208.12 94 205.637 85.858" style="fill:#fff"/><polygon points="251.254 85.858 248.801 93 240.738 93 247.286 97.984 244.769 105.722 251.254 101.047 257.738 105.811 255.255 98.389 261.769 94 253.738 94 251.254 85.858" style="fill:#fff"/><polygon points="23.169 124.358 20.716 132 12.653 132 19.201 136.833 16.685 144.495 23.169 139.783 29.654 144.527 27.17 136.747 33.685 132 25.653 132 23.169 124.358" style="fill:#fff"/><polygon points="68.786 124.358 66.333 132 58.271 132 64.819 136.833 62.302 144.495 68.786 139.783 75.271 144.527 72.787 136.747 79.302 132 71.27 132 68.786 124.358" style="fill:#fff"/><polygon points="114.403 124.358 111.95 132 103.888 132 110.435 136.833 107.919 144.495 114.403 139.783 120.888 144.527 118.404 136.747 124.919 132 116.887 132 114.403 124.358" style="fill:#fff"/><polygon points="160.02 124.358 157.567 132 149.504 132 156.052 136.833 153.535 144.495 160.02 139.783 166.505 144.527 164.02 136.747 170.536 132 162.504 132 160.02 124.358" style="fill:#fff"/><polygon points="205.637 124.358 203.184 132 195.121 132 201.67 136.833 199.152 144.495 205.637 139.783 212.122 144.527 209.638 136.747 216.153 132 208.12 132 205.637 124.358" style="fill:#fff"/><polygon points="251.254 124.358 248.801 132 240.738 132 247.286 136.833 244.769 144.495 251.254 139.783 257.738 144.527 255.255 136.747 261.769 132 253.738 132 251.254 124.358" style="fill:#fff"/><polygon points="23.169 163.357 20.716 171 12.653 171 19.201 175.682 16.685 183.27 23.169 178.519 29.654 183.245 27.17 175.606 33.685 171 25.653 171 23.169 163.357" style="fill:#fff"/><polygon points="68.786 163.357 66.333 171 58.271 171 64.819 175.682 62.302 183.27 68.786 178.519 75.271 183.245 72.787 175.606 79.302 171 71.27 171 68.786 163.357" style="fill:#fff"/><polygon points="114.403 163.357 111.95 171 103.888 171 110.435 175.682 107.919 183.27 114.403 178.519 120.888 183.245 118.404 175.606 124.919 171 116.887 171 114.403 163.357" style="fill:#fff"/><polygon points="160.02 163.357 157.567 171 149.504 171 156.052 175.682 153.535 183.27 160.02 178.519 166.505 183.245 164.02 175.606 170.536 171 162.504 171 160.02 163.357" style="fill:#fff"/><polygon points="205.637 163.357 203.184 171 195.121 171 201.67 175.682 199.152 183.27 205.637 178.519 212.122 183.245 209.638 175.606 216.153 171 208.12 171 205.637 163.357" style="fill:#fff"/><polygon points="251.254 163.357 248.801 171 240.738 171 247.286 175.682 244.769 183.27 251.254 178.519 257.738 183.245 255.255 175.606 261.769 171 253.738 171 251.254 163.357" style="fill:#fff"/><polygon points="45.978 144.358 43.525 152 35.462 152 42.01 156.566 39.494 164.095 45.978 159.315 52.462 164.028 49.979 156.496 56.493 152 48.462 152 45.978 144.358" style="fill:#fff"/><polygon points="91.595 144.358 89.142 152 81.079 152 87.627 156.566 85.11 164.095 91.595 159.315 98.08 164.028 95.595 156.496 102.111 152 94.079 152 91.595 144.358" style="fill:#fff"/><polygon points="137.211 144.358 134.758 152 126.696 152 133.244 156.566 130.727 164.095 137.211 159.315 143.696 164.028 141.213 156.496 147.727 152 139.695 152 137.211 144.358" style="fill:#fff"/><polygon points="182.829 144.358 180.376 152 172.313 152 178.86 156.566 176.345 164.095 182.829 159.315 189.312 164.028 186.829 156.496 193.344 152 185.312 152 182.829 144.358" style="fill:#fff"/><polygon points="228.445 144.358 225.992 152 217.93 152 224.477 156.566 221.961 164.095 228.445 159.315 234.931 164.028 232.446 156.496 238.962 152 230.93 152 228.445 144.358" style="fill:#fff"/><polygon points="45.978 105.358 43.525 113 35.462 113 42.01 117.678 39.494 125.263 45.978 120.511 52.462 125.237 49.979 117.602 56.493 113 48.462 113 45.978 105.358" style="fill:#fff"/><polygon points="91.595 105.358 89.142 113 81.079 113 87.627 117.678 85.11 125.263 91.595 120.511 98.08 125.237 95.595 117.602 102.111 113 94.079 113 91.595 105.358" style="fill:#fff"/><polygon points="137.211 105.358 134.758 113 126.696 113 133.244 117.678 130.727 125.263 137.211 120.511 143.696 125.237 141.213 117.602 147.727 113 139.695 113 137.211 105.358" style="fill:#fff"/><polygon points="182.829 105.358 180.376 113 172.313 113 178.86 117.678 176.345 125.263 182.829 120.511 189.312 125.237 186.829 117.602 193.344 113 185.312 113 182.829 105.358" style="fill:#fff"/><polygon points="228.445 105.358 225.992 113 217.93 113 224.477 117.678 221.961 125.263 228.445 120.511 234.931 125.237 232.446 117.602 238.962 113 230.93 113 228.445 105.358" style="fill:#fff"/><polygon points="45.978 66.358 43.525 74 35.462 74 42.01 78.79 39.494 86.431 45.978 81.707 52.462 86.447 49.979 78.707 56.493 74 48.462 74 45.978 66.358" style="fill:#fff"/><polygon points="91.595 66.358 89.142 74 81.079 74 87.627 78.79 85.11 86.431 91.595 81.707 98.08 86.447 95.595 78.707 102.111 74 94.079 74 91.595 66.358" style="fill:#fff"/><polygon points="137.211 66.358 134.758 74 126.696 74 133.244 78.79 130.727 86.431 137.211 81.707 143.696 86.447 141.213 78.707 147.727 74 139.695 74 137.211 66.358" style="fill:#fff"/><polygon points="182.829 66.358 180.376 74 172.313 74 178.86 78.79 176.345 86.431 182.829 81.707 189.312 86.447 186.829 78.707 193.344 74 185.312 74 182.829 66.358" style="fill:#fff"/><polygon points="228.445 66.358 225.992 74 217.93 74 224.477 78.79 221.961 86.431 228.445 81.707 234.931 86.447 232.446 78.707 238.962 74 230.93 74 228.445 66.358" style="fill:#fff"/><polygon points="45.978 27.358 43.525 35 35.462 35 42.01 39.901 39.494 47.598 45.978 42.903 52.462 47.657 49.979 39.812 56.493 35 48.462 35 45.978 27.358" style="fill:#fff"/><polygon points="91.595 27.358 89.142 35 81.079 35 87.627 39.901 85.11 47.598 91.595 42.903 98.08 47.657 95.595 39.812 102.111 35 94.079 35 91.595 27.358" style="fill:#fff"/><polygon points="137.211 27.358 134.758 35 126.696 35 133.244 39.901 130.727 47.598 137.211 42.903 143.696 47.657 141.213 39.812 147.727 35 139.695 35 137.211 27.358" style="fill:#fff"/><polygon points="182.829 27.358 180.376 35 172.313 35 178.86 39.901 176.345 47.598 182.829 42.903 189.312 47.657 186.829 39.812 193.344 35 185.312 35 182.829 27.358" style="fill:#fff"/><polygon points="228.445 27.358 225.992 35 217.93 35 224.477 39.901 221.961 47.598 228.445 42.903 234.931 47.657 232.446 39.812 238.962 35 230.93 35 228.445 27.358" style="fill:#fff"/></svg>