<svg width="27" height="17" id="b70a233e-b345-4a71-b27b-ad585c37b24c" data-name="Layer 1" xmlns="http://www.w3.org/2000/svg" viewBox="0 0 512 360"><rect width="168" height="360" style="fill:#e42420"/><rect x="344" width="168" height="360" style="fill:#e42420"/><rect x="168" width="176" height="360" style="fill:#fff"/><path d="M256,90l-14.291,27.147c-1.622,2.95-4.526,2.676-7.431,1.028l-10.346-5.456,7.711,41.7c1.621,7.618-3.581,7.618-6.149,4.324l-18.056-20.587L204.5,148.607a3.5,3.5,0,0,1-4.054,2.472l-22.831-4.889,6,22.205c1.284,4.942,2.285,6.987-1.3,8.29l-8.138,3.9,39.3,32.516a5.3,5.3,0,0,1,1.787,5.445l-3.44,11.5c13.533-1.588,25.658-3.979,39.2-5.45,1.2-.131,3.2,1.878,3.189,3.289L252.425,270H259l-1.036-42.031c-.008-1.411,1.807-3.511,3-3.38,13.539,1.471,25.665,3.862,39.2,5.45l-3.44-11.5a5.3,5.3,0,0,1,1.788-5.445l39.3-32.516-8.137-3.9c-3.581-1.3-2.58-3.348-1.3-8.29l6-22.205-22.83,4.889a3.5,3.5,0,0,1-4.055-2.472l-2.932-10.454L286.509,158.74c-2.567,3.294-7.771,3.294-6.148-4.324l7.71-41.7-10.346,5.456c-2.905,1.648-5.81,1.922-7.431-1.028" style="fill:#e42620"/></svg>