<svg width="165" height="54" viewBox="0 0 165 54" fill="none" xmlns="http://www.w3.org/2000/svg">
<g clip-path="url(#clip0)">
<path d="M46.2865 51.9991C23.948 51.9991 5.74119 40.7706 5.74119 27.001C5.74119 23.6234 6.83902 20.3987 8.82276 17.4546C11.5817 17.5424 17.2236 18.2336 17.7963 20.7366L22.1629 39.6633H25.2845L30.0577 22.8349L35.4571 39.6633H38.5769L42.2561 21.0822C42.7353 18.8102 43.268 17.7505 44.9615 17.5023C46.1204 17.678 46.7963 18.2813 46.7963 20.2765V36.1235C46.7963 38.7239 45.6507 38.9664 43.7816 38.9664V39.6614H60.0104L60.2013 35.9039L61.9769 39.6308C63.8088 39.8819 65.6554 40.0094 67.5043 40.0127C72.2527 40.0127 76.0655 37.9315 76.0655 33.5307C76.0655 30.2372 74.2307 28.8167 71.4832 27.2301C68.4838 25.4525 63.9607 24.4387 63.9607 21.361C63.9607 19.0698 66.0055 17.5825 68.3272 17.5825C72.0369 17.5825 74.3605 19.7323 74.6736 21.5691H75.5404L74.7271 16.8207C72.837 16.4295 70.9122 16.2312 68.9821 16.2288C64.6137 16.2288 61.1827 17.9281 61.1827 22.0865C61.1827 24.3051 62.3149 25.5537 63.8385 26.7337C67.0633 29.1947 72.8121 30.3384 72.8121 34.0805C72.8121 36.4748 70.836 38.449 67.7869 38.449C64.7378 38.449 60.9555 36.9425 60.6844 35.0867H59.3842C58.8629 37.4791 57.788 38.3096 55.1207 38.3096H51.7948C50.0631 38.3096 49.8855 38.1015 49.8855 35.3979V28.2573H54.357C56.6806 28.2573 57.5112 29.2291 57.5112 31.1708H58.2405V23.9977H57.5112C57.5112 26.3881 56.6806 26.9074 54.357 26.9074H49.8893V20.8416C49.8893 18.3118 49.9943 17.93 51.7986 17.93H54.8534C57.3145 17.93 58.4601 18.6937 58.8744 20.8073H59.7412L59.4987 16.5782H37.4466V17.445C39.3559 17.445 40.2895 17.6875 40.2895 19.3849C40.2612 19.9236 40.18 20.4582 40.047 20.981L37.3378 35.3006H37.2671L31.0333 16.5897H29.9279L24.6258 35.3006H24.5571L21.1586 20.3261C21.0371 19.8495 20.968 19.361 20.9524 18.8694C20.9524 17.9682 21.6111 17.4489 24.1046 17.4489V16.5782H9.44518C15.8756 7.98649 29.9813 2.00092 46.2942 2.00092C68.6327 2.00092 86.8395 13.2313 86.8395 27.001C86.8395 40.7706 68.625 51.9991 46.2942 51.9991H46.2865ZM46.2865 0C20.792 0 0 12.1296 0 27.001C0 41.8723 20.792 54 46.2865 54C71.7811 54 92.5731 41.8723 92.5731 27.001C92.5731 12.1296 71.7887 0 46.2865 0Z" fill="#1F8F55"/>
<path d="M84.4167 5.18166C84.4326 5.33489 84.3929 5.48872 84.305 5.6152C84.217 5.74168 84.0866 5.83242 83.9375 5.87091L84.5103 6.67471H84.0348L83.506 5.93201H83.0153V6.68235H82.6334V4.46187H83.4563C83.7103 4.43977 83.9647 4.50002 84.1819 4.6337C84.2616 4.69994 84.3244 4.78415 84.3652 4.87941C84.4061 4.97467 84.4237 5.07826 84.4167 5.18166ZM83.9184 5.49478C83.9596 5.45403 83.9913 5.40463 84.0111 5.35015C84.0309 5.29567 84.0384 5.23747 84.0329 5.17975C84.0398 5.12434 84.0327 5.06809 84.0124 5.01609C83.9921 4.96408 83.9591 4.91797 83.9165 4.88191C83.7871 4.81715 83.6424 4.7894 83.4983 4.80172H83.0229V5.59216H83.4888C83.6388 5.60799 83.7898 5.57375 83.9184 5.49478Z" fill="#1F8F55"/>
<path d="M83.5098 7.66591C83.1019 7.66591 82.7033 7.54497 82.3642 7.31839C82.0251 7.09182 81.7608 6.76977 81.6047 6.39299C81.4486 6.0162 81.4078 5.6016 81.4874 5.20161C81.5669 4.80162 81.7633 4.4342 82.0517 4.14582C82.3401 3.85744 82.7075 3.66106 83.1075 3.58149C83.5075 3.50193 83.9221 3.54276 84.2988 3.69883C84.6756 3.8549 84.9977 4.1192 85.2242 4.45829C85.4508 4.79739 85.5718 5.19606 85.5718 5.60389C85.5707 6.15046 85.3532 6.67436 84.9667 7.06084C84.5802 7.44732 84.0563 7.6649 83.5098 7.66591ZM83.5098 3.87599C83.1707 3.87788 82.8398 3.98002 82.5587 4.16956C82.2776 4.3591 82.0588 4.62756 81.93 4.94116C81.8011 5.25475 81.7679 5.59946 81.8345 5.9319C81.9011 6.26433 82.0645 6.56963 82.3043 6.80937C82.544 7.04911 82.8493 7.21257 83.1817 7.27918C83.5142 7.34578 83.8589 7.31256 84.1725 7.18369C84.4861 7.05481 84.7545 6.83605 84.9441 6.55494C85.1336 6.27383 85.2357 5.94292 85.2376 5.60389C85.2371 5.14578 85.0549 4.70657 84.731 4.38264C84.4071 4.05871 83.9679 3.8765 83.5098 3.87599Z" fill="#1F8F55"/>
<path d="M108.653 17.468L108.624 12.059L106.001 16.4618H104.718L102.108 12.2041V17.468H99.4349V7.25525H101.812L105.398 13.1454L108.901 7.25525H111.278L111.311 17.468H108.653Z" fill="#1E9055"/>
<path d="M120.405 15.4842H116.084L115.282 17.468H112.342L116.848 7.25525H119.69L124.21 17.4622H121.206L120.405 15.4842ZM119.561 13.3649L118.247 10.1001L116.935 13.3649H119.561Z" fill="#1E9055"/>
<path d="M129.707 14.7549H128.133V17.4679H125.248V7.25524H129.915C130.738 7.23841 131.556 7.39723 132.313 7.7211C132.963 7.99086 133.516 8.45312 133.897 9.04589C134.277 9.63866 134.467 10.3336 134.442 11.0375C134.458 11.7178 134.278 12.3885 133.924 12.9697C133.564 13.5322 133.051 13.9801 132.444 14.2604L134.646 17.4679H131.559L129.707 14.7549ZM131.077 9.92822C130.776 9.66474 130.33 9.533 129.741 9.533H128.139V12.5248H129.741C130.334 12.5248 130.78 12.3975 131.077 12.143C131.231 12.0053 131.351 11.8347 131.43 11.6439C131.508 11.4532 131.542 11.2472 131.53 11.0413C131.543 10.8337 131.509 10.6259 131.43 10.4333C131.352 10.2406 131.231 10.068 131.077 9.92822Z" fill="#1E9055"/>
<path d="M136.253 7.25525H139.14V17.468H136.253V7.25525Z" fill="#1E9055"/>
<path d="M148.251 15.4842H143.936L143.134 17.468H140.19L144.694 7.25525H147.539L152.058 17.4622H149.055L148.251 15.4842ZM147.407 13.3649L146.094 10.1001L144.782 13.3649H147.407Z" fill="#1E9055"/>
<path d="M162.307 17.468L162.288 12.059L159.654 16.4618H158.37L155.761 12.2041V17.468H153.088V7.25525H155.465L159.05 13.1454L162.556 7.25525H164.933L164.961 17.468H162.307Z" fill="#1E9055"/>
<path d="M106.278 30.0654H101.955L101.153 32.0472H98.215L102.719 21.8422H105.564L110.083 32.0472H107.08L106.278 30.0654ZM105.432 27.9366L104.118 24.6698L102.807 27.9366H105.432Z" fill="#1E9055"/>
<path d="M112.3 31.9461C111.624 31.788 110.982 31.5113 110.404 31.1289L111.358 29.0001C111.85 29.3177 112.385 29.5633 112.947 29.7294C113.523 29.9101 114.123 30.0034 114.726 30.0063C115.835 30.0063 116.389 29.7294 116.389 29.1758C116.388 29.0316 116.342 28.8915 116.257 28.775C116.172 28.6586 116.053 28.5717 115.916 28.5266C115.421 28.3327 114.91 28.1838 114.388 28.0817C113.733 27.9501 113.087 27.772 112.456 27.549C111.945 27.362 111.489 27.0487 111.131 26.6383C110.761 26.2208 110.576 25.657 110.576 24.9467C110.569 24.3462 110.748 23.7582 111.087 23.2627C111.471 22.7279 112.002 22.3155 112.615 22.0752C113.404 21.7624 114.248 21.6136 115.097 21.6379C115.764 21.6373 116.429 21.7129 117.079 21.8632C117.682 21.9957 118.261 22.2197 118.797 22.5277L117.907 24.6699C117.045 24.1749 116.073 23.9045 115.08 23.8832C114.507 23.8832 114.089 23.9692 113.825 24.1372C113.707 24.203 113.608 24.2992 113.538 24.416C113.469 24.5328 113.433 24.6659 113.432 24.8016C113.432 25.0727 113.587 25.277 113.898 25.4145C114.385 25.601 114.888 25.7423 115.4 25.8364C116.056 25.9685 116.702 26.1465 117.333 26.3691C117.845 26.5564 118.304 26.8665 118.669 27.2722C119.043 27.6859 119.23 28.2472 119.23 28.9562C119.236 29.5498 119.058 30.1308 118.721 30.6192C118.334 31.1513 117.804 31.5631 117.193 31.8067C116.405 32.1243 115.56 32.2757 114.711 32.2516C113.898 32.2543 113.087 32.1516 112.3 31.9461Z" fill="#1E9055"/>
<path d="M121.951 31.9463C121.275 31.7858 120.633 31.5065 120.055 31.1215L121.01 28.9927C121.502 29.3102 122.037 29.5558 122.598 29.722C123.174 29.9026 123.774 29.9959 124.378 29.9988C125.488 29.9988 126.042 29.722 126.041 29.1683C126.04 29.0242 125.993 28.884 125.908 28.7676C125.823 28.6512 125.704 28.5643 125.567 28.5192C125.073 28.3252 124.561 28.1763 124.04 28.0743C123.386 27.9426 122.743 27.7646 122.115 27.5416C121.6 27.3565 121.14 27.0431 120.779 26.6309C120.408 26.2134 120.223 25.6495 120.223 24.9393C120.218 24.3388 120.396 23.7511 120.735 23.2553C121.119 22.7205 121.649 22.3081 122.262 22.0677C123.051 21.755 123.896 21.6062 124.744 21.6305C125.411 21.6298 126.076 21.7054 126.726 21.8558C127.33 21.9882 127.909 22.2123 128.445 22.5202L127.555 24.6624C126.693 24.1675 125.721 23.897 124.727 23.8758C124.154 23.8758 123.736 23.9617 123.473 24.1297C123.354 24.1955 123.255 24.2918 123.186 24.4086C123.117 24.5254 123.08 24.6585 123.079 24.7942C123.079 25.0653 123.236 25.2696 123.547 25.407C124.033 25.5939 124.536 25.7352 125.048 25.829C125.704 25.961 126.349 26.139 126.98 26.3617C127.489 26.5503 127.945 26.8603 128.307 27.2648C128.681 27.6784 128.868 28.2398 128.868 28.9487C128.874 29.5424 128.696 30.1233 128.359 30.6117C127.972 31.1439 127.442 31.5556 126.831 31.7993C126.043 32.1168 125.198 32.2683 124.349 32.2442C123.54 32.2482 122.734 32.1481 121.951 31.9463Z" fill="#1E9055"/>
<path d="M138.613 29.8172V32.0472H130.421V21.8422H138.422V24.0722H133.267V25.7905H137.802V27.948H133.279V29.8153L138.613 29.8172Z" fill="#1E9055"/>
<path d="M143.325 24.0722V26.3175H147.829V28.5475H143.325V32.0472H140.437V21.8422H148.442V24.0722H143.325Z" fill="#1E9055"/>
<path d="M156.461 30.0654H152.146L151.344 32.0472H148.398L152.904 21.8422H155.747L160.266 32.0472H157.263L156.461 30.0654ZM155.615 27.9366L154.304 24.6698L152.992 27.9366H155.615Z" fill="#1E9055"/>
<path d="M102.326 38.6535V40.8969H106.832V43.1288H102.326V46.6285H99.4388V36.4215H107.443V38.6535H102.326Z" fill="#1E9055"/>
<path d="M110.192 45.5937C109.352 44.7663 108.931 43.5947 108.93 42.0787V36.4215H111.819V41.9909C111.819 43.6252 112.465 44.4417 113.756 44.4405C115.048 44.4392 115.69 43.6227 115.681 41.9909V36.4215H118.524V42.0787C118.524 43.5947 118.104 44.7663 117.264 45.5937C116.424 46.421 115.245 46.8341 113.728 46.8328C112.212 46.8328 111.033 46.4197 110.192 45.5937Z" fill="#1E9055"/>
<path d="M130.403 36.4215V46.6285H128.03L123.53 41.189V46.6285H120.697V36.4215H123.074L127.578 41.861V36.4215H130.403Z" fill="#1E9055"/>
<path d="M132.666 36.421H137.493C138.518 36.3997 139.535 36.6112 140.467 37.0396C141.296 37.4261 141.995 38.0441 142.48 38.8191C142.948 39.6412 143.194 40.5709 143.194 41.5169C143.194 42.4629 142.948 43.3926 142.48 44.2147C141.995 44.9896 141.296 45.6071 140.467 45.9922C139.536 46.4249 138.519 46.6397 137.493 46.6204H132.666V36.421ZM137.376 44.3235C138.251 44.3235 138.951 44.0759 139.476 43.5808C140.002 43.0857 140.267 42.4002 140.271 41.5245C140.271 40.6501 140.006 39.9646 139.476 39.4682C138.947 38.9718 138.247 38.7243 137.376 38.7255H135.558V44.3235H137.376Z" fill="#1E9055"/>
</g>
<defs>
<clipPath id="clip0">
<rect width="164.961" height="54" fill="white"/>
</clipPath>
</defs>
</svg>
