<svg width="24" height="25" viewBox="0 0 24 25" fill="none" xmlns="http://www.w3.org/2000/svg">
<path d="M0 12.4004C0 5.78837 5.37258 0.428223 12 0.428223C18.6274 0.428223 24 5.78837 24 12.4004C24 19.0125 18.6274 24.3727 12 24.3727C5.37258 24.3727 0 19.0125 0 12.4004Z" fill="#FF0000"/>
<path d="M18.1321 9.44378C17.9849 8.87959 17.5512 8.43531 17.0004 8.28453C16.0023 8.0105 11.9996 8.0105 11.9996 8.0105C11.9996 8.0105 7.99692 8.0105 6.99874 8.28453C6.44797 8.43531 6.01423 8.87959 5.86703 9.44378C5.59961 10.4663 5.59961 12.5998 5.59961 12.5998C5.59961 12.5998 5.59961 14.7333 5.86703 15.7559C6.01423 16.3201 6.44797 16.7644 6.99874 16.9152C7.99692 17.1892 11.9996 17.1892 11.9996 17.1892C11.9996 17.1892 16.0023 17.1892 17.0004 16.9152C17.5512 16.7644 17.9849 16.3201 18.1321 15.7559C18.3996 14.7333 18.3996 12.5998 18.3996 12.5998C18.3996 12.5998 18.3996 10.4663 18.1321 9.44378Z" fill="white"/>
<path d="M10.8008 14.7949V10.8042L14.0008 12.7996L10.8008 14.7949Z" fill="#FF0000"/>
</svg>
